<svg xmlns="http://www.w3.org/2000/svg" width="720" height="734" fill="none"><path fill="#EFF0F7" d="M78.891 643.798S59.905 537.657 59.854 515.833c-.06-30.205 21.385-42.23 21.385-42.23l-8.329-25.61h45.796l-7.236 25.436s24.137 13.793 20.768 45.121c-6.295 58.565-16.315 125.205-16.315 125.205l-37.032.043ZM296.9 720.251a17.897 17.897 0 0 0-8.138-1.745 17.98 17.98 0 0 0-8.055 2.149c-.134-5.516-1.559-10.905-4.141-15.668-2.584-4.763-6.241-8.744-10.633-11.575-4.393-2.83-9.378-4.418-14.492-4.615-5.113-.198-10.19 1.002-14.759 3.487-1.544-4.55-3.995-8.679-7.18-12.096-3.186-3.416-7.028-6.037-11.255-7.677a28.636 28.636 0 0 0-13.212-1.815c-4.474.445-8.803 1.944-12.681 4.39-3.851-4.894-8.96-8.448-14.682-10.213a28.035 28.035 0 0 0-17.472.294c-5.581 2.171-10.444 6.073-13.977 11.213-3.532 5.141-5.578 11.292-5.879 17.682a21.66 21.66 0 0 0-11.868.128c-3.879 1.147-7.416 3.359-10.267 6.419-5.617 6.166-13.055 25.098-10.839 33.391l199.995-.436a21.137 21.137 0 0 0-3.857-7.914c-1.809-2.301-4.064-4.145-6.608-5.399Z"/><path fill="#DCDDEB" d="M674.765 643.881c0 .152-151.061.283-337.362.283-186.301 0-337.403-.142-337.403-.283 0-.143 151.031-.295 337.403-.295s337.362.131 337.362.295Z"/><path fill="#05C168" d="M54.39 547.171c-4.771-2.66-10.393-3.004-15.696-2.087-2.844.512-5.805 1.429-7.74 3.735-1.936 2.306-2.303 6.364-.078 8.347 1.438 1.046 3.17 1.518 4.896 1.335 4.142-.052 8.709-.846 12.067 1.846 1.886 1.545 3.144 4.091 5.408 4.852 1.133.283 2.32.16 3.382-.35 1.062-.51 1.94-1.38 2.502-2.477a10.59 10.59 0 0 0 .667-7.303 11.564 11.564 0 0 0-1.85-4.629 10.55 10.55 0 0 0-3.559-3.269ZM65.333 524.406c-2.903 4.497-8.602 3.005-11.225.261-2.622-2.744-3.744-6.719-4.76-10.547-2.313-8.659-4.645-17.736-2.903-26.583.414-2.672 1.502-5.17 3.145-7.22a7.153 7.153 0 0 1 3.084-2.196 6.667 6.667 0 0 1 3.689-.245c2.903.814 4.635 3.84 5.922 6.719 3.789 8.483 5.773 17.772 5.806 27.188 0 4.381-.465 8.972-2.748 12.592M73.345 530.813c-3.164-4.059-3.774-9.974-2.361-15.055 1.412-5.081 4.596-9.389 8.273-12.937 4.325-4.132 9.353-7.321 14.804-9.389a14.943 14.943 0 0 1 6.657-1.221 6.656 6.656 0 0 1 3.216 1.079 7.302 7.302 0 0 1 2.378 2.573c1.558 3.202.067 7.094-1.549 10.266a124.01 124.01 0 0 1-9.724 15.962c-2.903 4.058-6.26 8.054-10.702 9.88-4.442 1.825-9.057 1.617-11.418-1.701"/><path fill="#211F54" d="M65.526 592.219a9.74 9.74 0 0 1-.261-2.086c-.136-1.481-.31-3.348-.503-5.571a88.397 88.397 0 0 0-1.162-8.179 68.442 68.442 0 0 0-2.757-9.65A36.606 36.606 0 0 0 56.266 558c-1.55-2.184-3.534-3.965-5.806-5.216a15.542 15.542 0 0 0-4.838-1.628 9.138 9.138 0 0 1-1.935-.292 7.551 7.551 0 0 1 1.935 0c1.76.136 3.48.617 5.08 1.42 2.377 1.21 4.463 2.995 6.096 5.215a35.649 35.649 0 0 1 4.741 8.91 62.181 62.181 0 0 1 2.73 9.807c.478 2.737.8 5.504.967 8.284.164 2.368.222 4.288.251 5.613.09.698.103 1.405.04 2.106Z"/><path fill="#211F54" d="M65.169 587.932a4.493 4.493 0 0 1 0-.949v-2.713c0-2.347 0-5.748-.116-9.953-.194-8.408-.862-17.465-2.158-30.255-1.23-11.998-2.903-25.957-4.616-35.033a174.627 174.627 0 0 0-1.103-5.551c-.348-1.628-.629-3.036-.91-4.172-.28-1.138-.425-1.941-.58-2.641a4.089 4.089 0 0 1-.155-.928c.13.283.23.581.3.887l.735 2.598c.32 1.127.659 2.525 1.036 4.173.377 1.648.803 3.474 1.22 5.54a331.502 331.502 0 0 1 4.837 32.508c1.297 12.78 1.935 24.424 1.935 32.853 0 4.174 0 7.627-.135 9.974-.058 1.105-.116 2.003-.155 2.713-.005.321-.05.641-.135.949Z"/><path fill="#211F54" d="M65.12 565.48a18.003 18.003 0 0 1 0-2.827c.097-1.826.329-4.454.803-7.679a108.864 108.864 0 0 1 2.313-11.173 97.17 97.17 0 0 1 4.334-13.229c3.008-7.896 7.323-15.136 12.734-21.366a32.76 32.76 0 0 1 2.99-3.005c.465-.417.871-.835 1.278-1.168l1.17-.866c.701-.575 1.446-1.083 2.226-1.524.126.188-3.135 2.254-7.248 6.97-5.227 6.288-9.424 13.488-12.414 21.293a109.706 109.706 0 0 0-4.354 13.114c-.996 3.638-1.82 7.33-2.468 11.059a124.45 124.45 0 0 0-1.045 7.595c-.043.943-.15 1.88-.32 2.806Z"/><path fill="#4B3CFB" d="m85.246 605.083-2.09 30.819h-36.72l-2.09-30.819h40.9Z"/><path fill="#3F37A0" d="M88.798 592.94H39.97v12.143h48.827V592.94ZM88.788 634.723v3.369H40.775v-3.369h48.013Z"/><path fill="#4B3CFB" d="m84.25 644.019 2.245-5.926H42.526l2.622 5.926H84.25Z"/><path fill="#05C168" d="M618.762 341.136c4.77-2.66 10.392-3.005 15.694-2.087 2.845.512 5.806 1.429 7.741 3.735 1.935 2.306 2.303 6.364.078 8.347-1.438 1.045-3.17 1.518-4.896 1.335-4.142-.053-8.709-.845-12.067 1.846-1.886 1.545-3.144 4.09-5.409 4.852a4.987 4.987 0 0 1-3.381-.35 5.517 5.517 0 0 1-2.501-2.478 10.594 10.594 0 0 1-.669-7.302 11.584 11.584 0 0 1 1.851-4.629 10.552 10.552 0 0 1 3.559-3.269ZM607.818 318.371c2.903 4.497 8.602 3.005 11.224.262 2.623-2.745 3.744-6.72 4.761-10.548 2.312-8.659 4.644-17.736 2.903-26.583-.414-2.672-1.503-5.17-3.145-7.22a7.141 7.141 0 0 0-3.084-2.196 6.676 6.676 0 0 0-3.689-.245c-2.903.814-4.635 3.839-5.922 6.719-3.789 8.483-5.773 17.772-5.806 27.188 0 4.382.465 8.972 2.748 12.592M599.807 324.777c3.164-4.058 3.773-9.973 2.36-15.054-1.413-5.081-4.595-9.389-8.273-12.936-4.325-4.133-9.352-7.322-14.804-9.39a14.945 14.945 0 0 0-6.658-1.221 6.656 6.656 0 0 0-3.216 1.079 7.32 7.32 0 0 0-2.376 2.572c-1.558 3.204-.068 7.095 1.548 10.267a124.088 124.088 0 0 0 9.724 15.962c2.904 4.058 6.261 8.054 10.702 9.88 4.442 1.825 9.058 1.617 11.418-1.701"/><path fill="#211F54" d="M607.625 386.185c.162-.683.25-1.382.261-2.087.135-1.482.31-3.349.503-5.571a88.43 88.43 0 0 1 1.161-8.179 68.575 68.575 0 0 1 2.758-9.651 36.622 36.622 0 0 1 4.577-8.731c1.55-2.185 3.534-3.967 5.806-5.217a15.51 15.51 0 0 1 4.838-1.627 9.202 9.202 0 0 0 1.935-.293 7.55 7.55 0 0 0-1.935 0 13.695 13.695 0 0 0-5.08 1.419c-2.376 1.211-4.462 2.997-6.096 5.216a35.623 35.623 0 0 0-4.741 8.91 62.043 62.043 0 0 0-2.729 9.807 73.448 73.448 0 0 0-.968 8.283 118.601 118.601 0 0 0-.252 5.613 9.71 9.71 0 0 0-.038 2.108Z"/><path fill="#211F54" d="M607.983 381.896a4.56 4.56 0 0 0 0-.949v-2.713c0-2.347 0-5.748.115-9.953.194-8.408.861-17.464 2.158-30.254 1.229-11.998 2.903-25.957 4.616-35.034.377-2.087.754-3.923 1.103-5.55.348-1.627.629-3.037.909-4.173.281-1.138.426-1.941.581-2.64.087-.302.138-.613.155-.929-.13.284-.23.581-.3.887l-.735 2.598c-.32 1.127-.658 2.525-1.036 4.173-.377 1.648-.803 3.474-1.219 5.54a331.597 331.597 0 0 0-4.838 32.509c-1.297 12.78-1.936 24.423-1.936 32.852 0 4.174 0 7.627.136 9.974.058 1.107.116 2.003.154 2.713.006.322.052.641.137.949Z"/><path fill="#211F54" d="M608.031 359.446a17.8 17.8 0 0 0 0-2.828c-.096-1.825-.329-4.454-.803-7.678a108.831 108.831 0 0 0-2.312-11.173 97.24 97.24 0 0 0-4.335-13.229c-3.007-7.897-7.322-15.136-12.734-21.367a32.874 32.874 0 0 0-2.99-3.005c-.464-.417-.871-.834-1.278-1.168l-1.17-.866a15.7 15.7 0 0 0-2.225-1.523c-.127.188 3.135 2.254 7.246 6.969 5.228 6.288 9.426 13.489 12.416 21.294a109.735 109.735 0 0 1 4.354 13.114c.996 3.639 1.819 7.33 2.467 11.058.542 3.193.851 5.801 1.045 7.595.043.943.15 1.881.319 2.807Z"/><path fill="#EFF0F7" d="M582.339 543.302h-13.373v57.331h13.373v-57.331Z"/><path fill="#DCDDEB" d="M671.269 543.302h-13.373v57.331h13.373v-57.331Z"/><path fill="#EFF0F7" d="M757.026 411.161H568.781v132.036h188.245V411.161Z"/><path fill="#DCDDEB" d="M734.145 477.205a6.648 6.648 0 0 1 0-.747v-10.401c0-7.208-.093-17.669-.15-30.897l.3.323-146.823.203.487-.526V477.165l-.487-.525 104.737.242 30.848.141h11.256H723.282l-30.735.162-105.075.222h-.468v-42.206l.505-.525 146.824.202h.037v.323c0 13.308-.112 23.829-.15 31.079v10.218c0 .445-.075.707-.075.707Z"/><path fill="#DCDDEB" d="M667.147 456.183a7.31 7.31 0 0 1-1.083 3.848 6.553 6.553 0 0 1-2.883 2.551 5.99 5.99 0 0 1-3.712.395 6.296 6.296 0 0 1-3.289-1.896 7.116 7.116 0 0 1-1.758-3.546 7.435 7.435 0 0 1 .365-4.003 6.846 6.846 0 0 1 2.367-3.108 6.095 6.095 0 0 1 3.569-1.168c1.703 0 3.338.73 4.542 2.029 1.205 1.299 1.882 3.061 1.882 4.898Z"/><path fill="#0075FF" d="m596.293 361.775 7.192 11.147s-16.182 4.847-16.182 20.336c0 15.489 9.889 18.398 20.603 18.398 10.713 0 21.108-3.394 20.602-18.882-.505-15.49-13.935-21.306-13.935-21.306l6.743-9.693h-25.023Z"/><path fill="#05C168" d="M523.884 76.925c.422-.436 3.325 1.802 7.126 6.431a71.316 71.316 0 0 1 6.053 8.67 89.646 89.646 0 0 1 5.824 11.744 94.132 94.132 0 0 1 3.976 12.616 78.24 78.24 0 0 1 1.759 10.7c.529 6.165.001 9.979-.527 10.017-1.373 0-2.622-14.816-9.378-31.36-6.758-16.543-15.854-27.813-14.833-28.818ZM552.582 149.416c-.598 0-2.234-8.063-3.766-21.438-1.53-13.375-2.815-31.948-3.308-52.476-.492-20.527-.299-39.081 0-52.513.3-13.432.968-21.742 1.602-21.742.633 0 1.196 8.31 1.636 21.723.44 13.413.757 31.967 1.267 52.4.511 20.432 1.249 38.911 1.971 52.285.721 13.376 1.267 21.761.598 21.761Z"/><path fill="#05C168" d="M580.348 32.835c.599.36-1.759 6.071-4.944 15.595-3.185 9.524-7.144 22.766-11.015 37.678-3.871 14.911-6.792 28.457-8.587 38.436-1.794 9.979-2.534 16.126-3.219 16.107-.687-.019-1.056-6.432 0-16.638a278.185 278.185 0 0 1 7.372-39.214 274.645 274.645 0 0 1 12.44-37.697c3.994-9.353 7.461-14.59 7.953-14.267Z"/><path fill="#6E7191" d="M516.844 132.341v16.335a37.23 37.23 0 0 0 2.451 13.348c1.622 4.233 4.003 8.079 7.005 11.32 3.001 3.24 6.566 5.811 10.49 7.564a30.299 30.299 0 0 0 12.378 2.657 30.32 30.32 0 0 0 12.376-2.648c3.923-1.75 7.489-4.317 10.492-7.554 3.003-3.235 5.386-7.078 7.011-11.308a37.238 37.238 0 0 0 2.462-13.341v-16.373h-64.665Z"/><path fill="#EFF0F7" d="M772.019 183.603H473.647v18.611h298.372v-18.611Z"/><path fill="#DCDDEB" d="M540.053 202.214h-9.836v32.213h9.836v-32.213ZM703.729 202.214h-9.837v32.213h9.837v-32.213Z"/><path fill="#3F37A0" d="M799.344 382.771v28.373H686.16c-3.477 0-6.813-1.49-9.271-4.141-2.459-2.651-3.84-6.246-3.84-9.995 0-3.75 1.381-7.345 3.84-9.996 2.458-2.651 5.794-4.141 9.271-4.141"/><path fill="#4B3CFB" d="M799.344 355.509v28.373H686.16c-3.477 0-6.813-1.49-9.271-4.141-2.459-2.651-3.84-6.246-3.84-9.995 0-3.749 1.381-7.345 3.84-9.996 2.458-2.651 5.794-4.141 9.271-4.141l113.184-.1Z"/><path fill="#DCDDEB" d="m644.15 116.557-6.756 67.615h86.588l7.196-67.615H644.15Z"/><path fill="#fff" d="m647.704 121.414-6.581 59.173h78.161l6.335-59.173h-77.915Z"/><path fill="#4B3CFB" d="m660.867 131.355-4.048 39.271h49.321l2.534-39.271h-47.807Z"/><g filter="url(#a)"><path fill="#6E7191" d="m551.362 589.634 10.803 54.649h-13.857l-23.201-55.569 26.255.92Z"/><path fill="#6E7191" d="M551.362 589.635H549.473l-5.264-.139-19.139-.564.174-.277 19.744 47.136c1.181 2.847 2.351 5.652 3.513 8.414l-.22-.159h13.857l-.221.297c-3.09-15.82-5.749-29.485-7.647-39.185-.918-4.845-1.67-8.701-2.184-11.38-.247-1.315-.439-2.334-.568-3.056-.064-.336-.11-.593-.147-.801a1.602 1.602 0 0 1 0-.277c.027.081.05.164.064.248l.166.761c.147.712.357 1.71.623 2.966l2.293 11.331c1.953 9.73 4.686 23.404 7.868 39.285l.064.296h-14.296l-.056-.148-3.521-8.415c-7.52-18.085-14.407-34.607-19.635-47.184l-.118-.287h.284l19.258.772 5.228.237 1.347.069c.142.01.283.029.422.06ZM168.314 589.634l-10.803 54.649h13.847l23.211-55.569-26.255.92Z"/><path fill="#6E7191" d="M168.314 589.635c.148-.013.299-.013.448 0l1.349-.069 5.218-.238 19.258-.771h.294l-.12.286-19.643 47.185a5088.595 5088.595 0 0 1-3.513 8.415l-.064.147h-14.315l.055-.296c3.182-15.88 5.924-29.554 7.868-39.284.981-4.806 1.761-8.642 2.303-11.302.274-1.295.476-2.294.622-2.966l.175-.761c0-.168.055-.257.065-.248a2.808 2.808 0 0 1-.047.277c0 .208-.082.465-.137.801-.137.722-.33 1.741-.569 3.056-.513 2.679-1.257 6.536-2.192 11.38-1.889 9.7-4.585 23.345-7.638 39.185l-.221-.297h13.848l-.211.159c1.149-2.762 2.32-5.567 3.512-8.414l19.745-47.135.164.276-19.138.565-5.255.138h-1.385l-.476-.089Z"/><path fill="#CBCDDC" d="M581.13 535.055H170.469v70.894H581.13v-70.894ZM370.269 478.318v-79.892a11.418 11.418 0 0 1 .748-4.09 10.781 10.781 0 0 1 2.143-3.467 9.894 9.894 0 0 1 3.213-2.318 9.268 9.268 0 0 1 3.791-.814h173.004c2.622 0 5.136 1.123 6.991 3.122 1.853 1.999 2.896 4.71 2.896 7.537v111.019l-193.043 5.933.257-37.03Z"/><path fill="#CBCDDC" d="M176.595 478.318v-79.892a11.43 11.43 0 0 1 .759-4.096 10.782 10.782 0 0 1 2.157-3.47 9.892 9.892 0 0 1 3.224-2.315 9.29 9.29 0 0 1 3.8-.808h173.803c2.628-.006 5.149 1.114 7.012 3.113 1.862 1.998 2.912 4.713 2.92 7.546l-.257 116.912-193.418-5.932v-31.058ZM606.68 605.187h-44.368c-4.145 0-7.501-4.746-7.501-10.6V468.361c0-5.854 3.356-10.6 7.62-10.6h44.359c4.026 0 7.336 4.746 7.336 10.6v126.226c.055 5.854-3.301 10.6-7.446 10.6Z"/><path fill="#6E7191" d="M606.68 605.187s.33 0 .917-.128a5.935 5.935 0 0 0 2.595-1.207 9.698 9.698 0 0 0 2.816-3.875c.405-.968.691-1.988.852-3.036.162-1.197.223-2.409.184-3.618 0-10.304-.046-25.205-.082-43.616-.037-18.41 0-40.341 0-64.694v-13.942c.05-1.571.004-3.143-.139-4.707a12.97 12.97 0 0 0-1.43-4.42c-.723-1.375-1.791-2.503-3.081-3.253a4.884 4.884 0 0 0-2.073-.642c-.725-.07-1.513 0-2.265 0h-42.625c-1.589.066-3.097.771-4.227 1.977a10.605 10.605 0 0 0-2.468 4.281 16.084 16.084 0 0 0-.605 5.043v124.803c-.028 1.152.07 2.304.294 3.431.4 2.182 1.415 4.178 2.906 5.715a6.521 6.521 0 0 0 2.532 1.562 9.229 9.229 0 0 0 2.861.257h28.291l11.005.05h3.833H563.642a9.136 9.136 0 0 1-2.944-.267 6.58 6.58 0 0 1-2.659-1.622c-1.554-1.592-2.612-3.665-3.027-5.932a16.52 16.52 0 0 1-.311-3.511V469.033c-.064-1.759.15-3.518.632-5.201a11.034 11.034 0 0 1 2.596-4.498c1.221-1.275 2.84-2.012 4.539-2.067h44.79a5.518 5.518 0 0 1 2.246.702 8.584 8.584 0 0 1 3.265 3.441 13.368 13.368 0 0 1 1.485 4.598c.145 1.59.194 3.189.147 4.786v13.942c0 24.353 0 46.274-.054 64.694-.056 18.422-.056 33.313-.074 43.616a21.088 21.088 0 0 1-.211 3.648 12.637 12.637 0 0 1-.917 3.065 9.693 9.693 0 0 1-2.889 3.955 5.844 5.844 0 0 1-2.641 1.167 5.137 5.137 0 0 1-.935.306Z"/><path fill="#CBCDDC" d="M550.014 507.971H377.532c-4.355 0-7.886 3.807-7.886 8.504v23.958c0 4.696 3.531 8.504 7.886 8.504h172.482c4.356 0 7.887-3.808 7.887-8.504v-23.958c0-4.697-3.531-8.504-7.887-8.504Z"/><path fill="#6E7191" d="M550.014 548.907s.385 0 1.119-.129a7.621 7.621 0 0 0 3.892-1.91 8.543 8.543 0 0 0 2.389-3.824 11.05 11.05 0 0 0 .386-3.649V519.501c0-1.968.219-4.084-.523-6.022-.727-2.033-2.162-3.679-3.998-4.587-1.881-.989-4.109-.703-6.337-.752h-14.169l-155.25.148c-1.838.003-3.613.723-4.998 2.028-1.382 1.286-2.281 3.072-2.531 5.022a26.46 26.46 0 0 0-.082 2.967v20.843c-.04.955.008 1.913.147 2.857.165.92.475 1.803.916 2.61.886 1.625 2.272 2.863 3.916 3.501 1.605.692 3.403.465 5.173.504h35.865l69.771.06 47.027.109 12.839.058h4.457-4.457l-12.839.06-47.027.099-69.771.069h-38.516a7.711 7.711 0 0 1-3.982-1.17 8.503 8.503 0 0 1-2.941-3.121 9.455 9.455 0 0 1-1.009-2.809 16.324 16.324 0 0 1-.156-2.965v-20.696a24.69 24.69 0 0 1 .091-3.065c.273-2.104 1.252-4.028 2.752-5.408 1.494-1.398 3.404-2.17 5.382-2.176l155.177.089h17.471a7.319 7.319 0 0 1 3.173.792c1.402.696 2.59 1.81 3.422 3.212a9.21 9.21 0 0 1 1.273 4.697v22.92a11.22 11.22 0 0 1-.422 3.708c-.585 1.876-1.754 3.477-3.311 4.528a7.288 7.288 0 0 1-3.127 1.207 5.074 5.074 0 0 1-1.192.089Z"/><path fill="#CBCDDC" d="M169.424 605.948h-44.368c-4.136 0-7.501-4.745-7.501-10.599V469.133c0-5.854 3.365-10.6 7.63-10.6h44.357c4.027 0 7.337 4.746 7.337 10.6v126.246c.046 5.824-3.31 10.569-7.455 10.569Z"/><path fill="#6E7191" d="M169.423 605.95s.331 0 .917-.119a6.201 6.201 0 0 0 2.595-1.207 9.614 9.614 0 0 0 2.816-3.875c.404-.969.69-1.99.852-3.036a21.68 21.68 0 0 0 .184-3.619c0-10.313 0-25.214-.074-43.615-.073-18.401 0-40.352-.054-64.696V471.842c.05-1.573.005-3.149-.138-4.716a12.99 12.99 0 0 0-1.431-4.41c-.718-1.38-1.787-2.508-3.081-3.253a5.06 5.06 0 0 0-2.072-.653c-.725-.059-1.513 0-2.266 0h-42.616c-1.583.049-3.092.737-4.227 1.928a10.61 10.61 0 0 0-2.467 4.281 15.908 15.908 0 0 0-.605 5.034v124.812a15.78 15.78 0 0 0 .293 3.431c.405 2.181 1.419 4.175 2.907 5.716a6.513 6.513 0 0 0 2.531 1.552 8.999 8.999 0 0 0 2.861.267h28.292l11.005.049h3.833-3.833l-11.005.05h-28.292a9.362 9.362 0 0 1-2.943-.268 6.706 6.706 0 0 1-2.66-1.384c-1.552-1.594-2.609-3.666-3.026-5.933a15.996 15.996 0 0 1-.303-3.509V470.023a16.681 16.681 0 0 1 .578-5.162 11.026 11.026 0 0 1 2.595-4.498c1.23-1.292 2.87-2.031 4.586-2.067h44.927a5.379 5.379 0 0 1 2.247.701c1.369.79 2.502 1.983 3.264 3.442a13.341 13.341 0 0 1 1.486 4.598c.145 1.59.193 3.189.146 4.786v13.941c0 24.344 0 46.275-.054 64.695-.055 18.421-.055 33.302-.074 43.615a21.176 21.176 0 0 1-.211 3.648 12.352 12.352 0 0 1-.917 3.065 9.585 9.585 0 0 1-2.888 3.897 5.9 5.9 0 0 1-2.642 1.176 5.542 5.542 0 0 1-1.036.09Z"/><path fill="#CBCDDC" d="M361.759 507.517h-183.11c-4.356 0-7.886 3.807-7.886 8.503v24.868c0 4.696 3.53 8.504 7.886 8.504h183.11c4.356 0 7.887-3.808 7.887-8.504V516.02c0-4.696-3.531-8.503-7.887-8.503Z"/><path fill="#6E7191" d="M361.759 549.392s.404 0 1.183-.139a7.603 7.603 0 0 0 4.037-2.117 8.57 8.57 0 0 0 2.29-4.162 15.93 15.93 0 0 0 .249-3.876v-20.932c0-1.039 0-2.116-.065-3.164a8.536 8.536 0 0 0-.917-3.045 8.175 8.175 0 0 0-2.044-2.551 7.474 7.474 0 0 0-2.816-1.464 11.781 11.781 0 0 0-3.311-.257h-18.387l-163.293.098c-1.929-.001-3.786.789-5.195 2.211-1.409 1.42-2.263 3.367-2.389 5.443v25.095c-.051 2 .564 3.954 1.733 5.507 1.159 1.521 2.787 2.542 4.586 2.878.912.118 1.833.158 2.751.118h40.534l73.411.069 49.521.099 13.454.06h4.695-4.695l-13.454.049-49.521.109-73.411.059h-40.544c-.952.045-1.906.002-2.851-.128-1.958-.347-3.731-1.451-4.988-3.105-1.258-1.655-1.914-3.746-1.845-5.884v-25.134c.14-2.233 1.06-4.326 2.575-5.857 1.515-1.53 3.511-2.385 5.588-2.389l163.292.099h18.387a12.217 12.217 0 0 1 3.393.286 7.871 7.871 0 0 1 2.932 1.539 8.566 8.566 0 0 1 2.13 2.664c.497.985.809 2.068.918 3.183.1 1.107.045 2.156.054 3.205V538.89a15.744 15.744 0 0 1-.284 3.955 8.595 8.595 0 0 1-2.37 4.206c-1.16 1.118-2.601 1.839-4.141 2.073a5.87 5.87 0 0 1-.917.069l-.275.199ZM370.269 397.525c.165 0 .294 25.56.294 57.082 0 31.522-.129 57.082-.294 57.082-.165 0-.284-25.55-.284-57.082s.128-57.082.284-57.082ZM469.092 433.656s-.175.267-.404.761a4.227 4.227 0 0 0-.293 2.245 4.02 4.02 0 0 0 .512 1.558c.274.473.641.877 1.074 1.181a3.13 3.13 0 0 0 1.787.307 3.216 3.216 0 0 0 1.674-.743 3.597 3.597 0 0 0 1.068-1.576c.214-.62.266-1.293.148-1.944a3.836 3.836 0 0 0-.812-1.399 3.49 3.49 0 0 0-1.288-.895 3.342 3.342 0 0 0-2.1-.207c-.495.118-.751.287-.78.237.191-.23.44-.395.716-.474a3.36 3.36 0 0 1 2.302 0 3.884 3.884 0 0 1 1.511.967c.429.443.758.984.965 1.584a3.693 3.693 0 0 1 0 2.264 4.47 4.47 0 0 1-1.313 1.949 3.987 3.987 0 0 1-2.062.928 3.02 3.02 0 0 1-2.054-.494 4.076 4.076 0 0 1-1.204-1.377 4.44 4.44 0 0 1-.521-1.808 4.089 4.089 0 0 1 .514-2.412c.266-.505.541-.672.56-.652Z"/><path fill="#6E7191" d="M486.654 418.765c0 .109-1.174.128-2.972.681-2.343.699-4.482 2.026-6.22 3.86-1.737 1.833-3.014 4.112-3.712 6.622-.55 1.978-.605 3.194-.705 3.183a2.332 2.332 0 0 1 0-.889c.037-.816.153-1.624.348-2.413.612-2.642 1.893-5.048 3.697-6.953 1.805-1.904 4.065-3.231 6.528-3.834a10.616 10.616 0 0 1 2.238-.326c.267-.033.539-.01.798.069ZM446.037 439.836c.138-.308.325-.589.551-.831a13.124 13.124 0 0 1 1.888-1.918c2.285-1.909 5.035-3.06 7.915-3.313 2.881-.253 5.767.404 8.309 1.889.761.424 1.48.931 2.145 1.513.468.435.698.702.67.732-.028.029-1.073-.88-3.008-1.889a14.436 14.436 0 0 0-8.076-1.661c-2.78.246-5.448 1.301-7.716 3.055-1.752 1.365-2.595 2.502-2.678 2.423ZM473.338 450.187c-.065 0-.523-.484-1.155-1.444a9.969 9.969 0 0 1-1.716-4.27 5.58 5.58 0 0 1 .212-2.376 5.27 5.27 0 0 1 1.173-2.024c.917-.841 1.67-.821 1.66-.761-.009.058-.67.246-1.366 1.077a5.33 5.33 0 0 0-.932 1.88 5.548 5.548 0 0 0-.15 2.124 11.96 11.96 0 0 0 1.486 4.113c.336.517.602 1.084.788 1.681Z"/></g><path fill="#A0A3BD" d="m563.81 628.213 17.005 54.934-67.013 24.259c-1.662-6.657 28.895-32.298 28.895-32.298l-12.283-34.681 33.396-12.214Z"/><path fill="#fff" d="m580.777 683.22-1.883-5.516-63.575 25.26s-2.616 2.398-1.556 4.415l67.014-24.159Z" opacity=".6"/><path fill="#263238" d="M538.578 658.241a6.534 6.534 0 0 0 3.348-1.227 16.21 16.21 0 0 0 3.166-2.37 19.609 19.609 0 0 0 1.609-1.734c.303-.349.558-.744.758-1.17.141-.31.177-.662.103-.997a1.495 1.495 0 0 0-.508-.837 1.818 1.818 0 0 0-1.674-.241 4.795 4.795 0 0 0-1.204.636c-.657.41-1.278.882-1.857 1.41a13.336 13.336 0 0 0-2.446 3.187c-1.1 2.031-1.23 3.47-1.1 3.498.131.028.615-1.269 1.806-3.046a15.039 15.039 0 0 1 2.459-2.821 13.621 13.621 0 0 1 1.739-1.298c.641-.451 1.243-.676 1.531-.423.288.254.131.156 0 .409-.15.313-.34.602-.563.86-.453.59-.938 1.149-1.451 1.679a20.17 20.17 0 0 1-2.852 2.44 28.1 28.1 0 0 0-2.864 2.045Z"/><path fill="#263238" d="M539.153 658.565a5.936 5.936 0 0 0-.144-3.61 11.657 11.657 0 0 0-1.635-3.582 11.61 11.61 0 0 0-1.518-1.764 2.866 2.866 0 0 0-1.226-.848c-.47-.166-.971-.2-1.455-.097a1.652 1.652 0 0 0-.732.54c-.194.249-.321.55-.367.87a4.7 4.7 0 0 0 0 1.411c.127.802.369 1.578.719 2.299a8.029 8.029 0 0 0 2.539 3.018 4.47 4.47 0 0 0 3.348 1.072c.065-.211-1.308-.438-2.812-1.777a8.16 8.16 0 0 1-2.081-2.821 7.61 7.61 0 0 1-.549-2.002c-.131-.762 0-1.411.249-1.411.284-.009.566.048.829.167.262.119.496.298.688.525.513.469.986.988 1.412 1.551a12.889 12.889 0 0 1 1.727 3.172c.772 1.933.812 3.301 1.008 3.287Z"/><path fill="#A0A3BD" d="m429.115 640.906 3.061 57.233-70.637 1.001c.315-6.882 36.627-21.155 36.627-21.155l-1.844-37.079h32.793Z"/><path fill="#fff" d="m432.177 698.198-.275-5.825-67.668 3.131s-3.126 1.41-2.734 3.695l70.677-1.001Z" opacity=".6"/><path fill="#263238" d="M397.525 669.115c.144.311 1.727-.198 3.676-.085 1.949.114 3.479.706 3.649.409.171-.295-1.307-1.537-3.597-1.636-2.289-.099-3.911 1.059-3.728 1.312ZM399.081 660.568a6.59 6.59 0 0 0 3.532-.071 16.04 16.04 0 0 0 5.704-2.341 4.211 4.211 0 0 0 1.059-.86 1.46 1.46 0 0 0 .398-.911 1.484 1.484 0 0 0-.267-.965 1.959 1.959 0 0 0-.681-.579 1.805 1.805 0 0 0-.85-.197 4.575 4.575 0 0 0-1.307.197c-.75.198-1.48.467-2.185.805a12.301 12.301 0 0 0-3.231 2.228c-1.622 1.565-2.158 2.892-2.04 2.962.118.07.942-1.001 2.616-2.3a13.88 13.88 0 0 1 3.126-1.861 12.29 12.29 0 0 1 2.028-.662c.745-.212 1.308-.226 1.582.112.066.127.079.17-.078.395a3.304 3.304 0 0 1-.771.634c-.602.406-1.221.778-1.859 1.115a18.466 18.466 0 0 1-3.4 1.41 22.317 22.317 0 0 0-3.376.889Z"/><path fill="#263238" d="M399.54 661.061a5.875 5.875 0 0 0 .876-3.498 12.104 12.104 0 0 0-.536-3.934 12.014 12.014 0 0 0-.942-2.186 3.092 3.092 0 0 0-.923-1.213 2.776 2.776 0 0 0-1.352-.578 1.55 1.55 0 0 0-.872.285 1.74 1.74 0 0 0-.594.744c-.18.42-.298.867-.353 1.326a8.383 8.383 0 0 0 0 2.44 8.319 8.319 0 0 0 1.57 3.695c1.4 1.848 2.851 2.257 2.878 2.13.026-.127-1.099-.833-2.185-2.61a8.485 8.485 0 0 1-1.164-3.385 7.925 7.925 0 0 1 0-2.087c.105-.762.379-1.41.653-1.311.276.098.956.564 1.309 1.17.364.614.671 1.267.916 1.946.406 1.149.654 2.356.732 3.583.131 2.115-.209 3.441-.013 3.483Z"/><path fill="#211F54" d="M409.926 410.041s-27.562 144.663-27.562 149.599c0 4.936 10.635 111.871 10.635 111.871h40.407l-9.246-115.805 32.792-96.964-3.27-48.701h-43.756Z"/><path fill="#211F54" d="M450.358 434.864c.655 4.823 81.874 230.624 81.874 230.624l40.119-15.274c-.379 0-46.299-132.472-46.299-132.472s-1.469-70.648-5.366-105.701c-2.452-22.068-20.894-35.074-20.894-35.074l-53.502 30.492 4.068 27.405Z"/><path fill="#0075FF" d="M386.484 273.755c-.26 1.41 23.951 90.721 23.951 90.721l1.807 32.195-3.454 15.371s28.15 3.667 49.223 4.683c21.074 1.015 42.887-36.321 42.887-36.321l-10.746-97.735-37.936-47.348-14.558 4.712s-8.333 30.689-32.585 18.926l-3.27 2.018-15.319 12.778Z"/><path fill="#0075FF" d="m388.793 262.518 25.289-13.615 34.969-12.507s20.215-4.661 32.45 2.723c10.712 6.497 15.98 117.729 15.98 117.729l3.01 22.18-87.909 17.962 1.5-21.993s-17.404-34.369-21.428-49.451c-1.532-21.902-3.861-63.028-3.861-63.028Z"/><path fill="#fff" d="M489.029 272.029c-.073.06-.152.109-.236.147l-.685.362c-.6.316-1.477.734-2.572 1.228a69.622 69.622 0 0 1-17.88 5.264 45.426 45.426 0 0 1-2.799.352l-.759.058a.914.914 0 0 1-.271.02 1.33 1.33 0 0 1 .264-.061l.754-.121a83.64 83.64 0 0 0 2.78-.45 84.855 84.855 0 0 0 9.052-2.104 84.522 84.522 0 0 0 8.782-3.146 100.37 100.37 0 0 0 2.606-1.136l.709-.312a1.21 1.21 0 0 1 .255-.101Z"/><path fill="#211F54" d="M422.123 115.048a9.46 9.46 0 0 1 3.041-3.054 8.646 8.646 0 0 1 3.981-1.283c1.139-.085 2.412.055 3.27-.756a8.01 8.01 0 0 0 1.266-2.258 4.852 4.852 0 0 1 1.267-1.426 4.472 4.472 0 0 1 1.68-.784 4.303 4.303 0 0 1 1.832-.017c.606.124 1.182.38 1.694.749.434.46.936.838 1.485 1.121 2.376.803 4.031-4.057 6.401-3.231a5.522 5.522 0 0 0-2.068 2.524 2.737 2.737 0 0 0-.096 1.667c.142.551.452 1.035.879 1.373 2.352 1.522 4.963-3.42 7.487-2.277 1.371.657 1.907 2.826 3.389 2.912a4.737 4.737 0 0 0 1.651-.46 3.56 3.56 0 0 1 2.769.383c.845.502 1.48 1.332 1.778 2.321.456 1.701.004 3.975 1.406 4.904.863.567 1.978.231 2.944-.123a11.555 11.555 0 0 1-.282 4.804c1.424.623 2.569 1.819 3.194 3.333a6.875 6.875 0 0 1 .159 4.79c1.508.73 2.868 1.77 4.004 3.064 1.056 1.36 1.582 3.353.865 4.953a4.529 4.529 0 0 0-.45 1.1c-.039.44.034.881.209 1.278.582 1.564 1.509 3.009 1.716 4.677.208 1.667-.607 3.708-2.164 3.864-.358.026-.779-.018-1.043.254a1.195 1.195 0 0 0-.244.825c.102 1.209.379 2.393.822 3.51a5.171 5.171 0 0 1 .081 3.542c-.48 1.094-1.937 1.722-2.765.924.749 1.756 1.493 3.519 2.242 5.276.442 1.047.857 2.334.269 3.284-.788 1.24-2.684.751-3.632-.358-.947-1.109-1.407-2.627-2.359-3.714a8.457 8.457 0 0 1-1.182-1.334c-.246-.408-.385-.931-.782-1.168-.794-.472-1.681.767-1.422 1.708.259.939 1.082 1.531 1.764 2.15.683.619 1.327 1.614 1.005 2.537-.148.437-.506.8-.627 1.228-.484 1.559 1.655 2.54 2.144 4.087.364 1.138-.249 2.356-.891 3.349-.784 1.209-2.486 2.396-3.305 1.216a14.51 14.51 0 0 1-.544-1.413 3.504 3.504 0 0 0-1.28-1.122c-1.179-.79-2.116-1.938-2.693-3.3 1.383 1.29 2.918 3.055 2.404 4.944a8.542 8.542 0 0 1-1.183 2.115c-.831 1.341-1.22 2.97-2.037 4.326-.815 1.356-2.346 2.461-3.764 1.952.356.728.473 1.563.332 2.372a3.72 3.72 0 0 1-1.106 2.082 3.25 3.25 0 0 1-2.068.888 3.202 3.202 0 0 1-2.132-.688 2.927 2.927 0 0 0-1.048-.682 2.264 2.264 0 0 0-1.294.287 6.806 6.806 0 0 1-3.952.307 7.156 7.156 0 0 1-3.522-1.958l1.236-.764c-2.653.147-5.428.272-7.829-.933-2.402-1.205-4.354-4.073-3.657-6.837.296-1.202 1.038-2.514.426-3.565-.423-.73-1.304-.93-2.082-1.061l-9.851-1.71c-1.593-.276-3.28-.591-4.498-1.731-1.218-1.142-1.689-3.391-.531-4.598-.977-1.413-2.31-2.494-3.839-3.115-1.706-.701-3.583-.795-5.304-1.405-1.72-.609-3.457-2.023-3.667-3.95-.209-1.925 2.003-3.958 3.479-2.76-.736-2.86-5.575-2.107-6.47-4.911-.734-2.282 1.856-4.045 2.979-6.126-.429-.729-1.288-1.128-1.739-1.871-.948-1.559.397-3.564 1.817-4.653 1.419-1.089 3.146-2.255 3.215-4.119.07-1.863-1.728-3.676-1.096-5.461.191-.486.545-.877.992-1.094a1.817 1.817 0 0 1 1.418-.077c.67-3.599 6.92-2.212 8.109-5.653.109-.267.131-.566.065-.849a1.38 1.38 0 0 0-.407-.602c-.835-.79-1.962-1.078-2.929-1.622-.968-.543-1.906-1.615-1.699-2.781.206-1.165 2.133-1.516 2.308-.341a2.43 2.43 0 0 1 .895-.677 2.28 2.28 0 0 1 2.126.153c.321.197.595.471.804.799.583-1.125 2.028-1.395 3.18-.948a7.812 7.812 0 0 1 2.79 2.394"/><path fill="#4B3CFB" d="M443.091 149.213c-1.872-4.58-5.891-7.735-10.078-9.902a11.165 11.165 0 0 0-5.578-1.604c-1.95.1-3.956 1.287-4.575 3.284l.924 3.365c.635 5.54 5.41 9.254 8.241 13.923 1.226 2.032 2.414 4.546 4.564 5.039a4.496 4.496 0 0 0 3.382-.787c4.031-2.536 4.994-8.7 3.12-13.318Z"/><path fill="#211F54" d="M448.355 174.302c.968-2.405 1.121-5.1.433-7.616-.689-2.514-2.175-4.688-4.2-6.141 1.334-2.956-.121-6.662-2.513-8.697-2.392-2.036-5.478-2.794-8.454-3.491-2.989-6.993-11.688-10.327-18.108-6.95-4.672-4.75-12.375-3.833-18.007-.507a15.99 15.99 0 0 1-4.256 2.117 23.79 23.79 0 0 1-3.444.26c-6.318.575-11.432 6.672-12.55 13.389a13.403 13.403 0 0 1-.719 3.176c-.567 1.292-1.643 2.234-2.49 3.325a11.136 11.136 0 0 0-1.954 4.097c-.371 1.5-.437 3.07-.194 4.601.422 2.588 1.745 5.131 1.206 7.7-.263 1.283-.979 2.449-1.12 3.755-.411 3.792 3.956 6.554 4.034 10.356.049.759-.155 1.534-.198 2.3a7.01 7.01 0 0 0 1.3 4.471c.706.967 1.69 1.776 2 2.956a12 12 0 0 1 .054 2.79c.035 2.282 6.128 9.659 8.128 10.429l52.413-11.97c1.878-.951 3.437-2.509 4.459-4.459a11.493 11.493 0 0 0 1.24-6.418 4.268 4.268 0 0 1 .064-2.19 4.51 4.51 0 0 1 1.227-1.342c2.963-2.752 2.351-7.838 1.151-11.86a5.594 5.594 0 0 1-.323-1.727 6.786 6.786 0 0 1 .821-2.354Z"/><path fill="#FFBF9D" d="M433.386 177.958c-1.893-10.023-10.054-20.106-20.25-22.795-6.466-1.69-10.961-.635-14.089-.293-4.368.581-8.469 2.579-11.761 5.73-2.733 1.424-11.16 14.373-9.385 25.837 1.969 12.72 4.843 28.168 8.238 37.179 6.825 18.111 20.712 17.156 20.712 17.156l5.163 31.593 31.956-32.496-10.584-61.911Z"/><path fill="#211F54" d="M413.219 199.498c.074.715.404 1.371.918 1.828.515.457 1.175.68 1.84.622a2.32 2.32 0 0 0 .943-.249c.296-.15.56-.363.779-.625.218-.262.387-.568.494-.901.107-.333.151-.685.13-1.037a2.825 2.825 0 0 0-.917-1.831 2.436 2.436 0 0 0-1.84-.619 2.297 2.297 0 0 0-.943.249c-.296.15-.562.362-.78.624a2.706 2.706 0 0 0-.494.902 2.839 2.839 0 0 0-.13 1.037ZM387.27 201.454a2.83 2.83 0 0 0 .92 1.83 2.44 2.44 0 0 0 1.845.619c.326-.016.646-.101.941-.251.295-.15.56-.362.778-.624.219-.262.386-.568.494-.9a2.86 2.86 0 0 0 .133-1.036 2.823 2.823 0 0 0-.917-1.831 2.446 2.446 0 0 0-1.842-.62 2.312 2.312 0 0 0-.945.248c-.296.15-.562.362-.781.624-.22.262-.388.569-.495.902a2.805 2.805 0 0 0-.131 1.039ZM381.783 192.974c.352.315 2.108-1.469 4.826-1.818 2.717-.351 4.901.871 5.158.471.129-.178-.26-.742-1.212-1.355a6.606 6.606 0 0 0-4.185-.819c-1.42.182-2.752.845-3.803 1.893-.725.809-.956 1.488-.784 1.628ZM409.662 191.184c.386.275 1.962-1.671 4.644-2.346 2.683-.674 4.965.319 5.185-.109.107-.191-.338-.736-1.344-1.216a6.565 6.565 0 0 0-4.26-.341c-1.4.331-2.665 1.14-3.608 2.305-.655.88-.801 1.583-.617 1.707ZM401.467 213.45c-.011-.166-1.74-.264-4.539-.289-.705.015-1.415-.046-1.56-.545-.146-.499-.027-1.376.218-2.301.455-1.907.928-3.877 1.425-6.002 1.955-8.523 3.281-15.522 2.965-15.605-.317-.083-2.167 6.773-4.121 15.312-.471 2.099-.914 4.105-1.34 6.026-.168.888-.511 1.919-.031 3.002.132.251.316.467.537.632.221.164.474.272.74.315.398.068.801.075 1.201.024 2.793-.181 4.516-.402 4.505-.569Z"/><path fill="#FF9A6C" d="M403.452 220.414a5.123 5.123 0 0 1 1.788-1.862 4.657 4.657 0 0 1 2.405-.685c.61-.02 1.218.093 1.787.333a4.513 4.513 0 0 1 1.524 1.062c.42.444.703 1.017.812 1.641a3.316 3.316 0 0 1-.205 1.846c-.628 1.213-2.122 1.683-3.438 1.44a10.05 10.05 0 0 1-3.747-1.796 3.211 3.211 0 0 1-.883-.771 1.057 1.057 0 0 1-.114-1.096"/><path fill="#211F54" d="M409.745 214.449c-.442.033-.093 3.228-2.383 5.83-2.289 2.601-5.477 2.659-5.448 3.114.013.204.776.527 2.144.394 1.744-.2 3.366-1.056 4.583-2.417 1.166-1.309 1.813-3.057 1.803-4.873-.074-1.349-.496-2.093-.699-2.048ZM406.286 179.84c.429.73 3.032-.304 6.271-.662 3.24-.359 5.987-.048 6.259-.853.116-.39-.483-1.022-1.674-1.534a10.238 10.238 0 0 0-4.896-.606 10.478 10.478 0 0 0-4.648 1.767c-1.052.78-1.503 1.546-1.312 1.888ZM381.349 180.198c.556.606 2.366-.33 4.626-.661 2.26-.33 4.232-.091 4.599-.849.153-.369-.22-.996-1.13-1.521a6.018 6.018 0 0 0-3.889-.614 6.348 6.348 0 0 0-3.546 1.829c-.717.823-.903 1.546-.66 1.816Z"/><path fill="#894943" d="M406.863 240.756c8.268-1.929 15.876-6.293 21.981-12.607 0 0-3.361 14.821-21.208 17.438l-.773-4.831Z"/><path fill="#FFBF9D" d="M434.42 196.506c-.304-1.4.489-5.078 1.754-5.615 3.304-1.436 9.544-2.691 11.62 6.679 2.844 12.807-9.664 13.24-9.758 12.881-.094-.358-2.591-9.125-3.616-13.945Z"/><path fill="#894943" d="M440.232 204.91c.046-.057.24.096.634.18a1.989 1.989 0 0 0 1.552-.361c1.145-.847 1.725-3.244 1.27-5.562a7.838 7.838 0 0 0-1.292-3.048c-.2-.372-.48-.684-.818-.913a2.339 2.339 0 0 0-1.117-.396c-.253-.006-.5.082-.699.252a1.182 1.182 0 0 0-.386.675c-.08.395.042.636-.006.671-.046.033-.298-.145-.323-.737a1.527 1.527 0 0 1 .286-.928 1.584 1.584 0 0 1 1.069-.621 2.816 2.816 0 0 1 1.476.346c.456.25.845.621 1.13 1.079a8.046 8.046 0 0 1 1.505 3.39c.502 2.596-.189 5.345-1.787 6.31a2.157 2.157 0 0 1-1.967.148c-.437-.195-.56-.453-.527-.485Z"/><path fill="#211F54" d="M375.298 187.258c2.052-2.226 3.114-4.803 2.32-7.79 1.702.116 2.847-2.498 3.456-4.22.608-1.721 1.587-2.754 1.119-4.524a2.158 2.158 0 0 1-.071-1.076c.135-.55.651-.856 1.12-1.143a8.551 8.551 0 0 0 2.844-3.097 9.37 9.37 0 0 0 1.126-4.185c2.814.559 5.713.359 8.438-.583a6.471 6.471 0 0 0 2.922 1.66 6.152 6.152 0 0 0 3.302-.068 6.513 6.513 0 0 0 2.861-1.78 7.266 7.266 0 0 0 1.709-3.047 5.969 5.969 0 0 0 2.053 1.58 5.574 5.574 0 0 0 2.476.523 16.332 16.332 0 0 0 4.996-.94c.075 1.812.75 3.535 1.902 4.858 1.152 1.322 2.705 2.156 4.378 2.352.227-.023.455.003.672.078.217.073.419.193.592.352.211.457.245.986.095 1.47a6.39 6.39 0 0 0 .243 2.352 6.109 6.109 0 0 0 1.075 2.064 5.617 5.617 0 0 0 1.738 1.447 5.203 5.203 0 0 0 2.123.599 4.622 4.622 0 0 0-.701 1.831 4.765 4.765 0 0 0 .108 1.978c.174.642.48 1.233.897 1.729.416.496.931.884 1.507 1.135.498.175 1.132.371 1.183.931.001.214-.049.424-.144.612-.609 1.492-1.211 3.099-.966 4.71.246 1.611 1.616 3.138 3.092 2.812-.342.439-.6.947-.756 1.496a4.57 4.57 0 0 0-.153 1.695c.221 1.118 1.542 1.994 2.39 1.343.377-.272 6.026-3.013 6.21-3.452 2.302-5.772-3.095-10.155-4.743-16.183-1.763-6.028-4.799-11.534-8.869-16.084a28.527 28.527 0 0 0-5.551-5.126 35.842 35.842 0 0 0-7.662-3.556c-3.436-1.265-6.964-2.521-10.594-2.522-6.768-.031-12.903 4.156-18.248 8.633a29.7 29.7 0 0 0-5.581 5.751 29.118 29.118 0 0 0-3.793 9.028c-1.248 4.61-2.065 9.446-1.488 14.208"/><path fill="#4A4566" d="M372.002 183.356a5.414 5.414 0 0 1 .344-1.549c.16-.491.411-1.074.591-1.796a6.47 6.47 0 0 0 .15-2.562 20.295 20.295 0 0 0-.726-3.159 15.581 15.581 0 0 1-.722-3.836 11.801 11.801 0 0 1 .7-4.433c.279-.767.639-1.497 1.074-2.174.47-.703.992-1.364 1.56-1.976a8.259 8.259 0 0 0 1.451-2.135c.311-.864.515-1.768.61-2.688.632-4.161 2.628-7.94 5.623-10.651a14.353 14.353 0 0 1 2.619-1.872c.966-.524 1.99-.914 3.046-1.159a12.872 12.872 0 0 1 1.629-.26l1.644-.124a7.34 7.34 0 0 0 3.185-.781c1.02-.496 1.972-1.169 3.008-1.75a20.506 20.506 0 0 1 3.237-1.478 19.803 19.803 0 0 1 3.474-.901 17.188 17.188 0 0 1 3.64-.175c2.512.121 4.925 1.093 6.896 2.777l.578.519-.207-.029a13.213 13.213 0 0 1 10.504-.402c3.42 1.324 6.237 4.014 7.869 7.514l-.121-.104c1.584.338 3.147.785 4.678 1.338a12.58 12.58 0 0 1 4.106 2.438 9.104 9.104 0 0 1 2.495 4.047 6.675 6.675 0 0 1-.211 4.584l-.057-.208c1.977 1.388 3.442 3.479 4.141 5.908.674 2.162.717 4.496.123 6.685-.141.5-.315.99-.52 1.463-.203.465-.422.9-.576 1.353-.155.432-.207.9-.152 1.359.068.451.174.895.318 1.325a23.3 23.3 0 0 1 .912 4.903 11.13 11.13 0 0 1-.383 3.997 6.617 6.617 0 0 1-1.403 2.542c-.52.588-1.03.893-1.279 1.2a3.417 3.417 0 0 0-.356.499c.071-.197.18-.376.319-.526.247-.331.749-.658 1.248-1.244a6.665 6.665 0 0 0 1.348-2.515c.342-1.278.454-2.615.33-3.94a22.545 22.545 0 0 0-.943-4.847 9.324 9.324 0 0 1-.335-1.361 3.346 3.346 0 0 1 .159-1.474c.171-.472.366-.934.581-1.385.197-.462.363-.94.493-1.43a11.68 11.68 0 0 0-.147-6.507c-.69-2.357-2.119-4.382-4.043-5.726l-.118-.075.062-.134a6.314 6.314 0 0 0 .182-4.378 8.75 8.75 0 0 0-2.405-3.876 12.45 12.45 0 0 0-4.003-2.364 37.743 37.743 0 0 0-4.641-1.318l-.085.006-.005-.091c-1.609-3.386-4.357-5.981-7.683-7.253a12.904 12.904 0 0 0-10.206.408l-.109.054-.098-.083-.555-.507c-1.916-1.628-4.256-2.567-6.693-2.686a16.928 16.928 0 0 0-3.563.162 19.918 19.918 0 0 0-3.425.882 20.851 20.851 0 0 0-3.183 1.451c-1.017.557-1.982 1.239-3.03 1.751a7.492 7.492 0 0 1-1.62.602 9.246 9.246 0 0 1-1.689.212c-.554.041-1.098.037-1.64.078-.533.051-1.063.137-1.586.257-1.027.24-2.023.614-2.965 1.114a14.396 14.396 0 0 0-2.559 1.823c-2.945 2.651-4.914 6.352-5.553 10.432a11.527 11.527 0 0 1-.639 2.766 8.656 8.656 0 0 1-1.51 2.201 15.241 15.241 0 0 0-1.541 1.936 10.443 10.443 0 0 0-1.063 2.121 11.55 11.55 0 0 0-.716 4.325 15.43 15.43 0 0 0 .681 3.756c.322 1.043.559 2.113.71 3.198a6.525 6.525 0 0 1-.198 2.62c-.214.724-.473 1.307-.64 1.784a8.34 8.34 0 0 0-.338 1.115c-.023.283-.071.416-.078.417Z"/><path fill="#4A4566" d="M409.332 139.969s-.353-.118-1.001-.283a7.641 7.641 0 0 0-2.765-.171 7.377 7.377 0 0 0-3.753 1.577c-1.346 1.093-2.336 2.618-2.826 4.355a8.053 8.053 0 0 0-.277 1.597c-.034.238-.019.482.045.712.064.231.175.444.324.624l.383.359-.51-.03c-1.33-.062-2.629.44-3.617 1.4a5.328 5.328 0 0 0-1.516 2.87 6.327 6.327 0 0 0-.018 2.234c.067.264.123.531.165.802a1.106 1.106 0 0 1-.097-.191 4.893 4.893 0 0 1-.186-.58 6.017 6.017 0 0 1-.091-2.277 5.602 5.602 0 0 1 1.53-3.078c1.034-1.03 2.402-1.576 3.808-1.521l-.127.337a2.055 2.055 0 0 1-.422-.758 2.162 2.162 0 0 1-.08-.88c.042-.572.14-1.138.293-1.689.512-1.82 1.556-3.414 2.975-4.542a7.594 7.594 0 0 1 3.26-1.478 7.322 7.322 0 0 1 3.53.205c.247.079.489.175.726.287.172.056.253.103.247.119ZM431.779 149.921a2.067 2.067 0 0 1-.316.564 8.052 8.052 0 0 1-1.136 1.342 5.829 5.829 0 0 1-2.207 1.355 4.058 4.058 0 0 1-3.165-.234l.255-.103c-.072.196-.158.401-.236.611-.079.212-.2.404-.301.602a7.568 7.568 0 0 1-2.548 2.736 7.157 7.157 0 0 1-2.755 1.083 6.282 6.282 0 0 1-1.969.004 2.161 2.161 0 0 1-.72-.205 9.731 9.731 0 0 0 2.629-.077 7.333 7.333 0 0 0 2.619-1.118 7.57 7.57 0 0 0 2.407-2.619c.1-.197.201-.38.288-.577.086-.197.152-.384.224-.573l.078-.204.176.094a3.826 3.826 0 0 0 2.896.223 5.735 5.735 0 0 0 2.146-1.22c1.104-.944 1.583-1.726 1.635-1.684ZM440.6 160.251l.017.25a2.421 2.421 0 0 1-.134.68 3.42 3.42 0 0 1-1.624 1.851 5.81 5.81 0 0 1-3.502.447c-.655-.087-1.331-.166-2.048-.333a3.288 3.288 0 0 1-1.986-1.213l-.119-.19.299.024a14.398 14.398 0 0 1-3.044 3.161 5.948 5.948 0 0 1-3.263 1.198 4.193 4.193 0 0 1-2.271-.499 2.427 2.427 0 0 1-.533-.371c-.112-.098-.166-.155-.159-.164.007-.007.258.171.732.395.696.31 1.45.436 2.199.368a6.012 6.012 0 0 0 3.092-1.224 15.01 15.01 0 0 0 2.941-3.108l.156-.21.15.233.094.153a2.988 2.988 0 0 0 1.779 1.069c.66.152 1.328.267 1.999.344a5.682 5.682 0 0 0 3.334-.328 3.383 3.383 0 0 0 1.61-1.644c.12-.285.215-.583.281-.889ZM443.59 111.29s-.201.061-.542.247a2.933 2.933 0 0 0-1.133 1.249 4.42 4.42 0 0 0-.371 2.678c.238 1.187.638 2.33 1.188 3.392l.089.19-.196.015c-1.483.32-2.828 1.155-3.83 2.375a5.964 5.964 0 0 0-1.206 2.361 6.263 6.263 0 0 0-.09 2.694c.136.817.446 1.589.904 2.256a5.106 5.106 0 0 0 1.74 1.588l.467.239-.508.123a6.074 6.074 0 0 0-2.327 1.172 6.633 6.633 0 0 0-1.699 2.079 6.966 6.966 0 0 0-.688 4.316 7.527 7.527 0 0 0 1.004 2.733c.362.582.62.853.593.869-.028.018-.074-.055-.196-.183a3.986 3.986 0 0 1-.491-.61 7.17 7.17 0 0 1-1.214-3.568 7.3 7.3 0 0 1 .741-3.715 6.972 6.972 0 0 1 1.785-2.222 6.404 6.404 0 0 1 2.468-1.251l-.04.361a5.448 5.448 0 0 1-1.875-1.696 6.003 6.003 0 0 1-.977-2.422 6.346 6.346 0 0 1 .113-2.932 6.834 6.834 0 0 1 1.254-2.448c1.059-1.273 2.477-2.135 4.036-2.451l-.112.237a12.4 12.4 0 0 1-1.166-3.491 4.614 4.614 0 0 1 .467-2.815c.282-.548.72-.983 1.248-1.244.135-.07.28-.12.428-.147a.42.42 0 0 1 .136.021ZM470.753 133.83s-.052.073-.166.173a6.034 6.034 0 0 1-.529.444 8.402 8.402 0 0 1-2.276 1.176 8.899 8.899 0 0 1-3.841.442 8.82 8.82 0 0 1-4.618-1.837l.263-.088a8.54 8.54 0 0 1-1.701 3.193 7.777 7.777 0 0 1-2.809 2.097 5.504 5.504 0 0 1-3.614.19c-1.193-.345-2.255-1.086-3.036-2.119l.304-.091a5.533 5.533 0 0 1-.966 2.532 6.91 6.91 0 0 1-1.701 1.652 8.59 8.59 0 0 1-3.537 1.31c-.804.12-1.615.181-2.425.182a4.619 4.619 0 0 1-.864-.034c.286-.048.575-.069.864-.065a19.928 19.928 0 0 0 2.397-.28 8.446 8.446 0 0 0 3.445-1.348 5.465 5.465 0 0 0 1.652-1.7c.429-.69.711-1.473.829-2.294l.047-.461.257.369a5.566 5.566 0 0 0 2.86 1.984 5.203 5.203 0 0 0 3.396-.171 7.492 7.492 0 0 0 2.676-1.998 8.247 8.247 0 0 0 1.638-3.033l.076-.243.192.146a8.659 8.659 0 0 0 4.442 1.828 9.068 9.068 0 0 0 3.748-.351 10.64 10.64 0 0 0 2.997-1.605ZM462.276 155.7s.007.099-.088.266a1.272 1.272 0 0 1-.605.487c-.88.313-1.82.384-2.734.207-1.362-.237-2.622-.927-3.603-1.976-1.202-1.302-1.906-3.047-1.969-4.884l-.003-.046.307.152c-1.32 1.137-2.939 1.792-4.625 1.872a8.363 8.363 0 0 1-3.971-.782 9.68 9.68 0 0 1-2.33-1.522 3.844 3.844 0 0 1-.717-.708c.971.8 2.027 1.472 3.146 2.002a8.364 8.364 0 0 0 3.857.676c1.611-.11 3.148-.758 4.4-1.855l.28-.249.03.439c.062 1.737.718 3.388 1.84 4.636a6.308 6.308 0 0 0 3.411 1.958c.872.2 1.774.184 2.638-.046.31-.101.573-.326.736-.627ZM417.673 118.201a12.058 12.058 0 0 0 .307 4.074 8.985 8.985 0 0 0 2.35 4.139 8.012 8.012 0 0 0 4.02 2.181 7.817 7.817 0 0 0 2.88.088l.233-.018.016.242a12.3 12.3 0 0 0 .444 4.246 12.489 12.489 0 0 0 1.373 3.088c.22.361.464.703.731 1.025a.936.936 0 0 0 .73.372.563.563 0 0 0 .25-.084.628.628 0 0 0 .191-.193c.07-.111.065-.195.08-.189.014.007.005.084-.021.222a.7.7 0 0 1-.199.247.64.64 0 0 1-.279.125.967.967 0 0 1-.487-.062 1.049 1.049 0 0 1-.404-.297 7.697 7.697 0 0 1-.773-1.024 12.15 12.15 0 0 1-1.482-3.124 12.393 12.393 0 0 1-.503-4.386l.205.205a7.865 7.865 0 0 1-3.015-.077 8.162 8.162 0 0 1-4.171-2.284 9.19 9.19 0 0 1-2.382-4.342 9.813 9.813 0 0 1-.245-3.028c.025-.276.066-.552.123-.824-.008-.227.014-.321.028-.322Z"/><path fill="#4B3CFB" d="M445.389 211.344a4.51 4.51 0 0 1-.514 2.406 4.095 4.095 0 0 1-1.666 1.693 3.702 3.702 0 0 1-2.259.41 3.826 3.826 0 0 1-2.089-1.012 4.315 4.315 0 0 1-1.215-2.092 4.564 4.564 0 0 1 .066-2.467 4.262 4.262 0 0 1 1.326-2.013 3.784 3.784 0 0 1 2.14-.879 3.695 3.695 0 0 1 1.529.209c.491.179.946.459 1.337.827.392.367.712.813.942 1.314.231.501.368 1.046.403 1.604Z"/><path fill="#fff" d="M475.372 324.664a.573.573 0 0 1-.194.05l-.568.115-2.212.388c-1.919.329-4.695.78-8.132 1.324-6.874 1.074-16.391 3.522-26.928 4.808-10.538 1.285-20.094 1.135-27.018 1.764-3.459.303-6.263.53-8.201.668l-2.233.169-.578.043a.595.595 0 0 1-.197.015.725.725 0 0 1 .197-.015l.578-.043 2.229-.225 8.194-.789c6.913-.677 16.466-.584 26.998-1.87 10.53-1.284 20.049-3.692 26.929-4.694l8.152-1.205 2.218-.316.577-.044.189-.143Z"/><path fill="#000" d="m462.892 268.728 10.817 46.006 5.324.973 2.538 19.704-46.961 75.595h21.388l4.631-13.539 38.577-27.761v-6.525l-14.796-57.304-7.064 3.95-14.454-41.099Z" opacity=".3"/><path fill="#0075FF" d="M388.872 262.491c-8.763 8.484-12.76 17.472-17.047 27.768-7.762 19.223-9.641 26.458-9.641 26.458l33.275 17.195-2.129-12.932-4.458-58.489Z"/><path fill="#FFBF9D" d="m357.906 265.154-9.447 60.587 23.512 14.395 4.209-75.349-18.274.367Z"/><path fill="#FFBF9D" d="M348.459 325.741s-3.962 22.383 12.893 29.877c12.519 5.573 26.578-6.608 30.176-23.935l-18.376-9.206-24.693 3.264Z"/><path fill="#FF9A6C" d="M373.027 317.868c.233 1.219.347 2.459.34 3.703a71.4 71.4 0 0 1-1.641 17.858 18.553 18.553 0 0 1-1.008 3.564c.126-1.234.321-2.458.586-3.666.399-2.249.88-5.358 1.172-8.846.293-3.488.422-6.622.433-8.846a28.702 28.702 0 0 1 .118-3.767Z"/><path fill="#FFBF9D" d="M376.168 265.142c.118-.48 5.24-20.789 5.24-20.789l-2.872-19.918s-.539-5.89-3.516-4.752c-2.977 1.137-2.016 7.582-2.016 7.582l-10.479 12.096-2.696-1.821c-1.794 2.07-2.856 4.754-3.001 7.583 0 4.196 1.031 20.057 1.031 20.057"/><path fill="#FF9A6C" d="M357.905 265.142a2.746 2.746 0 0 1-.07-.518l-.118-1.53c-.093-1.403-.222-3.362-.374-5.801-.153-2.439-.329-5.548-.527-8.998 0-.872-.107-1.77-.153-2.679a9.423 9.423 0 0 1 .234-2.895 13.608 13.608 0 0 1 2.778-5.421l.153-.177.187.127 2.707 1.819h-.351l10.456-12.107-.082.266a16.09 16.09 0 0 1 0-4.373 6.497 6.497 0 0 1 .703-2.174 3.015 3.015 0 0 1 1.746-1.428 1.924 1.924 0 0 1 1.132.016c.368.118.699.345.955.654a5.387 5.387 0 0 1 1.02 1.946c.354 1.352.601 2.735.738 4.133.2 1.339.386 2.666.574 3.955.727 5.195 1.407 10.01 2.016 14.294v.113l-3.914 15.167c-.469 1.752-.86 3.142-1.172 4.17-.118.443-.223.796-.305 1.086-.03.124-.074.243-.129.355a1.192 1.192 0 0 1 .058-.38c0-.29.141-.656.234-1.099.247-1.037.576-2.439.997-4.209.903-3.69 2.169-8.846 3.716-15.165v.113c-.633-4.283-1.336-9.098-2.098-14.293-.188-1.264-.387-2.629-.587-3.969a23.653 23.653 0 0 0-.726-3.993 4.974 4.974 0 0 0-.879-1.718 1.452 1.452 0 0 0-.693-.472 1.355 1.355 0 0 0-.819.004 3.228 3.228 0 0 0-1.421 1.215 3.61 3.61 0 0 0-.572 1.855 14.933 14.933 0 0 0 0 4.159v.163l-.093.115-10.492 12.069-.163.19-.188-.14-2.696-1.819h.328a13.215 13.215 0 0 0-2.684 5.156 19.618 19.618 0 0 0-.118 5.422c.153 3.45.293 6.471.399 8.985.105 2.516.176 4.411.223 5.814v1.542c.039.148.062.301.07.455Z"/><path fill="#FFBF9D" d="M361.646 242.241c.545.23 1.101.428 1.665.595 0 0-.575 5.598.995 5.813 3.892.543 3.787-4.967 3.787-4.967s.633 3.476 2.637 3.451c2.004-.027 3.306-.57 2.931-4.525l-.669-7.179a3.033 3.033 0 0 0-1.02-1.87l-1.828-1.391 4.454 1.1s1.946 3.792 3.974 2.705c.435-.267.766-.692.934-1.201a2.417 2.417 0 0 0-.019-1.567 18.786 18.786 0 0 0-1.958-4.474c-1.172-1.453-7.42-4.297-8.803-3.652-1.383.644-2.204 4.928-2.204 4.928s-3.141.506-3.962 5.055a9.741 9.741 0 0 0-3.516 3.615"/><path fill="#FF9A6C" d="M359.054 238.728s0-.114.141-.316c.16-.3.34-.588.539-.859a9.458 9.458 0 0 1 2.766-2.591l-.081.114a8.032 8.032 0 0 1 1.089-3.021c.69-1.137 1.755-1.95 2.978-2.274l-.176.189c.192-.988.463-1.956.809-2.895.183-.511.419-.999.704-1.453.158-.254.362-.473.597-.644.253-.179.553-.268.855-.253 1.102.085 2.185.349 3.212.784 1.081.415 2.135.909 3.154 1.478.541.294 1.059.637 1.547 1.024.505.426.906.976 1.172 1.605a24.208 24.208 0 0 1 1.454 3.792c.084.385.089.785.011 1.172a2.752 2.752 0 0 1-.457 1.064c-.236.323-.551.57-.909.712a1.922 1.922 0 0 1-1.119.097 3.84 3.84 0 0 1-1.805-1.264 9.017 9.017 0 0 1-1.242-1.806l.198.163-.785-.19-3.669-.909.246-.594 1.829 1.403c.356.369.656.796.891 1.263.11.252.181.521.211.797v.733c.094.961.176 1.909.258 2.843.082.935.176 1.858.258 2.755.104.905.143 1.819.117 2.73.021.485-.067.969-.257 1.408-.19.441-.475.824-.833 1.12a3.983 3.983 0 0 1-2.344.455 2.45 2.45 0 0 1-1.104-.495 2.71 2.71 0 0 1-.772-.983 7.662 7.662 0 0 1-.774-2.174h.469c.063 1.597-.449 3.159-1.43 4.36a2.747 2.747 0 0 1-1.805.821 3.265 3.265 0 0 1-.926 0 1.22 1.22 0 0 1-.357-.355 1.315 1.315 0 0 1-.194-.479 8.395 8.395 0 0 1-.398-3.084c.008-.735.055-1.47.14-2.198l.071.1-1.255-.493a1.685 1.685 0 0 1-.386-.189c.145.01.287.045.422.101l1.254.404h.07v.077a23.16 23.16 0 0 0 0 2.173 8.323 8.323 0 0 0 .446 2.92c.128.214.27.455.481.492.264.033.532.033.797 0a2.386 2.386 0 0 0 1.558-.745c.879-1.123 1.323-2.566 1.243-4.032v-2.136l.445 2.086c.143.698.389 1.368.727 1.984.14.323.349.606.609.826.261.219.567.369.892.437a3.585 3.585 0 0 0 2.062-.404c.276-.246.494-.558.637-.912.142-.353.205-.738.183-1.123a18.332 18.332 0 0 0-.14-2.629c-.081-.897-.176-1.819-.258-2.754l-.269-2.844-.071-.72a1.924 1.924 0 0 0-.152-.595 4.626 4.626 0 0 0-.797-1.074l-1.829-1.39-1.254-.96 1.5.367 3.669.909.774.189h.129l.07.127c.553 1.216 1.493 2.176 2.65 2.705.263.058.537.036.79-.064.253-.101.474-.276.639-.505a2.11 2.11 0 0 0 .343-.807 2.185 2.185 0 0 0-.014-.886 23.217 23.217 0 0 0-1.384-3.641 3.64 3.64 0 0 0-1.031-1.414 11.56 11.56 0 0 0-1.465-.973 25.253 25.253 0 0 0-3.083-1.467 9.854 9.854 0 0 0-3.012-.784 1.119 1.119 0 0 0-.62.166 1.216 1.216 0 0 0-.447.492c-.275.414-.5.864-.668 1.339-.344.906-.619 1.84-.821 2.793v.152h-.14c-1.12.288-2.099 1.018-2.743 2.047a7.913 7.913 0 0 0-1.114 2.856v.077a9.827 9.827 0 0 0-2.778 2.4c-.68.885-.903 1.302-.938 1.277Z"/><path fill="#FF9A6C" d="M362.267 235.417c0-.088.609-.19 1.559 0 1.25.348 2.358 1.131 3.153 2.228a6.64 6.64 0 0 1 1.243 3.838c0 1.062-.235 1.668-.306 1.643a13.051 13.051 0 0 1-.128-1.617 7.472 7.472 0 0 0-1.29-3.451 6.464 6.464 0 0 0-2.802-2.186c-.484-.12-.962-.272-1.429-.455Z"/><path fill="#4A4566" d="M515.397 701.203a76.525 76.525 0 0 1-23.82-4.231c-16.613-5.486-28.856-17.87-36.391-36.783-6.358-15.966-8.176-33.849-8.986-45.893-1.819-26.797 13.564-109.22 16.665-124.339 2.38-11.58 3.845-41.367-6.816-59.448-1.814-3.32-4.248-6.196-7.149-8.447-2.901-2.251-6.203-3.827-9.699-4.627-27.117-6.121-53.998 30.45-56.249 33.552L323.774 566.78l-6.998-4.401 59.439-116.314.158-.225c1.308-1.819 31.25-44.54 64.411-37.08 9.157 2.074 16.612 7.772 22.015 16.925 11.616 19.746 11.014 51.056 7.848 66.189-4.761 23.216-18.077 98.276-16.494 121.745 1.831 27.107 7.94 64.37 39.661 74.849 33.134 10.93 46.294-2.821 56.039-16.643 10.883-15.415 17.607-23.187 26.397-25.697 13.435-3.822 22.029 1.919 27.405 7.123l-5.428 8.039c-.25-.437-9.027-9.69-19.936-6.587-6.541 1.847-12.519 9.041-22.055 22.566-8.633 12.284-20.262 23.934-40.839 23.934Z"/><path fill="#DCDDEB" d="m267.713 675.404-7.613-4.74 57.976-110.009 7.599 4.739-57.962 110.01Z"/><path fill="#0075FF" d="M213.318 681.598s-4.041.367-5.389 1.65c-1.347 1.284-12.806 26.078-12.806 26.078v7.898h31.891l7.575-22.228.588-9.308a4.112 4.112 0 0 0-.191-1.536 3.893 3.893 0 0 0-.742-1.327 3.56 3.56 0 0 0-1.168-.9 3.313 3.313 0 0 0-1.404-.327h-18.354Z"/><path fill="#4A4566" d="m265.512 653.799-9.078 19.547-12.414 7.052 6.763 11.876 10.241-6.235c2.919-1.798 5.309-4.448 6.895-7.644l8.803-17.741-11.21-6.855Z"/><path fill="#1D53BB" d="M209.656 690.877h22.107v13.329h13.565s3.728-.846 4.631-3.653c.614-2.706.93-5.48.942-8.265l-6.881-11.89-7.627 4.231h-18.666a7.696 7.696 0 0 0-4.002 1.128 8.46 8.46 0 0 0-2.97 3.104l-1.099 2.016Z"/><path fill="#263238" d="M209.656 690.878v-.114c.057-.132.122-.259.197-.38l.784-1.496a8.801 8.801 0 0 1 1.609-2.129 7.939 7.939 0 0 1 2.996-1.848 6.982 6.982 0 0 1 2.001-.409H236.355l7.678-4.231.118-.07v.127l6.762 11.861a46.35 46.35 0 0 1-.431 5.91c-.098.754-.252 1.5-.458 2.228a4.73 4.73 0 0 1-1.138 1.946 8.047 8.047 0 0 1-3.558 2.102h-13.709v-13.484l.118.142-16.168-.085h-4.409 4.461l16.063-.085h.118v13.455l-.144-.155h13.474a7.721 7.721 0 0 0 3.505-1.918c.912-1.094 1.443-2.494 1.505-3.964a48.97 48.97 0 0 0 .432-5.88v.099l-6.764-11.876h.183l-7.665 4.16h-19.046a7.999 7.999 0 0 0-1.962.381 7.73 7.73 0 0 0-2.93 1.792 8.603 8.603 0 0 0-1.609 2.073l-.824 1.41-.222.381-.079.057Z"/><path fill="#0075FF" d="M736.074 628.523c-5.416-8.956-11.681-13.934-29.249-16.121h-4.591c-33.893 1.214-63.94 8.462-92.339 28.462-7.3 5.12-14.717 12.228-15.161 21.593-.484 9.872 6.986 18.053 14.821 23.13 15.553 10.085 34.01 13.117 52.049 15.741 12.937 1.874 26.161 3.652 39.02 1.41 12.859-2.243 25.718-8.957 32.782-20.804 4.971-8.321 6.71-18.447 6.997-28.348.262-8.603.027-17.87-4.329-25.063Z"/><path fill="#211F54" d="M712.855 643.953a1.124 1.124 0 0 1-.287-.212l-.786-.649a19.346 19.346 0 0 0-3.335-2.03c-3.035-1.482-7.849-2.356-13.827-2.285-11.93.155-28.568.719-46.28 5.515a146.188 146.188 0 0 0-24.383 8.603 63.898 63.898 0 0 0-9.877 5.641 25.327 25.327 0 0 0-3.924 3.399 17.559 17.559 0 0 0-2.616 4.048 19.935 19.935 0 0 0-1.308 4.231 19.812 19.812 0 0 0-.275 4.034c.11 2.174.552 4.314 1.309 6.333a36.87 36.87 0 0 0 2.407 4.922s-.079-.085-.223-.283c-.144-.197-.34-.522-.589-.874a14.816 14.816 0 0 1-.85-1.495 17.81 17.81 0 0 1-.995-2.158 20.868 20.868 0 0 1-1.386-6.431 19.71 19.71 0 0 1 .235-4.133c.549-3.241 1.952-6.242 4.043-8.645a26.276 26.276 0 0 1 3.924-3.512 63.308 63.308 0 0 1 9.942-5.741 142.688 142.688 0 0 1 24.448-8.645c17.803-4.824 34.507-5.303 46.451-5.331 5.99 0 10.883.959 13.931 2.552a16.92 16.92 0 0 1 3.31 2.158l.758.719c.117.17.196.255.183.269ZM596.068 662.063c-.367.67-.95 1.17-1.638 1.407a2.743 2.743 0 0 1-2.09-.124c-.655-.31-1.309-.592-1.962-.916a5.33 5.33 0 0 1-1.961-1.371 5.854 5.854 0 0 1-1.231-2.141 7.182 7.182 0 0 1 .772-4.231 91.917 91.917 0 0 1 3.793-8.124 8.216 8.216 0 0 1 2.341-3.117 5.18 5.18 0 0 1 2.197-.759 5.077 5.077 0 0 1 2.291.294 16.252 16.252 0 0 1 4.12 2.298s1.034.325.536 2.666c-.366 1.735-4.722 9.887-7.168 14.118Z"/><path fill="#211F54" d="M647.842 643.798a81.48 81.48 0 0 1-3.466-10.043 85.23 85.23 0 0 1-2.813-10.267 163.606 163.606 0 0 1 6.279 20.31Z"/><path fill="#000" d="M739.581 695.148c11.918-12.85 11.918-33.684 0-46.533-11.918-12.85-31.24-12.85-43.158 0-11.918 12.849-11.918 33.683 0 46.533 11.918 12.85 31.24 12.85 43.158 0Z" opacity=".3"/><path fill="#143C8B" d="M744.123 698.298c11.918-12.849 11.918-33.683 0-46.533-11.918-12.849-31.241-12.849-43.159 0-11.918 12.85-11.918 33.684 0 46.533 11.918 12.851 31.241 12.851 43.159 0Z"/><path fill="#0075FF" d="M722.666 702.526c-5.049 0-9.983-1.614-14.18-4.638-4.198-3.024-7.469-7.323-9.4-12.351a29.53 29.53 0 0 1-1.45-15.9c.986-5.339 3.417-10.242 6.988-14.089 3.571-3.848 8.119-6.468 13.071-7.528 4.951-1.06 10.083-.512 14.746 1.572 4.663 2.085 8.648 5.614 11.451 10.141 2.802 4.526 4.297 9.848 4.295 15.291-.011 7.293-2.703 14.284-7.488 19.44-4.784 5.155-11.269 8.055-18.033 8.062Zm0-53.595c-4.789 0-9.471 1.532-13.452 4.4-3.982 2.869-7.086 6.946-8.918 11.717a27.995 27.995 0 0 0-1.378 15.083c.935 5.064 3.241 9.716 6.626 13.367 3.386 3.651 7.701 6.137 12.398 7.145 4.697 1.006 9.565.489 13.989-1.486 4.425-1.976 8.207-5.321 10.867-9.615 2.661-4.293 4.08-9.341 4.08-14.504-.003-6.924-2.555-13.564-7.095-18.46-4.54-4.898-10.696-7.653-17.117-7.66v.013ZM452.255 235.378s18.236-3.977 30.283 5.148c6.959 5.275 30.269 49.067 30.269 49.067l-34.494 19.266-26.058-73.481Z"/><path fill="#FFBF9D" d="m480.485 307.646 5.834 23.976-37.124 42.509 8.333 20.662s50.61-34.329 57.425-45.216c6.815-10.888 2.472-27.235.798-33.215-1.674-5.98-7.272-24.315-7.272-24.315l-27.994 15.599Z"/><path fill="#FFBF9D" d="M404.915 422.213s14.089-17.954 15.437-19.576c1.346-1.622 18.575-17.997 18.575-17.997l11.026-11.284 12.349 15.741-5.703 6.797s-1.309 5.643-2.957 8.055c-1.648 2.411-14.389 3.201-14.389 3.201l-1.871 6.529 1.649 2.722 3.558-.422s0 3.878-2.198 4.598a9.83 9.83 0 0 1-5.036-.127 3.62 3.62 0 0 1-1.66 1.672 3.256 3.256 0 0 1-2.264.217 4.277 4.277 0 0 1-1.19-.62c-1.693-1.196-2.979-2.953-3.663-5.007l-.863-2.511-.942 5.248 3.492 3.511c.253.25.429.577.505.938.076.36.047.738-.08 1.081a1.802 1.802 0 0 1-.636.84 1.61 1.61 0 0 1-.967.301h-.496a17.74 17.74 0 0 1-5.756-3.09c-1.478-1.058-2.014-3.498-2.054-5.415l.524-2.242s-9.366 7.813-11.773 8.829c-1.87.775-2.617-1.989-2.617-1.989Z"/><path fill="#FF9A6C" d="M504.763 334.444a63.34 63.34 0 0 0-9.222-2.624 61.792 61.792 0 0 0-9.536-.437 8.317 8.317 0 0 1 2.786-.55 27.943 27.943 0 0 1 6.854.253 27.96 27.96 0 0 1 6.607 1.948 9.26 9.26 0 0 1 2.511 1.41ZM424.838 401.931c.065.113-.641.663-1.544 1.791a15.907 15.907 0 0 0-2.617 5.049 38.616 38.616 0 0 0-1.307 5.642 10.52 10.52 0 0 1-.524 2.412 8.267 8.267 0 0 1 0-2.483c.18-2 .58-3.969 1.19-5.867a13.686 13.686 0 0 1 2.905-5.147 4.874 4.874 0 0 1 1.897-1.397ZM431.209 401.31c0 .112-.641.578-1.557 1.551a13.476 13.476 0 0 0-2.746 4.486c-1.478 3.977-1.309 7.587-1.518 7.559a5.824 5.824 0 0 1-.183-2.313 17.128 17.128 0 0 1 1.059-5.528 11.682 11.682 0 0 1 3.061-4.584 4.316 4.316 0 0 1 1.884-1.171ZM435.578 401.31c-.457.94-.986 1.836-1.583 2.679a14.459 14.459 0 0 0-2.446 6.855c.083 2.493.823 4.91 2.132 6.968a20.29 20.29 0 0 1 1.478 2.722 10.407 10.407 0 0 1-1.883-2.44 17.773 17.773 0 0 1-1.596-3.033 10.525 10.525 0 0 1-.812-4.231c.217-2.623 1.171-5.113 2.735-7.136a10.282 10.282 0 0 1 1.975-2.384Z"/><path fill="#263238" d="M512.807 289.594c-.203.17-.422.317-.654.438l-1.948 1.17-7.273 4.231-24.462 13.794-.34.197-.131-.395c-.406-1.185-.824-2.454-1.308-3.724-4.03-11.847-7.679-22.565-10.347-30.436-1.309-3.807-2.433-6.924-3.219-9.181l-.875-2.497a3.784 3.784 0 0 1-.276-.888c.161.26.292.539.393.832.249.55.589 1.41 1.007 2.44.851 2.129 2.015 5.247 3.415 9.111 2.799 7.729 6.54 18.477 10.543 30.365.432 1.284.85 2.539 1.307 3.724l-.483-.197 24.553-13.582 7.378-3.991 2.001-1.045c.221-.159.464-.283.719-.366ZM401.516 263.382a4.411 4.411 0 0 1-.083.725l-.331 2.032c-.295 1.766-.772 4.314-1.371 7.457-1.186 6.298-3.071 14.935-4.478 24.605a137.75 137.75 0 0 0-1.297 13.705c-.037 1.064-.074 2.096-.111 3.094v2.915c0 1.885.12 3.64.175 5.237.211 3.193.432 5.781.68 7.556.093.853.175 1.528.231 2.053.038.239.053.481.045.723a5.297 5.297 0 0 1-.138-.714c-.082-.514-.192-1.189-.322-1.982-.303-1.765-.579-4.354-.837-7.557-.072-1.607-.239-3.362-.229-5.256V315c0-1.051.055-2.043.083-3.105.18-4.608.594-9.204 1.241-13.764 1.417-9.698 3.357-18.326 4.599-24.593.635-3.095 1.149-5.613 1.517-7.428.175-.833.313-1.508.415-1.984.043-.256.114-.506.211-.744Z"/><path fill="#000" d="M398.772 276.763c-9.686 16.543-11.613 33.44-11.092 52.996l7.239 3.727c-1.237-17.492.573-40.508 3.853-56.723Z" opacity=".3"/><path fill="#F7F9FC" d="M284.351 8.734H118.926v320.411h165.425V8.735Z"/><path fill="#fff" d="M276.04 18.034h-150.5V319.61h150.5V18.034Z"/><path fill="#DCDDEB" d="m291.351 332.038-7-2.894V3.307h7v328.731Z"/><path fill="#fff" d="m162.436 212.829 39.08-39.169c4.955-4.966 11.43-10.307 17.801-7.867 3.059 1.177 5.366 3.995 8.371 5.352 5.996 2.695 12.855-1.197 17.479-6.134 4.622-4.937 8.249-11.118 13.842-14.699 5.593-3.58 14.271-3.119 17.041 3.222v42.636l-56.803 26.212-56.811-9.553Z"/><path fill="#DCDDEB" d="M125.54 188.33c14.402-6.332 28.777-.942 39.08 11.599 2.176 2.648 4.151 5.653 7.131 7.151 4.037 1.979 8.738.499 13.108 0 6.051-.645 12.149.529 17.62 3.388 5.47 2.861 10.1 7.297 13.377 12.818l-48.064 25.497-42.235-.33-.017-60.123Z"/><path fill="#EFF0F7" d="M276.04 188.537c-9.49-4.936-17.835 1.037-26.592 7.359-8.756 6.323-16.883 14.435-27.151 16.961-6.86 1.705-14.21.753-20.843 3.307-13.501 5.182-21.314 23.678-35.637 24.563-7.768.481-14.742-4.608-21.681-8.414-6.938-3.806-12.409-7.434-18.596-2.336v89.605h150.5V188.537Z"/><path fill="#DCDDEB" d="M279.309 104.784H125.54v3.214h153.769v-3.214ZM279.309 176.599H125.54v3.214h153.769v-3.214ZM279.309 248.416H125.54v3.213h153.769v-3.213Z"/><path fill="#DCDDEB" d="M196.98 106.386v221.76h7.603v-221.76h-7.603ZM157.961 18.034h-3.443v88.361h3.443v-88.36ZM187.674 18.034h-3.444v88.361h3.444v-88.36ZM217.377 18.034h-3.444v88.361h3.444v-88.36ZM247.088 18.034h-3.442v88.361h3.442v-88.36ZM118.933 3.307h-6.999v327.826h6.999V3.307Z"/><path fill="#DCDDEB" d="M291.351 0H111.934v8.744h179.417V0ZM296.087 333.112H106.97v8.141h189.117v-8.141ZM284.351 329.145l11.736 3.966H106.97l11.955-3.966h165.426ZM202.048 666.584c.626 5.554 7.519 7.977 11.779 5.457 2.103-1.35 3.71-3.437 4.553-5.913.841-2.477.868-5.189.073-7.684 3.755 3.001 9.756.23 11.315-4.529 1.558-4.757-.617-10.235-4.231-13.443-2.915-2.586-7.449-3.863-10.383-1.299 1.467-5.455-2.541-11.665-7.742-12.701-5.203-1.037-10.689 2.63-12.743 7.89-2.054 5.259-.951 11.599 2.206 16.182-3.086-1.408-6.953 1.004-7.884 4.473-.931 3.471.719 7.367 3.442 9.484 2.836 2.002 6.275 2.764 9.615 2.127"/><defs><filter id="a" width="501.019" height="260.854" x="117.4" y="383.737" color-interpolation-filters="sRGB" filterUnits="userSpaceOnUse"><feFlood flood-opacity="0" result="BackgroundImageFix"/><feBlend in="SourceGraphic" in2="BackgroundImageFix" result="shape"/><feColorMatrix in="SourceAlpha" result="hardAlpha" values="0 0 0 0 0 0 0 0 0 0 0 0 0 0 0 0 0 0 127 0"/><feOffset dx="10.395" dy="-8.316"/><feGaussianBlur stdDeviation="2"/><feComposite in2="hardAlpha" k2="-1" k3="1" operator="arithmetic"/><feColorMatrix values="0 0 0 0 0.127552 0 0 0 0 0.123438 0 0 0 0 0.329167 0 0 0 0.06 0"/><feBlend in2="shape" result="effect1_innerShadow_1_50"/></filter></defs></svg>