<svg xmlns="http://www.w3.org/2000/svg" width="640" height="680" fill="none"><g clip-path="url(#a)"><path fill="#E4E6F1" d="M609.482 181.883H38.822v466.366h570.66V181.883Z"/><path fill="#fff" d="M595.433 195.269H52.208v440.604h543.225V195.269Z"/><g opacity=".4"><path fill="#EFF0F7" d="M486.371 442.309H358.905v56.71h127.466v-56.71Z" opacity=".4"/><path fill="#DCDDEB" d="M486.366 499.023h8.468v-56.711h-8.468v56.711ZM451.128 499.023h.608v-56.711h-.608v56.711ZM426.275 499.023h.607v-56.711h-.607v56.711ZM392.286 499.023h.608v-56.711h-.608v56.711ZM387.066 472.489c.895 0 1.621-.816 1.621-1.823 0-1.007-.726-1.823-1.621-1.823-.896 0-1.622.816-1.622 1.823 0 1.007.726 1.823 1.622 1.823ZM398.113 472.489c.895 0 1.621-.816 1.621-1.823 0-1.007-.726-1.823-1.621-1.823s-1.621.816-1.621 1.823c0 1.007.726 1.823 1.621 1.823ZM445.907 472.489c.896 0 1.622-.816 1.622-1.823 0-1.007-.726-1.823-1.622-1.823-.895 0-1.621.816-1.621 1.823 0 1.007.726 1.823 1.621 1.823ZM482.624 491.376h-27.142c-.743 0-1.345.6-1.345 1.34v.961c0 .74.602 1.34 1.345 1.34h27.142c.743 0 1.345-.6 1.345-1.34v-.961c0-.74-.602-1.34-1.345-1.34Z" opacity=".4"/></g><path fill="#DCDDEB" d="M215.15 401.295h-5.61v.161h5.61v-.161ZM63.075 394.654H35.194v.161h27.881v-.161ZM72.914 394.654h-4.086v.161h4.086v-.161ZM146.676 397.37H86.2v.161h60.476v-.161Z"/><g opacity=".22"><path fill="#DCDDEB" d="M221.859 387.893h64.046l5.681-140.085H227.54l-5.681 140.085Z" opacity=".22"/><path fill="#A0A3BD" d="M219.896 387.893h64.047l5.687-140.085h-64.046l-5.688 140.085Z" opacity=".22"/><path fill="#EFF0F7" d="m280.108 383.91 5.358-132.119h-56.048L224.06 383.91h56.048Z" opacity=".22"/></g><g opacity=".22"><path fill="#A0A3BD" d="M186.248 215.821H71.746v80.346h114.502v-80.346Z" opacity=".22"/><path fill="#DCDDEB" d="M188.772 215.821H72.749v80.346h116.023v-80.346Z" opacity=".22"/><path fill="#A0A3BD" d="M190.636 296.167H71.746v2.707h118.89v-2.707Z" opacity=".22"/><path fill="#A0A3BD" d="M193.376 296.167H78.346v2.707h115.03v-2.707ZM184.242 291.297v-70.609H77.278v70.609h106.964Z" opacity=".22"/><path fill="#EFF0F7" d="M133.284 291.297v-70.609h-5.048v70.609h5.048Z" opacity=".22"/><path fill="#DCDDEB" d="M184.247 291.301v-70.61h-1.91v70.61h1.91ZM128.241 291.297v-70.609h-1.911v70.609h1.911Z" opacity=".22"/></g><path fill="#F0F0F0" d="M194.524 389.191h3.506v-7h-7.179l3.673 7ZM64.412 389.191h-3.499v-7h7.179l-3.68 7Z"/><g opacity=".27"><path fill="#A0A3BD" d="M198.03 331.099h-11.691v58.094h11.691v-58.094ZM63.966 331.099h-11.69v58.094h11.69v-58.094Z" opacity=".27"/><path fill="#DCDDEB" d="M198.037 331.099H60.913v55.765h137.124v-55.765Z" opacity=".27"/><path fill="#A0A3BD" d="M195.312 335.023H63.631v22.313h131.681v-22.313Z" opacity=".27"/><path fill="#DCDDEB" d="M174.339 341.965H86.981c-3.421 0-6.688-2.754-9.038-7.612h105.433c-2.375 4.845-5.642 7.612-9.037 7.612Z" opacity=".27"/><path fill="#A0A3BD" d="M195.312 360.94H63.631v22.314h131.681V360.94Z" opacity=".27"/><path fill="#DCDDEB" d="M174.339 367.876H86.981c-3.421 0-6.688-2.754-9.038-7.611h105.433c-2.375 4.864-5.642 7.611-9.037 7.611Z" opacity=".27"/></g><path fill="#0075FF" d="M129.148 334.65h-68.1c-4.279 0-7.747 3.457-7.747 7.721v32.178c0 4.264 3.468 7.721 7.746 7.721h68.101c4.278 0 7.747-3.457 7.747-7.721v-32.178c0-4.264-3.469-7.721-7.747-7.721Z"/><path fill="#fff" d="M129.148 334.65h-68.1c-4.279 0-7.747 3.457-7.747 7.721v32.178c0 4.264 3.468 7.721 7.746 7.721h68.101c4.278 0 7.747-3.457 7.747-7.721v-32.178c0-4.264-3.469-7.721-7.747-7.721Z" opacity=".7"/><path fill="#0075FF" d="M53.3 342.365v32.171c0 2.048.817 4.011 2.27 5.459a7.76 7.76 0 0 0 5.477 2.262v-41.771a3.62 3.62 0 0 0-.766-2.225 3.652 3.652 0 0 0-4.328-1.1 3.635 3.635 0 0 0-1.742 1.588 7.63 7.63 0 0 0-.91 3.616Z" opacity=".2"/><path fill="#0075FF" d="M264.38 369.356H61.048c-4.279 0-7.747 3.457-7.747 7.721v6.588c0 4.265 3.468 7.722 7.746 7.722H264.38c4.279 0 7.747-3.457 7.747-7.722v-6.588c0-4.264-3.468-7.721-7.747-7.721Z"/><path fill="#fff" d="M264.38 369.356H61.048c-4.279 0-7.747 3.457-7.747 7.721v6.588c0 4.265 3.468 7.722 7.746 7.722H264.38c4.279 0 7.747-3.457 7.747-7.722v-6.588c0-4.264-3.468-7.721-7.747-7.721Z" opacity=".7"/><path fill="#0075FF" d="M187.3 369.356H61.047c-4.278 0-7.746 3.457-7.746 7.721v6.588c0 4.265 3.468 7.722 7.746 7.722H187.3c4.278 0 7.747-3.457 7.747-7.722v-6.588c0-4.264-3.469-7.721-7.747-7.721Z" opacity=".2"/><path fill="#0075FF" d="M177.616 410.967h2.311l4.578-19.579h-6.889v19.579Z"/><path fill="#fff" d="M177.616 410.967h2.311l4.578-19.579h-6.889v19.579Z" opacity=".7"/><path fill="#0075FF" d="M175.738 410.967h2.311l4.571-19.579h-6.882v19.579Z"/><path fill="#fff" d="M175.738 410.967h2.311l4.571-19.579h-6.882v19.579Z" opacity=".4"/><path fill="#0075FF" d="M253.903 410.967h2.311l4.577-19.579h-6.888v19.579Z"/><path fill="#fff" d="M253.903 410.967h2.311l4.577-19.579h-6.888v19.579Z" opacity=".7"/><path fill="#0075FF" d="M252.024 410.967h2.311l4.571-19.579h-6.882v19.579Z"/><path fill="#fff" d="M252.024 410.967h2.311l4.571-19.579h-6.882v19.579Z" opacity=".4"/><path fill="#0075FF" d="M64.96 410.967h2.311l4.578-19.579H64.96v19.579Z"/><path fill="#fff" d="M64.96 410.967h2.311l4.578-19.579H64.96v19.579Z" opacity=".7"/><path fill="#0075FF" d="M63.075 410.967h2.31l4.578-19.579h-6.888v19.579Z"/><path fill="#fff" d="M63.075 410.967h2.31l4.578-19.579h-6.888v19.579Z" opacity=".4"/><path fill="#0075FF" d="M141.245 410.967h2.312l4.577-19.579h-6.889v19.579Z"/><path fill="#fff" d="M141.245 410.967h2.312l4.577-19.579h-6.889v19.579Z" opacity=".7"/><path fill="#0075FF" d="M139.36 410.967h2.312l4.577-19.579h-6.889v19.579Z"/><path fill="#fff" d="M139.36 410.967h2.312l4.577-19.579h-6.889v19.579Z" opacity=".4"/><path fill="#0075FF" d="M85.14 369.355c-13.912 0-17.05-24.218-17.488-35.073-.44-10.854 35.422.702 41.735 0 6.314-.701 23.725-7.882 29.218 1.223 5.494 9.104 3.06 15.075 8.393 20.499 5.332 5.424 10.045 9.008 5.597 13.351H85.14Z"/><path fill="#fff" d="M85.14 369.355c-13.912 0-17.05-24.218-17.488-35.073-.44-10.854 35.422.702 41.735 0 6.314-.701 23.725-7.882 29.218 1.223 5.494 9.104 3.06 15.075 8.393 20.499 5.332 5.424 10.045 9.008 5.597 13.351H85.14Z" opacity=".4"/><path fill="#1D53BB" d="M85.14 369.356c-13.912 0-17.05-24.218-17.488-35.073-.168-4.073 4.77-4.993 11.349-4.587 7.746 1.84-3.125 14.676 3.99 22.429 6.39 6.962 7.63 16.71 2.149 17.231Z" opacity=".4"/><path fill="#4B3CFB" d="M196.558 369.355s-8.199-2.645-14.338-3.249a14.193 14.193 0 0 0-2.008-.116h-.536a30.884 30.884 0 0 0-7.547 1.287c-3.595 1.1-8.34-.296-12.336-.747-3.996-.45-16.527 1.255-19.367.393-2.841-.862-16.875.424-19.251.939-2.375.515-9.483.496-12.659-.495s-17.398-.644-17.314 2.477c.213 7.624-3.448 26.831 2.395 33.123 1.2 1.287 12.453-.193 19.941-.856 7.489-.662 21.627.882 27.889.148 6.261-.733 15.713-.218 20.16-.218 4.448 0 21.711 3.448 21.95.366.2-2.618 2.866-25.318 1.936-33.059l11.085.007Z"/><path fill="#fff" d="M196.558 369.355s-8.199-2.645-14.338-3.249a14.193 14.193 0 0 0-2.008-.116h-.536a30.884 30.884 0 0 0-7.547 1.287c-3.595 1.1-8.34-.296-12.336-.747-3.996-.45-16.527 1.255-19.367.393-2.841-.862-16.875.424-19.251.939-2.375.515-9.483.496-12.659-.495s-17.398-.644-17.314 2.477c.213 7.624-3.448 26.831 2.395 33.123 1.2 1.287 12.453-.193 19.941-.856 7.489-.662 21.627.882 27.889.148 6.261-.733 15.713-.218 20.16-.218 4.448 0 21.711 3.448 21.95.366.2-2.618 2.866-25.318 1.936-33.059l11.085.007Z" opacity=".2"/><path fill="#4B3CFB" d="M112.079 400.354c.129-3.86.459-14.657.472-25.215 0-1.596 1.471-1.827 1.678-.258 1.291 10.199 2.421 21.188 2.802 25.042.077.772-.291 1.474-.788 1.525l-3.273.303c-.497.051-.917-.592-.891-1.397ZM154.731 400.323c.265-3.583 1.13-15.628 1.64-27.023.051-1.165 1.142-1.191 1.213 0 .646 11.105 1.098 23.549 1.214 27.107 0 .547-.258.997-.607.997h-2.853c-.368-.013-.646-.508-.607-1.081Z" opacity=".5"/><path fill="#EFF0F7" d="M294.59 617.328H38.823v.128H294.59v-.128ZM268.962 625.559H252.02v.128h16.942v-.128ZM208.253 626.95h-4.445v.127h4.445v-.127ZM251.508 620.812h-9.816v.128h9.816v-.128ZM87.75 621.671H65.658v.128h22.094v-.128ZM95.546 621.671h-3.238v.128h3.238v-.128ZM153.995 623.829h-47.921v.128h47.921v-.128Z"/><path fill="#F7F9FC" d="M273.499 522.71H58.369v94.68h215.13v-94.68Z"/><path fill="#EFF0F7" d="M68.865 526.93h-4.762a2.542 2.542 0 0 0-2.543 2.542v4.763a2.542 2.542 0 0 0 2.543 2.542h4.762a2.542 2.542 0 0 0 2.542-2.542v-4.763a2.542 2.542 0 0 0-2.542-2.542ZM68.865 539.62h-4.762a2.543 2.543 0 0 0-2.543 2.543v4.762a2.543 2.543 0 0 0 2.543 2.543h4.762a2.543 2.543 0 0 0 2.542-2.543v-4.762a2.543 2.543 0 0 0-2.542-2.543ZM68.865 551.979h-4.762a2.542 2.542 0 0 0-2.543 2.542v4.763a2.542 2.542 0 0 0 2.543 2.542h4.762a2.542 2.542 0 0 0 2.542-2.542v-4.763a2.542 2.542 0 0 0-2.542-2.542ZM68.865 564.332h-4.762a2.543 2.543 0 0 0-2.543 2.543v4.762a2.542 2.542 0 0 0 2.543 2.542h4.762a2.542 2.542 0 0 0 2.542-2.542v-4.762a2.543 2.543 0 0 0-2.542-2.543ZM68.865 576.693h-4.762a2.542 2.542 0 0 0-2.543 2.542v4.762a2.542 2.542 0 0 0 2.543 2.543h4.762a2.542 2.542 0 0 0 2.542-2.543v-4.762a2.542 2.542 0 0 0-2.542-2.542ZM68.865 589.045h-4.762a2.543 2.543 0 0 0-2.543 2.543v4.762a2.542 2.542 0 0 0 2.543 2.542h4.762a2.542 2.542 0 0 0 2.542-2.542v-4.762a2.543 2.543 0 0 0-2.542-2.543ZM68.865 601.404h-4.762a2.542 2.542 0 0 0-2.543 2.542v4.762a2.543 2.543 0 0 0 2.543 2.543h4.762a2.543 2.543 0 0 0 2.542-2.543v-4.762a2.542 2.542 0 0 0-2.542-2.542ZM81.53 526.93h-4.762a2.542 2.542 0 0 0-2.542 2.542v4.763a2.542 2.542 0 0 0 2.542 2.542h4.763a2.542 2.542 0 0 0 2.542-2.542v-4.763a2.542 2.542 0 0 0-2.542-2.542ZM81.53 539.621h-4.762a2.542 2.542 0 0 0-2.542 2.542v4.762a2.543 2.543 0 0 0 2.542 2.543h4.763a2.543 2.543 0 0 0 2.542-2.543v-4.762a2.542 2.542 0 0 0-2.542-2.542ZM81.53 551.979h-4.762a2.542 2.542 0 0 0-2.542 2.542v4.763a2.542 2.542 0 0 0 2.542 2.542h4.763a2.542 2.542 0 0 0 2.542-2.542v-4.763a2.542 2.542 0 0 0-2.542-2.542ZM81.53 564.332h-4.762a2.543 2.543 0 0 0-2.542 2.543v4.762a2.542 2.542 0 0 0 2.542 2.542h4.763a2.542 2.542 0 0 0 2.542-2.542v-4.762a2.543 2.543 0 0 0-2.542-2.543ZM81.53 576.693h-4.762a2.542 2.542 0 0 0-2.542 2.542v4.762a2.542 2.542 0 0 0 2.542 2.543h4.763a2.542 2.542 0 0 0 2.542-2.543v-4.762a2.542 2.542 0 0 0-2.542-2.542ZM81.53 589.045h-4.762a2.543 2.543 0 0 0-2.542 2.543v4.762a2.542 2.542 0 0 0 2.542 2.542h4.763a2.542 2.542 0 0 0 2.542-2.542v-4.762a2.543 2.543 0 0 0-2.542-2.543ZM81.53 601.404h-4.762a2.542 2.542 0 0 0-2.542 2.542v4.762a2.543 2.543 0 0 0 2.542 2.543h4.763a2.543 2.543 0 0 0 2.542-2.543v-4.762a2.542 2.542 0 0 0-2.542-2.542ZM94.197 526.93h-4.762a2.542 2.542 0 0 0-2.543 2.542v4.763a2.542 2.542 0 0 0 2.543 2.542h4.762a2.542 2.542 0 0 0 2.542-2.542v-4.763a2.542 2.542 0 0 0-2.542-2.542ZM94.197 539.62h-4.762a2.543 2.543 0 0 0-2.543 2.543v4.762a2.543 2.543 0 0 0 2.543 2.543h4.762a2.543 2.543 0 0 0 2.542-2.543v-4.762a2.543 2.543 0 0 0-2.542-2.543ZM94.197 551.979h-4.762a2.542 2.542 0 0 0-2.543 2.542v4.763a2.542 2.542 0 0 0 2.543 2.542h4.762a2.542 2.542 0 0 0 2.542-2.542v-4.763a2.542 2.542 0 0 0-2.542-2.542ZM94.197 564.332h-4.762a2.543 2.543 0 0 0-2.543 2.543v4.762a2.542 2.542 0 0 0 2.543 2.542h4.762a2.542 2.542 0 0 0 2.542-2.542v-4.762a2.543 2.543 0 0 0-2.542-2.543ZM94.197 576.693h-4.762a2.542 2.542 0 0 0-2.543 2.542v4.762a2.542 2.542 0 0 0 2.543 2.543h4.762a2.542 2.542 0 0 0 2.542-2.543v-4.762a2.542 2.542 0 0 0-2.542-2.542ZM94.197 589.045h-4.762a2.543 2.543 0 0 0-2.543 2.543v4.762a2.542 2.542 0 0 0 2.543 2.542h4.762a2.542 2.542 0 0 0 2.542-2.542v-4.762a2.543 2.543 0 0 0-2.542-2.543ZM94.197 601.404h-4.762a2.542 2.542 0 0 0-2.543 2.542v4.762a2.543 2.543 0 0 0 2.543 2.543h4.762a2.543 2.543 0 0 0 2.542-2.543v-4.762a2.542 2.542 0 0 0-2.542-2.542ZM106.857 526.93h-4.763a2.542 2.542 0 0 0-2.542 2.542v4.763a2.542 2.542 0 0 0 2.542 2.542h4.763a2.542 2.542 0 0 0 2.542-2.542v-4.763a2.542 2.542 0 0 0-2.542-2.542ZM106.857 539.621h-4.763a2.542 2.542 0 0 0-2.542 2.542v4.762a2.543 2.543 0 0 0 2.542 2.543h4.763a2.543 2.543 0 0 0 2.542-2.543v-4.762a2.542 2.542 0 0 0-2.542-2.542ZM106.857 551.979h-4.763a2.542 2.542 0 0 0-2.542 2.542v4.763a2.542 2.542 0 0 0 2.542 2.542h4.763a2.542 2.542 0 0 0 2.542-2.542v-4.763a2.542 2.542 0 0 0-2.542-2.542ZM106.857 564.332h-4.763a2.543 2.543 0 0 0-2.542 2.543v4.762a2.542 2.542 0 0 0 2.542 2.542h4.763a2.542 2.542 0 0 0 2.542-2.542v-4.762a2.543 2.543 0 0 0-2.542-2.543ZM106.857 576.693h-4.763a2.542 2.542 0 0 0-2.542 2.542v4.762a2.542 2.542 0 0 0 2.542 2.543h4.763a2.542 2.542 0 0 0 2.542-2.543v-4.762a2.542 2.542 0 0 0-2.542-2.542ZM106.857 589.045h-4.763a2.543 2.543 0 0 0-2.542 2.543v4.762a2.542 2.542 0 0 0 2.542 2.542h4.763a2.542 2.542 0 0 0 2.542-2.542v-4.762a2.543 2.543 0 0 0-2.542-2.543ZM106.857 601.404h-4.763a2.542 2.542 0 0 0-2.542 2.542v4.762a2.543 2.543 0 0 0 2.542 2.543h4.763a2.543 2.543 0 0 0 2.542-2.543v-4.762a2.542 2.542 0 0 0-2.542-2.542ZM120.397 526.93h-4.763a2.542 2.542 0 0 0-2.542 2.542v4.763a2.542 2.542 0 0 0 2.542 2.542h4.763a2.542 2.542 0 0 0 2.542-2.542v-4.763a2.542 2.542 0 0 0-2.542-2.542ZM120.397 539.621h-4.763a2.542 2.542 0 0 0-2.542 2.542v4.762a2.543 2.543 0 0 0 2.542 2.543h4.763a2.543 2.543 0 0 0 2.542-2.543v-4.762a2.542 2.542 0 0 0-2.542-2.542ZM120.397 551.979h-4.763a2.542 2.542 0 0 0-2.542 2.542v4.763a2.542 2.542 0 0 0 2.542 2.542h4.763a2.542 2.542 0 0 0 2.542-2.542v-4.763a2.542 2.542 0 0 0-2.542-2.542ZM120.397 564.332h-4.763a2.543 2.543 0 0 0-2.542 2.543v4.762a2.542 2.542 0 0 0 2.542 2.542h4.763a2.542 2.542 0 0 0 2.542-2.542v-4.762a2.543 2.543 0 0 0-2.542-2.543ZM120.397 576.693h-4.763a2.542 2.542 0 0 0-2.542 2.542v4.762a2.542 2.542 0 0 0 2.542 2.543h4.763a2.542 2.542 0 0 0 2.542-2.543v-4.762a2.542 2.542 0 0 0-2.542-2.542ZM120.397 589.045h-4.763a2.543 2.543 0 0 0-2.542 2.543v4.762a2.542 2.542 0 0 0 2.542 2.542h4.763a2.542 2.542 0 0 0 2.542-2.542v-4.762a2.543 2.543 0 0 0-2.542-2.543ZM120.397 601.404h-4.763a2.542 2.542 0 0 0-2.542 2.542v4.762a2.543 2.543 0 0 0 2.542 2.543h4.763a2.543 2.543 0 0 0 2.542-2.543v-4.762a2.542 2.542 0 0 0-2.542-2.542ZM133.062 526.93H128.3a2.542 2.542 0 0 0-2.542 2.542v4.763a2.542 2.542 0 0 0 2.542 2.542h4.762a2.543 2.543 0 0 0 2.543-2.542v-4.763a2.543 2.543 0 0 0-2.543-2.542ZM133.062 539.62H128.3a2.543 2.543 0 0 0-2.542 2.543v4.762a2.543 2.543 0 0 0 2.542 2.543h4.762a2.544 2.544 0 0 0 2.543-2.543v-4.762a2.544 2.544 0 0 0-2.543-2.543ZM133.062 551.979H128.3a2.542 2.542 0 0 0-2.542 2.542v4.763a2.542 2.542 0 0 0 2.542 2.542h4.762a2.543 2.543 0 0 0 2.543-2.542v-4.763a2.543 2.543 0 0 0-2.543-2.542ZM133.062 564.332H128.3a2.543 2.543 0 0 0-2.542 2.543v4.762a2.542 2.542 0 0 0 2.542 2.542h4.762a2.543 2.543 0 0 0 2.543-2.542v-4.762a2.544 2.544 0 0 0-2.543-2.543ZM133.062 576.693H128.3a2.542 2.542 0 0 0-2.542 2.542v4.762a2.542 2.542 0 0 0 2.542 2.543h4.762a2.543 2.543 0 0 0 2.543-2.543v-4.762a2.543 2.543 0 0 0-2.543-2.542ZM133.062 589.045H128.3a2.543 2.543 0 0 0-2.542 2.543v4.762a2.542 2.542 0 0 0 2.542 2.542h4.762a2.543 2.543 0 0 0 2.543-2.542v-4.762a2.544 2.544 0 0 0-2.543-2.543ZM133.062 601.404H128.3a2.542 2.542 0 0 0-2.542 2.542v4.762a2.543 2.543 0 0 0 2.542 2.543h4.762a2.544 2.544 0 0 0 2.543-2.543v-4.762a2.543 2.543 0 0 0-2.543-2.542ZM145.723 526.93h-4.762a2.542 2.542 0 0 0-2.542 2.542v4.763a2.542 2.542 0 0 0 2.542 2.542h4.762a2.542 2.542 0 0 0 2.543-2.542v-4.763a2.542 2.542 0 0 0-2.543-2.542ZM145.723 539.621h-4.762a2.542 2.542 0 0 0-2.542 2.542v4.762a2.543 2.543 0 0 0 2.542 2.543h4.762a2.543 2.543 0 0 0 2.543-2.543v-4.762a2.542 2.542 0 0 0-2.543-2.542ZM145.723 551.979h-4.762a2.542 2.542 0 0 0-2.542 2.542v4.763a2.542 2.542 0 0 0 2.542 2.542h4.762a2.542 2.542 0 0 0 2.543-2.542v-4.763a2.542 2.542 0 0 0-2.543-2.542ZM145.723 564.332h-4.762a2.543 2.543 0 0 0-2.542 2.543v4.762a2.542 2.542 0 0 0 2.542 2.542h4.762a2.542 2.542 0 0 0 2.543-2.542v-4.762a2.543 2.543 0 0 0-2.543-2.543ZM145.723 576.693h-4.762a2.542 2.542 0 0 0-2.542 2.542v4.762a2.542 2.542 0 0 0 2.542 2.543h4.762a2.542 2.542 0 0 0 2.543-2.543v-4.762a2.542 2.542 0 0 0-2.543-2.542ZM145.723 589.045h-4.762a2.543 2.543 0 0 0-2.542 2.543v4.762a2.542 2.542 0 0 0 2.542 2.542h4.762a2.542 2.542 0 0 0 2.543-2.542v-4.762a2.543 2.543 0 0 0-2.543-2.543ZM145.723 601.404h-4.762a2.542 2.542 0 0 0-2.542 2.542v4.762a2.543 2.543 0 0 0 2.542 2.543h4.762a2.543 2.543 0 0 0 2.543-2.543v-4.762a2.542 2.542 0 0 0-2.543-2.542ZM158.389 526.93h-4.762a2.542 2.542 0 0 0-2.543 2.542v4.763a2.542 2.542 0 0 0 2.543 2.542h4.762a2.542 2.542 0 0 0 2.542-2.542v-4.763a2.542 2.542 0 0 0-2.542-2.542ZM158.389 539.62h-4.762a2.543 2.543 0 0 0-2.543 2.543v4.762a2.543 2.543 0 0 0 2.543 2.543h4.762a2.543 2.543 0 0 0 2.542-2.543v-4.762a2.543 2.543 0 0 0-2.542-2.543ZM158.389 551.979h-4.762a2.542 2.542 0 0 0-2.543 2.542v4.763a2.542 2.542 0 0 0 2.543 2.542h4.762a2.542 2.542 0 0 0 2.542-2.542v-4.763a2.542 2.542 0 0 0-2.542-2.542ZM158.389 564.332h-4.762a2.543 2.543 0 0 0-2.543 2.543v4.762a2.542 2.542 0 0 0 2.543 2.542h4.762a2.542 2.542 0 0 0 2.542-2.542v-4.762a2.543 2.543 0 0 0-2.542-2.543ZM158.389 576.693h-4.762a2.542 2.542 0 0 0-2.543 2.542v4.762a2.542 2.542 0 0 0 2.543 2.543h4.762a2.542 2.542 0 0 0 2.542-2.543v-4.762a2.542 2.542 0 0 0-2.542-2.542ZM158.389 589.045h-4.762a2.543 2.543 0 0 0-2.543 2.543v4.762a2.542 2.542 0 0 0 2.543 2.542h4.762a2.542 2.542 0 0 0 2.542-2.542v-4.762a2.543 2.543 0 0 0-2.542-2.543ZM158.389 601.404h-4.762a2.542 2.542 0 0 0-2.543 2.542v4.762a2.543 2.543 0 0 0 2.543 2.543h4.762a2.543 2.543 0 0 0 2.542-2.543v-4.762a2.542 2.542 0 0 0-2.542-2.542ZM171.372 526.93h-4.763a2.542 2.542 0 0 0-2.542 2.542v4.763a2.542 2.542 0 0 0 2.542 2.542h4.763a2.542 2.542 0 0 0 2.542-2.542v-4.763a2.542 2.542 0 0 0-2.542-2.542ZM171.372 539.621h-4.763a2.542 2.542 0 0 0-2.542 2.542v4.762a2.543 2.543 0 0 0 2.542 2.543h4.763a2.543 2.543 0 0 0 2.542-2.543v-4.762a2.542 2.542 0 0 0-2.542-2.542ZM171.372 551.979h-4.763a2.542 2.542 0 0 0-2.542 2.542v4.763a2.542 2.542 0 0 0 2.542 2.542h4.763a2.542 2.542 0 0 0 2.542-2.542v-4.763a2.542 2.542 0 0 0-2.542-2.542ZM171.372 564.332h-4.763a2.543 2.543 0 0 0-2.542 2.543v4.762a2.542 2.542 0 0 0 2.542 2.542h4.763a2.542 2.542 0 0 0 2.542-2.542v-4.762a2.543 2.543 0 0 0-2.542-2.543ZM171.372 576.693h-4.763a2.542 2.542 0 0 0-2.542 2.542v4.762a2.542 2.542 0 0 0 2.542 2.543h4.763a2.542 2.542 0 0 0 2.542-2.543v-4.762a2.542 2.542 0 0 0-2.542-2.542ZM171.372 589.045h-4.763a2.543 2.543 0 0 0-2.542 2.543v4.762a2.542 2.542 0 0 0 2.542 2.542h4.763a2.542 2.542 0 0 0 2.542-2.542v-4.762a2.543 2.543 0 0 0-2.542-2.543ZM171.372 601.404h-4.763a2.542 2.542 0 0 0-2.542 2.542v4.762a2.543 2.543 0 0 0 2.542 2.543h4.763a2.543 2.543 0 0 0 2.542-2.543v-4.762a2.542 2.542 0 0 0-2.542-2.542ZM184.032 526.93h-4.763a2.542 2.542 0 0 0-2.542 2.542v4.763a2.542 2.542 0 0 0 2.542 2.542h4.763a2.542 2.542 0 0 0 2.542-2.542v-4.763a2.542 2.542 0 0 0-2.542-2.542ZM184.032 539.62h-4.763a2.543 2.543 0 0 0-2.542 2.543v4.762a2.543 2.543 0 0 0 2.542 2.543h4.763a2.543 2.543 0 0 0 2.542-2.543v-4.762a2.543 2.543 0 0 0-2.542-2.543ZM184.032 551.979h-4.763a2.542 2.542 0 0 0-2.542 2.542v4.763a2.542 2.542 0 0 0 2.542 2.542h4.763a2.542 2.542 0 0 0 2.542-2.542v-4.763a2.542 2.542 0 0 0-2.542-2.542ZM184.032 564.332h-4.763a2.543 2.543 0 0 0-2.542 2.543v4.762a2.542 2.542 0 0 0 2.542 2.542h4.763a2.542 2.542 0 0 0 2.542-2.542v-4.762a2.543 2.543 0 0 0-2.542-2.543ZM184.032 576.693h-4.763a2.542 2.542 0 0 0-2.542 2.542v4.762a2.542 2.542 0 0 0 2.542 2.543h4.763a2.542 2.542 0 0 0 2.542-2.543v-4.762a2.542 2.542 0 0 0-2.542-2.542ZM184.032 589.045h-4.763a2.543 2.543 0 0 0-2.542 2.543v4.762a2.542 2.542 0 0 0 2.542 2.542h4.763a2.542 2.542 0 0 0 2.542-2.542v-4.762a2.543 2.543 0 0 0-2.542-2.543ZM184.032 601.404h-4.763a2.542 2.542 0 0 0-2.542 2.542v4.762a2.543 2.543 0 0 0 2.542 2.543h4.763a2.543 2.543 0 0 0 2.542-2.543v-4.762a2.542 2.542 0 0 0-2.542-2.542ZM196.698 526.93h-4.763a2.542 2.542 0 0 0-2.542 2.542v4.763a2.542 2.542 0 0 0 2.542 2.542h4.763a2.542 2.542 0 0 0 2.542-2.542v-4.763a2.542 2.542 0 0 0-2.542-2.542ZM196.698 539.621h-4.763a2.542 2.542 0 0 0-2.542 2.542v4.762a2.543 2.543 0 0 0 2.542 2.543h4.763a2.543 2.543 0 0 0 2.542-2.543v-4.762a2.542 2.542 0 0 0-2.542-2.542ZM196.698 551.979h-4.763a2.542 2.542 0 0 0-2.542 2.542v4.763a2.542 2.542 0 0 0 2.542 2.542h4.763a2.542 2.542 0 0 0 2.542-2.542v-4.763a2.542 2.542 0 0 0-2.542-2.542ZM196.698 564.332h-4.763a2.543 2.543 0 0 0-2.542 2.543v4.762a2.542 2.542 0 0 0 2.542 2.542h4.763a2.542 2.542 0 0 0 2.542-2.542v-4.762a2.543 2.543 0 0 0-2.542-2.543ZM196.698 576.693h-4.763a2.542 2.542 0 0 0-2.542 2.542v4.762a2.542 2.542 0 0 0 2.542 2.543h4.763a2.542 2.542 0 0 0 2.542-2.543v-4.762a2.542 2.542 0 0 0-2.542-2.542ZM196.698 589.045h-4.763a2.543 2.543 0 0 0-2.542 2.543v4.762a2.542 2.542 0 0 0 2.542 2.542h4.763a2.542 2.542 0 0 0 2.542-2.542v-4.762a2.543 2.543 0 0 0-2.542-2.543ZM196.698 601.404h-4.763a2.542 2.542 0 0 0-2.542 2.542v4.762a2.543 2.543 0 0 0 2.542 2.543h4.763a2.543 2.543 0 0 0 2.542-2.543v-4.762a2.542 2.542 0 0 0-2.542-2.542ZM209.364 526.93h-4.763a2.542 2.542 0 0 0-2.542 2.542v4.763a2.542 2.542 0 0 0 2.542 2.542h4.763a2.542 2.542 0 0 0 2.542-2.542v-4.763a2.542 2.542 0 0 0-2.542-2.542ZM209.364 539.62h-4.763a2.543 2.543 0 0 0-2.542 2.543v4.762a2.543 2.543 0 0 0 2.542 2.543h4.763a2.543 2.543 0 0 0 2.542-2.543v-4.762a2.543 2.543 0 0 0-2.542-2.543ZM209.364 551.979h-4.763a2.542 2.542 0 0 0-2.542 2.542v4.763a2.542 2.542 0 0 0 2.542 2.542h4.763a2.542 2.542 0 0 0 2.542-2.542v-4.763a2.542 2.542 0 0 0-2.542-2.542ZM209.364 564.332h-4.763a2.543 2.543 0 0 0-2.542 2.543v4.762a2.542 2.542 0 0 0 2.542 2.542h4.763a2.542 2.542 0 0 0 2.542-2.542v-4.762a2.543 2.543 0 0 0-2.542-2.543ZM209.364 576.693h-4.763a2.542 2.542 0 0 0-2.542 2.542v4.762a2.542 2.542 0 0 0 2.542 2.543h4.763a2.542 2.542 0 0 0 2.542-2.543v-4.762a2.542 2.542 0 0 0-2.542-2.542ZM209.364 589.045h-4.763a2.543 2.543 0 0 0-2.542 2.543v4.762a2.542 2.542 0 0 0 2.542 2.542h4.763a2.542 2.542 0 0 0 2.542-2.542v-4.762a2.543 2.543 0 0 0-2.542-2.543ZM209.364 601.404h-4.763a2.542 2.542 0 0 0-2.542 2.542v4.762a2.543 2.543 0 0 0 2.542 2.543h4.763a2.543 2.543 0 0 0 2.542-2.543v-4.762a2.542 2.542 0 0 0-2.542-2.542ZM221.84 526.93h-4.763a2.542 2.542 0 0 0-2.542 2.542v4.763a2.542 2.542 0 0 0 2.542 2.542h4.763a2.542 2.542 0 0 0 2.542-2.542v-4.763a2.542 2.542 0 0 0-2.542-2.542ZM221.84 539.621h-4.763a2.542 2.542 0 0 0-2.542 2.542v4.762a2.543 2.543 0 0 0 2.542 2.543h4.763a2.543 2.543 0 0 0 2.542-2.543v-4.762a2.542 2.542 0 0 0-2.542-2.542ZM221.84 551.979h-4.763a2.542 2.542 0 0 0-2.542 2.542v4.763a2.542 2.542 0 0 0 2.542 2.542h4.763a2.542 2.542 0 0 0 2.542-2.542v-4.763a2.542 2.542 0 0 0-2.542-2.542ZM221.84 564.332h-4.763a2.543 2.543 0 0 0-2.542 2.543v4.762a2.542 2.542 0 0 0 2.542 2.542h4.763a2.542 2.542 0 0 0 2.542-2.542v-4.762a2.543 2.543 0 0 0-2.542-2.543ZM221.84 576.693h-4.763a2.542 2.542 0 0 0-2.542 2.542v4.762a2.542 2.542 0 0 0 2.542 2.543h4.763a2.542 2.542 0 0 0 2.542-2.543v-4.762a2.542 2.542 0 0 0-2.542-2.542ZM221.84 589.045h-4.763a2.543 2.543 0 0 0-2.542 2.543v4.762a2.542 2.542 0 0 0 2.542 2.542h4.763a2.542 2.542 0 0 0 2.542-2.542v-4.762a2.543 2.543 0 0 0-2.542-2.543ZM221.84 601.404h-4.763a2.542 2.542 0 0 0-2.542 2.542v4.762a2.543 2.543 0 0 0 2.542 2.543h4.763a2.543 2.543 0 0 0 2.542-2.543v-4.762a2.542 2.542 0 0 0-2.542-2.542ZM234.505 526.93h-4.762a2.543 2.543 0 0 0-2.543 2.542v4.763a2.543 2.543 0 0 0 2.543 2.542h4.762a2.542 2.542 0 0 0 2.542-2.542v-4.763a2.542 2.542 0 0 0-2.542-2.542ZM234.505 539.62h-4.762a2.544 2.544 0 0 0-2.543 2.543v4.762a2.544 2.544 0 0 0 2.543 2.543h4.762a2.543 2.543 0 0 0 2.542-2.543v-4.762a2.543 2.543 0 0 0-2.542-2.543ZM234.505 551.979h-4.762a2.543 2.543 0 0 0-2.543 2.542v4.763a2.543 2.543 0 0 0 2.543 2.542h4.762a2.542 2.542 0 0 0 2.542-2.542v-4.763a2.542 2.542 0 0 0-2.542-2.542ZM234.505 564.332h-4.762a2.544 2.544 0 0 0-2.543 2.543v4.762a2.543 2.543 0 0 0 2.543 2.542h4.762a2.542 2.542 0 0 0 2.542-2.542v-4.762a2.543 2.543 0 0 0-2.542-2.543ZM234.505 576.693h-4.762a2.543 2.543 0 0 0-2.543 2.542v4.762a2.543 2.543 0 0 0 2.543 2.543h4.762a2.542 2.542 0 0 0 2.542-2.543v-4.762a2.542 2.542 0 0 0-2.542-2.542ZM234.505 589.045h-4.762a2.544 2.544 0 0 0-2.543 2.543v4.762a2.543 2.543 0 0 0 2.543 2.542h4.762a2.542 2.542 0 0 0 2.542-2.542v-4.762a2.543 2.543 0 0 0-2.542-2.543ZM234.505 601.404h-4.762a2.543 2.543 0 0 0-2.543 2.542v4.762a2.544 2.544 0 0 0 2.543 2.543h4.762a2.543 2.543 0 0 0 2.542-2.543v-4.762a2.542 2.542 0 0 0-2.542-2.542ZM247.171 526.93h-4.762a2.543 2.543 0 0 0-2.543 2.542v4.763a2.543 2.543 0 0 0 2.543 2.542h4.762a2.542 2.542 0 0 0 2.542-2.542v-4.763a2.542 2.542 0 0 0-2.542-2.542ZM247.171 539.621h-4.762a2.543 2.543 0 0 0-2.543 2.542v4.762a2.544 2.544 0 0 0 2.543 2.543h4.762a2.543 2.543 0 0 0 2.542-2.543v-4.762a2.542 2.542 0 0 0-2.542-2.542ZM247.171 551.979h-4.762a2.543 2.543 0 0 0-2.543 2.542v4.763a2.543 2.543 0 0 0 2.543 2.542h4.762a2.542 2.542 0 0 0 2.542-2.542v-4.763a2.542 2.542 0 0 0-2.542-2.542ZM247.171 564.332h-4.762a2.544 2.544 0 0 0-2.543 2.543v4.762a2.543 2.543 0 0 0 2.543 2.542h4.762a2.542 2.542 0 0 0 2.542-2.542v-4.762a2.543 2.543 0 0 0-2.542-2.543ZM247.171 576.693h-4.762a2.543 2.543 0 0 0-2.543 2.542v4.762a2.543 2.543 0 0 0 2.543 2.543h4.762a2.542 2.542 0 0 0 2.542-2.543v-4.762a2.542 2.542 0 0 0-2.542-2.542ZM247.171 589.045h-4.762a2.544 2.544 0 0 0-2.543 2.543v4.762a2.543 2.543 0 0 0 2.543 2.542h4.762a2.542 2.542 0 0 0 2.542-2.542v-4.762a2.543 2.543 0 0 0-2.542-2.543ZM247.171 601.404h-4.762a2.543 2.543 0 0 0-2.543 2.542v4.762a2.544 2.544 0 0 0 2.543 2.543h4.762a2.543 2.543 0 0 0 2.542-2.543v-4.762a2.542 2.542 0 0 0-2.542-2.542ZM259.836 526.93h-4.762a2.543 2.543 0 0 0-2.543 2.542v4.763a2.543 2.543 0 0 0 2.543 2.542h4.762a2.543 2.543 0 0 0 2.543-2.542v-4.763a2.543 2.543 0 0 0-2.543-2.542ZM259.836 539.62h-4.762a2.544 2.544 0 0 0-2.543 2.543v4.762a2.544 2.544 0 0 0 2.543 2.543h4.762a2.544 2.544 0 0 0 2.543-2.543v-4.762a2.544 2.544 0 0 0-2.543-2.543ZM259.836 551.979h-4.762a2.543 2.543 0 0 0-2.543 2.542v4.763a2.543 2.543 0 0 0 2.543 2.542h4.762a2.543 2.543 0 0 0 2.543-2.542v-4.763a2.543 2.543 0 0 0-2.543-2.542ZM259.836 564.332h-4.762a2.544 2.544 0 0 0-2.543 2.543v4.762a2.543 2.543 0 0 0 2.543 2.542h4.762a2.543 2.543 0 0 0 2.543-2.542v-4.762a2.544 2.544 0 0 0-2.543-2.543ZM259.836 576.693h-4.762a2.543 2.543 0 0 0-2.543 2.542v4.762a2.543 2.543 0 0 0 2.543 2.543h4.762a2.543 2.543 0 0 0 2.543-2.543v-4.762a2.543 2.543 0 0 0-2.543-2.542ZM259.836 589.045h-4.762a2.544 2.544 0 0 0-2.543 2.543v4.762a2.543 2.543 0 0 0 2.543 2.542h4.762a2.543 2.543 0 0 0 2.543-2.542v-4.762a2.544 2.544 0 0 0-2.543-2.543ZM259.836 601.404h-4.762a2.543 2.543 0 0 0-2.543 2.542v4.762a2.544 2.544 0 0 0 2.543 2.543h4.762a2.544 2.544 0 0 0 2.543-2.543v-4.762a2.543 2.543 0 0 0-2.543-2.542ZM273.5 527.092a2.595 2.595 0 0 0-.824-.143h-4.466a2.68 2.68 0 0 0-2.487 1.66 2.68 2.68 0 0 0-.203 1.03v4.466a2.672 2.672 0 0 0 .786 1.904 2.684 2.684 0 0 0 1.904.787h4.466a2.78 2.78 0 0 0 .824-.138v-9.566ZM273.5 539.764a2.595 2.595 0 0 0-.824-.143h-4.466a2.688 2.688 0 0 0-2.69 2.69v4.466a2.68 2.68 0 0 0 .786 1.906 2.687 2.687 0 0 0 1.904.79h4.466c.28-.006.558-.054.824-.144v-9.565ZM273.5 552.117a2.748 2.748 0 0 0-.824-.138h-4.466a2.68 2.68 0 0 0-2.487 1.66 2.68 2.68 0 0 0-.203 1.031v4.465a2.69 2.69 0 0 0 2.69 2.691h4.466c.281-.003.559-.052.824-.143v-9.566ZM273.5 564.476a2.596 2.596 0 0 0-.824-.144h-4.466a2.692 2.692 0 0 0-2.69 2.691v4.466a2.68 2.68 0 0 0 .786 1.906 2.687 2.687 0 0 0 1.904.79h4.466c.28-.006.558-.054.824-.144v-9.565ZM273.5 576.831a2.748 2.748 0 0 0-.824-.138h-4.466a2.68 2.68 0 0 0-2.487 1.66 2.68 2.68 0 0 0-.203 1.03v4.492a2.688 2.688 0 0 0 2.69 2.69h4.466c.281-.003.559-.051.824-.143v-9.591ZM273.5 589.189a2.596 2.596 0 0 0-.824-.144h-4.466a2.692 2.692 0 0 0-2.69 2.691v4.466a2.684 2.684 0 0 0 1.66 2.49c.326.136.677.205 1.03.205h4.466c.28-.005.558-.053.824-.143v-9.565ZM273.5 601.542a2.748 2.748 0 0 0-.824-.138h-4.466a2.68 2.68 0 0 0-2.487 1.66 2.68 2.68 0 0 0-.203 1.03v4.466a2.69 2.69 0 0 0 2.69 2.691h4.466c.281-.003.559-.052.824-.143v-9.566Z"/><path fill="#4B3CFB" d="M259.034 473.858h-8.957v48.394h8.957v-48.394Z"/><path fill="#fff" d="M259.034 473.858h-7.19v48.394h7.19v-48.394Z" opacity=".2"/><path fill="#211F54" d="M256.355 568.5a4.477 4.477 0 0 0-3.159 1.305 4.443 4.443 0 0 0-1.306 3.151v11.561c0 1.322-2.71 1.409-2.884 0v-20.928h-3.216v21.01c0 5.834 9.556 5.834 9.556-.087V573.42a1.502 1.502 0 0 1 1.506-1.506h1.403V568.5h-1.9Z"/><path fill="#fff" d="M256.355 568.5a4.477 4.477 0 0 0-3.159 1.305 4.443 4.443 0 0 0-1.306 3.151v11.561c0 1.322-2.71 1.409-2.884 0v-20.928h-3.216v21.01c0 5.834 9.556 5.834 9.556-.087V573.42a1.502 1.502 0 0 1 1.506-1.506h1.403V568.5h-1.9Z" opacity=".3"/><path fill="#fff" d="M248.529 565.237h-.46v17.411a2.16 2.16 0 0 0 .184.878l.276.612v-18.901ZM254.753 573.288v11.536c.082 1.582-1.731 3.573-3.841 3.573 2.048-.449 3.385-2.006 3.339-3.573v-10.398c0-.337.199-1.005.502-1.138Z" opacity=".2"/><path fill="#fff" d="M246.047 565.237v19.575l.194-1.204a.561.561 0 0 0 0-.082v-18.289h-.194ZM252.125 572.527c-.108-1.281 1.572-3.502 3.042-3.66a4.278 4.278 0 0 0-1.986 1.404 4.25 4.25 0 0 0-.897 2.256v12.618c0 .617-.896.924-1.567.878.63-.026 1.413-.251 1.423-.873l-.015-12.623Z" opacity=".1"/><path fill="#211F54" d="M245.186 565.238h4.819a.388.388 0 0 0 .328-.173l2.561-3.732h-10.483l2.448 3.727a.389.389 0 0 0 .141.129.391.391 0 0 0 .186.049Z"/><path fill="#fff" d="M245.186 565.238h4.819a.388.388 0 0 0 .328-.173l2.561-3.732h-10.483l2.448 3.727a.389.389 0 0 0 .141.129.391.391 0 0 0 .186.049Z" opacity=".1"/><path fill="#fff" d="m251.465 561.328-1.859 3.91h-.605l1.439-3.91h1.025Z" opacity=".2"/><path fill="#fff" d="m242.907 561.328 2.438 3.91h.225l-2.115-3.91h-.548Z" opacity=".1"/><path fill="#211F54" d="M250.773 537.261c0 .281.036.511.087.511h.964c.046 0 .087-.23.087-.511 0-.28-.041-.51-.087-.51h-.964c-.051 0-.087.23-.087.51Z"/><path fill="#fff" d="M250.773 537.261c0 .281.036.511.087.511h.964c.046 0 .087-.23.087-.511 0-.28-.041-.51-.087-.51h-.964c-.051 0-.087.23-.087.51Z" opacity=".2"/><path fill="#211F54" d="M249.493 544.326a3.466 3.466 0 0 0 3.825 0l-1.06-6.431h-1.874l-.891 6.431Z"/><path fill="#fff" d="M249.493 544.326a3.466 3.466 0 0 0 3.825 0l-1.06-6.431h-1.874l-.891 6.431Z" opacity=".7"/><path fill="#211F54" d="M248.049 537.506a.511.511 0 0 0 .512.51h5.695a.51.51 0 1 0 0-1.021h-5.695a.512.512 0 0 0-.512.511Z"/><path fill="#fff" d="M248.049 537.506a.511.511 0 0 0 .512.51h5.695a.51.51 0 1 0 0-1.021h-5.695a.512.512 0 0 0-.512.511Z" opacity=".4"/><path fill="#211F54" d="m248.812 538.726 1.46-.128a.646.646 0 0 1 .43.761c0 .48-.236.74-.615.72l-.86-.097a.848.848 0 0 0-.963.709v.169l-.942-.041a4.14 4.14 0 0 1 .051-.95 1.669 1.669 0 0 1 1.439-1.143Z"/><path fill="#fff" d="m248.812 538.726 1.46-.128a.646.646 0 0 1 .43.761c0 .48-.236.74-.615.72l-.86-.097a.848.848 0 0 0-.963.709v.169l-.942-.041a4.14 4.14 0 0 1 .051-.95 1.669 1.669 0 0 1 1.439-1.143Z" opacity=".4"/><path fill="#0075FF" d="M223.948 544.106h32.571c.459 0 .898.181 1.223.504.324.322.507.76.508 1.216v14.328a.944.944 0 0 1-.86.929c-21.069 1.684-30.728-.194-34.748-13.271v-2.42a1.306 1.306 0 0 1 1.306-1.286Z"/><path fill="#fff" d="M223.948 544.106h32.571c.459 0 .898.181 1.223.504.324.322.507.76.508 1.216v14.328a.944.944 0 0 1-.86.929c-21.069 1.684-30.728-.194-34.748-13.271v-2.42a1.306 1.306 0 0 1 1.306-1.286Z" opacity=".2"/><path fill="#000" d="M223.948 544.106h32.571c.459 0 .898.181 1.223.504.324.322.507.76.508 1.216v1.879l-35.608.122v-2.419a1.303 1.303 0 0 1 1.306-1.302Z" opacity=".2"/><path fill="#fff" d="M226.944 544.106h29.575a1.731 1.731 0 0 1 1.731 1.72v1.879l-32.612.122v-2.419a1.298 1.298 0 0 1 1.306-1.302Z" opacity=".1"/><path fill="#fff" d="M258.25 547.705v12.449a.937.937 0 0 1-.86.929c-21.069 1.685-27.717-.194-31.752-13.271l32.612-.107Z" opacity=".1"/><path fill="#0075FF" d="M65.398 592.036h103.436a5.336 5.336 0 0 1 5.14 3.884 5.29 5.29 0 0 1 .13 2.28l-5.86 36.415H66.469l-6.335-36.349a5.31 5.31 0 0 1 1.178-4.336 5.34 5.34 0 0 1 4.086-1.894Z"/><path fill="#fff" d="m66.469 634.615-6.335-36.487a5.183 5.183 0 0 1 1.145-4.239 5.217 5.217 0 0 1 3.993-1.853h43.244a5.211 5.211 0 0 1 3.948 1.799 5.186 5.186 0 0 1 1.214 4.155l-5.415 36.619-41.794.006Z" opacity=".3"/><path fill="#0075FF" d="M146.562 455.879H64.23a1.805 1.805 0 0 0-1.805 1.799c0 .477.19.934.529 1.272a1.81 1.81 0 0 0 1.276.527h82.332a1.799 1.799 0 1 0 0-3.598Z"/><path fill="#fff" d="M146.562 455.879H64.23a1.805 1.805 0 0 0-1.805 1.799c0 .477.19.934.529 1.272a1.81 1.81 0 0 0 1.276.527h82.332a1.799 1.799 0 1 0 0-3.598Z" opacity=".5"/><path fill="#4A4566" d="M99.239 463.543h.885v-8.767a.444.444 0 0 0-.757-.312.443.443 0 0 0-.128.312v8.767Z"/><path fill="#fff" d="M99.239 463.543h.885v-8.767a.444.444 0 0 0-.757-.312.443.443 0 0 0-.128.312v8.767Z" opacity=".7"/><path fill="#4A4566" d="M92.23 463.543h.88v-8.767a.443.443 0 0 0-.61-.41.44.44 0 0 0-.27.41v8.767Z"/><path fill="#fff" d="M92.23 463.543h.88v-8.767a.443.443 0 0 0-.61-.41.44.44 0 0 0-.27.41v8.767Z" opacity=".7"/><path fill="#4A4566" d="M84.662 463.543h.878v-8.767a.442.442 0 0 0-.439-.444.443.443 0 0 0-.44.444v8.767Z"/><path fill="#fff" d="M84.662 463.543h.878v-8.767a.442.442 0 0 0-.439-.444.443.443 0 0 0-.44.444v8.767Z" opacity=".7"/><path fill="#4A4566" d="M78.399 463.543h.885v-8.767a.443.443 0 1 0-.885 0v8.767Z"/><path fill="#fff" d="M78.399 463.543h.885v-8.767a.443.443 0 1 0-.885 0v8.767Z" opacity=".7"/><path fill="#4A4566" d="M71.835 463.543h.885v-8.767a.444.444 0 0 0-.446-.444.448.448 0 0 0-.439.444v8.767Z"/><path fill="#fff" d="M71.835 463.543h.885v-8.767a.444.444 0 0 0-.446-.444.448.448 0 0 0-.439.444v8.767Z" opacity=".7"/><path fill="#4A4566" d="M66.204 463.543h.878v-8.767a.434.434 0 0 0-.27-.41.448.448 0 0 0-.169-.034.443.443 0 0 0-.44.444v8.767Z"/><path fill="#fff" d="M66.204 463.543h.878v-8.767a.434.434 0 0 0-.27-.41.448.448 0 0 0-.169-.034.443.443 0 0 0-.44.444v8.767Z" opacity=".7"/><path fill="#4A4566" d="M63.406 463.543h.885v-8.767a.443.443 0 1 0-.885 0v8.767Z"/><path fill="#fff" d="M63.406 463.543h.885v-8.767a.443.443 0 1 0-.885 0v8.767Z" opacity=".7"/><path fill="#4B3CFB" d="m62.612 462.343 4.981.678-6.533 134.705-4.861-1.715 6.413-133.668ZM101.019 462.684l1.618 130.088-11.298-1.151 2.226-128.937h7.454Z"/><path fill="#000" d="m94.293 462.684 2.28 129.471-5.234-.534 2.226-128.937h.728Z" opacity=".2"/><path fill="#4B3CFB" d="m86.268 462.684 7.273.276-2.202 133.146-8.573-1.475 3.502-131.947Z"/><path fill="#000" d="m86.268 462.684.655.12-.691 132.397-3.466-.57 3.502-131.947Z" opacity=".2"/><path fill="#4B3CFB" d="m79.927 462.96 6.293.246-3.454 134.519-7.676-1.499 4.837-133.266Z"/><path fill="#000" d="m79.927 462.96.265.012-1.841 133.89-3.261-.636 4.837-133.266Z" opacity=".2"/><path fill="#4B3CFB" d="m73.147 462.506 6.714.864-4.771 136.617-7.496-1.732 5.553-135.749Z"/><path fill="#000" d="m73.147 462.506.289.042-5.138 135.868-.704-.162 5.553-135.748Z" opacity=".2"/><path fill="#4B3CFB" d="M67.593 462.684h5.517l-5.517 136.331-6.533-1.955 6.533-134.376Z"/><path fill="#000" d="M67.593 462.684h.283l-5.98 134.628-.836-.252 6.533-134.376Z" opacity=".2"/><path fill="#05C168" d="m142.273 586.446 11.214-.336-1.703 1.577c-.457 2.602-2.797 5.57-4.373 5.57h-4.38c-2.744.03-3.832-1.229-3.526-3.597l.602-4.797c-1.263-.378-1.203-2.255-.451-3.148.938-1.122 2.406-1.361 3.477 0 .536.929-.295 3.022-.86 4.731Z"/><path fill="#fff" d="m142.273 586.446 11.214-.336-1.703 1.577c-.457 2.602-2.797 5.57-4.373 5.57h-4.38c-2.744.03-3.832-1.229-3.526-3.597l.602-4.797c-1.263-.378-1.203-2.255-.451-3.148.938-1.122 2.406-1.361 3.477 0 .536.929-.295 3.022-.86 4.731Z" opacity=".3"/><path fill="#4A4566" d="m136.347 583.328 2.942-.683a3.174 3.174 0 0 0 2.653 1.289c.157.312.06.63-.481.935h-3.646a4.27 4.27 0 0 1-1.468-1.541Z"/><path fill="#fff" d="m136.347 583.328 2.942-.683a3.174 3.174 0 0 0 2.653 1.289c.157.312.06.63-.481.935h-3.646a4.27 4.27 0 0 1-1.468-1.541Z" opacity=".2"/><path fill="#4A4566" d="M132.616 549.006h-8.753v2.14h8.753v-2.14Z"/><path fill="#fff" d="M132.616 549.006h-8.753v2.14h8.753v-2.14Z" opacity=".5"/><path fill="#0075FF" d="M122.527 553.546a3.478 3.478 0 0 0 3.484-3.472 3.478 3.478 0 0 0-3.484-3.471 3.477 3.477 0 0 0-3.483 3.471 3.477 3.477 0 0 0 3.483 3.472Z"/><path fill="#fff" d="M122.527 553.546a3.478 3.478 0 0 0 3.484-3.472 3.478 3.478 0 0 0-3.484-3.471 3.477 3.477 0 0 0-3.483 3.471 3.477 3.477 0 0 0 3.483 3.472Z" opacity=".3"/><path fill="#4A4566" d="M135.757 553.546a3.477 3.477 0 0 0 3.483-3.472 3.477 3.477 0 0 0-3.483-3.471 3.477 3.477 0 0 0-3.483 3.471 3.477 3.477 0 0 0 3.483 3.472Z"/><path fill="#fff" d="M135.757 553.546a3.477 3.477 0 0 0 3.483-3.472 3.477 3.477 0 0 0-3.483-3.471 3.477 3.477 0 0 0-3.483 3.471 3.477 3.477 0 0 0 3.483 3.472Z" opacity=".3"/><path fill="#0075FF" d="M129.007 498.045h-1.582l3.67 62.96c.084 1.259-.151 2.29-1.204 2.74-1.642.492-2.298-.204-2.406-1.577v-11.021h-1.474v11.849c0 2.488 1.805 3.16 4.296 2.77 1.804-.69 2.346-2.483 2.31-4.767l-3.61-62.954Z"/><path fill="#fff" d="M129.007 498.045h-1.582l3.67 62.96c.084 1.259-.151 2.29-1.204 2.74-1.642.492-2.298-.204-2.406-1.577v-11.021h-1.474v11.849c0 2.488 1.805 3.16 4.296 2.77 1.804-.69 2.346-2.483 2.31-4.767l-3.61-62.954Z" opacity=".7"/><path fill="#0075FF" d="M128.483 478.923c-.343-3.172-.192-6.314-5.595-8.299a5.252 5.252 0 0 0-3.282.334 5.223 5.223 0 0 0-2.427 2.227l-2.232 3.597 8.471 4.797 1.076-1.607a.449.449 0 0 1 .213-.169.448.448 0 0 1 .612.373l1.642 17.881h2.617l-1.095-19.134Z"/><path fill="#fff" d="M128.483 478.923c-.343-3.172-.192-6.314-5.595-8.299a5.252 5.252 0 0 0-3.282.334 5.223 5.223 0 0 0-2.427 2.227l-2.232 3.597 8.471 4.797 1.076-1.607a.449.449 0 0 1 .213-.169.448.448 0 0 1 .612.373l1.642 17.881h2.617l-1.095-19.134Z" opacity=".5"/><path fill="#0075FF" d="m113.732 478.275 9.156 4.923.891-1.451-9.073-5.127-.974 1.655Z"/><path fill="#fff" d="m113.732 478.275 9.156 4.923.891-1.451-9.073-5.127-.974 1.655Z" opacity=".4"/><g opacity=".22"><path fill="#A0A3BD" d="M298.34 400.876v10.303h2.385a14.375 14.375 0 0 1 0-3.265c.228-1.215 2.82-4.351 2.747-7.038h-5.132ZM317.433 400.876v10.303h2.39a14.49 14.49 0 0 1 0-3.265c.229-1.215 2.821-4.351 2.743-7.038h-5.133ZM336.128 400.876v10.303h-2.39c.124-1.085.124-2.18 0-3.265-.228-1.215-2.82-4.351-2.742-7.038h5.132ZM352.655 400.876v10.303h-2.385c.124-1.085.124-2.18 0-3.265-.228-1.215-2.82-4.351-2.747-7.038h5.132Z" opacity=".22"/><path fill="#A0A3BD" d="M353.91 350.022h-57.193v51.19h57.193v-51.19Z" opacity=".22"/><path fill="#DCDDEB" d="m338.503 350.022.425 51.19h14.977v-51.195l-15.402.005ZM336.009 353.788h-36.72v13.027h36.72v-13.027ZM336.009 369.409h-36.72v13.026h36.72v-13.026ZM336.009 385.029h-36.72v13.026h36.72v-13.026ZM313.364 335.311l-1.581 14.649h20.291l1.685-14.649h-20.395Z" opacity=".22"/><path fill="#F7F9FC" d="m314.199 336.366-1.54 12.814h18.311l1.483-12.814h-18.254Z" opacity=".22"/><path fill="#DCDDEB" d="m317.283 338.52-.949 8.505h11.556l.591-8.505h-11.198ZM333.033 341.619l4.189 8.397-5.148-.057 1.021-8.888" opacity=".22"/></g><g opacity=".4"><path fill="#A0A3BD" d="M340.129 230.492h-30.608v39.782l30.608.764v-40.546Z" opacity=".4"/><path fill="#fff" d="M338.112 231.909H311.33v36.077l26.782.899v-36.976Z" opacity=".4"/><path fill="#A0A3BD" d="m333.426 238.461-17.772-.671v25.215h17.772v-24.544Z" opacity=".4"/><path fill="#DCDDEB" d="m315.654 263.005 17.772-12.954-17.772-12.261v25.215Z" opacity=".4"/></g><g opacity=".4"><path fill="#A0A3BD" d="M349.887 284.709h-23.905v31.07l23.905.594v-31.664Z" opacity=".4"/><path fill="#fff" d="M348.316 285.815h-20.918v28.176l20.918.703v-28.879Z" opacity=".4"/><path fill="#A0A3BD" d="m344.651 290.935-13.878-.527V310.1h13.878v-19.165Z" opacity=".4"/><path fill="#DCDDEB" d="m330.773 310.1 13.878-10.117-13.878-9.575V310.1Z" opacity=".4"/></g><path fill="#E4E6F1" d="M375.688 181.884h-13.385v238.707h13.385V181.884ZM271.437 411.853h-13.385v229.783h13.385V411.853Z"/><path fill="#E4E6F1" d="M38.822 411.665v13.386h569.996v-13.386H38.823Z"/><path fill="#F5F5F5" d="M447.613 661.649c66.2 0 119.866-3.122 119.866-6.975 0-3.852-53.666-6.974-119.866-6.974s-119.866 3.122-119.866 6.974c0 3.853 53.666 6.975 119.866 6.975Z"/><g opacity=".5"><path fill="#A0A3BD" d="M470.816 325.881h-76.052v-79.988h76.052v79.988ZM478.965 243.304h-89.126a.757.757 0 0 0-.535.221.766.766 0 0 0-.219.535c0 .199.079.39.221.531.141.14.333.22.533.22h89.126a.755.755 0 0 0 .759-.751.757.757 0 0 0-.759-.756Z" opacity=".5"/><path fill="#DCDDEB" d="M474.045 325.881h-77.774v-79.988h77.774v79.988Z" opacity=".5"/><path fill="#A0A3BD" d="M470.816 328.87h-76.052v-2.988h76.052v2.988Z" opacity=".5"/><path fill="#DCDDEB" d="M479.421 328.87h-77.774v-2.988h77.774v2.988Z" opacity=".5"/><path fill="#F7F9FC" d="M400.792 321.382V250.4h68.737v70.982h-68.737Z" opacity=".5"/><path fill="#fff" d="m416.393 321.382 26.514-70.987h12.522l-26.519 70.987h-12.517ZM431.6 321.382l26.514-70.987h4.88l-26.514 70.987h-4.88Z" opacity=".5"/><path fill="#A0A3BD" d="M468.95 321.382V250.4h.573v70.982h-.573Z" opacity=".5"/><g opacity=".6"><path fill="#DCDDEB" d="M451.661 314.31h25.884l-1.471-72.453H450.19l1.471 72.453Z" opacity=".6"/><path fill="#A0A3BD" d="M441.579 314.31h20.164l-1.471-72.453h-20.164l1.471 72.453Z" opacity=".6"/><path fill="#DCDDEB" d="M425.778 314.31h25.883l-1.471-72.453h-25.883l1.471 72.453Z" opacity=".6"/><path fill="#A0A3BD" d="M415.695 314.31h20.164l-1.471-72.453-20.164-.005 1.471 72.458Z" opacity=".6"/><path fill="#DCDDEB" d="M399.894 314.31h25.883l-1.471-72.453-25.883-.005 1.471 72.458Z" opacity=".6"/></g></g><path fill="#DCDDEB" d="M499.835 314.751v-76.969h69.193v76.969h-69.193Z"/><path fill="#A0A3BD" d="M499.21 314.751v-76.969h.626v76.969h-.626Z"/><path fill="#EFF0F7" d="M563.898 309.638h-58.942v-66.752h58.942v66.752Z"/><path fill="#fff" d="M532.254 311.855h-16.601v-23.157h16.601v23.157ZM552.223 313.878h-16.596l-1.195-23.161h16.597l1.194 23.161ZM566.682 285.199h-16.596l-1.195-23.161h16.597l1.194 23.161ZM515.889 264.092l-12.766.558-.783-17.807 12.766-.557.783 17.806ZM566.681 256.939l-12.765.558-.783-17.806 12.765-.558.783 17.806ZM502.606 267.442l12.777-.169.237 17.822-12.777.169-.237-17.822ZM545.231 284.301l-27.061-.782 1.098-37.756 27.061.782-1.098 37.756Z"/><g opacity=".3"><path fill="#DCDDEB" d="M562.388 397.608v-70.701h28.451v70.701h-28.451Z" opacity=".3"/><path fill="#A0A3BD" d="M563.951 349.49v-20.812h25.33v20.812h-25.33ZM563.951 372.173v-20.812h25.33v20.812h-25.33ZM563.951 394.854v-20.811h25.33v20.811h-25.33Z" opacity=".3"/><path fill="#EFF0F7" d="M579.317 349.49v-20.812h9.963v20.812h-9.963ZM579.317 372.173v-20.812h9.963v20.812h-9.963ZM579.322 394.854v-20.811h9.964v20.811h-9.964Z" opacity=".3"/><path fill="#F7F9FC" d="M554.663 397.608v-70.701h7.724v70.701h-7.724Z" opacity=".3"/><path fill="#DCDDEB" d="M531.968 397.608v-70.701h28.451v70.701h-28.451Z" opacity=".3"/><path fill="#A0A3BD" d="M533.531 349.49v-20.812h25.33v20.812h-25.33ZM533.531 372.172v-20.811h25.33v20.811h-25.33ZM533.525 394.848v-20.812h25.33v20.812h-25.33Z" opacity=".3"/><path fill="#EFF0F7" d="M548.897 349.49v-20.812h9.964v20.812h-9.964ZM548.897 372.173v-20.812h9.964v20.812h-9.964ZM548.902 394.854v-20.811h9.964v20.811h-9.964Z" opacity=".3"/><path fill="#F7F9FC" d="M524.244 397.608v-70.701h7.724v70.701h-7.724Z" opacity=".3"/><path fill="#DCDDEB" d="M568.522 368.082c0 2.258 2.932 4.087 6.546 4.087 3.613 0 6.524-1.839 6.524-4.087h-13.07Z" opacity=".3"/><path fill="#DCDDEB" d="M568.523 365.026c0 2.258 2.932 4.087 6.545 4.087 3.614 0 6.54-1.829 6.54-4.087h-13.085Z" opacity=".3"/><path fill="#6E7191" d="M537.257 345.405c0 2.258 3.665 4.087 8.201 4.087 4.536 0 8.201-1.829 8.201-4.087h-16.402Z" opacity=".3"/><path fill="#6E7191" d="M537.257 342.344c0 2.257 3.665 4.086 8.201 4.086 4.536 0 8.201-1.834 8.201-4.086h-16.402Z" opacity=".3"/><path fill="#DCDDEB" d="M557.139 394.849h-20.568v-17.813h20.568v17.813Z" opacity=".3"/><path fill="#EFF0F7" d="M533.531 377.041h3.044v17.813h-3.044v-17.813Z" opacity=".3"/><path fill="#DCDDEB" d="M587.559 349.492H566.99v-17.813h20.569v17.813Z" opacity=".3"/><path fill="#EFF0F7" d="M563.95 331.678h3.045v17.813h-3.045v-17.813Z" opacity=".3"/></g><path fill="#F0F0F0" d="M420.873 357.202h56.672v4.143h-56.672v-4.143Z"/><path fill="#0075FF" d="M419.916 411.224h-1.872v-71.14h1.872v71.14ZM408.865 411.224h-1.871v-71.14h1.871v71.14Z"/><path fill="#000" d="M408.865 411.224h-1.871v-71.14h1.871v71.14Z" opacity=".2"/><path fill="#0075FF" d="M526.218 411.224h-1.872v-71.14h1.872v71.14Z"/><path fill="#000" d="M526.217 340.084h-1.872v47.8l1.872-4.174v-43.626Z" opacity=".2"/><path fill="#0075FF" d="M537.264 411.224h-1.872v-71.14h1.872v71.14Z"/><path fill="#0075FF" d="M537.263 381.699H418.04v-41.614h119.223v41.614ZM538.457 340.084H418.04v-3.039h120.417v3.039Z"/><path fill="#0075FF" d="M406.999 340.084h11.045v41.614h-11.045v-41.614Z"/><path fill="#000" d="M406.999 340.084h11.045v41.614h-11.045v-41.614Z" opacity=".2"/><path fill="#0075FF" d="M405.805 337.051h12.239v3.039h-12.239v-3.039Z"/><path fill="#000" d="M405.805 337.051h12.239v3.039h-12.239v-3.039ZM537.262 342.206H406.994v-2.115h130.268v2.115Z" opacity=".2"/><path fill="#4B3CFB" d="M462.697 328.882h44.309a3.257 3.257 0 0 0 2.211-.901 3.238 3.238 0 0 0 .998-2.164l1.169-25.665a2.9 2.9 0 0 0-1.77-2.832 2.91 2.91 0 0 0-1.157-.233h-44.31a3.26 3.26 0 0 0-2.207.904 3.235 3.235 0 0 0-.996 2.161l-1.174 25.665a2.899 2.899 0 0 0 1.769 2.835c.366.155.76.233 1.158.23Z"/><path fill="#4B3CFB" d="M463.291 328.882h44.31a3.259 3.259 0 0 0 2.211-.901 3.241 3.241 0 0 0 .997-2.164l1.169-25.665a2.896 2.896 0 0 0-1.769-2.832 2.915 2.915 0 0 0-1.158-.233h-44.309a3.264 3.264 0 0 0-2.208.904 3.244 3.244 0 0 0-.996 2.161l-1.173 25.665a2.896 2.896 0 0 0 1.768 2.835c.366.155.76.233 1.158.23Z"/><path fill="#fff" d="M463.291 328.882h44.31a3.259 3.259 0 0 0 2.211-.901 3.241 3.241 0 0 0 .997-2.164l1.169-25.665a2.896 2.896 0 0 0-1.769-2.832 2.915 2.915 0 0 0-1.158-.233h-44.309a3.264 3.264 0 0 0-2.208.904 3.244 3.244 0 0 0-.996 2.161l-1.173 25.665a2.896 2.896 0 0 0 1.768 2.835c.366.155.76.233 1.158.23Z" opacity=".2"/><path fill="#4B3CFB" d="M481.466 313.373h8.462v15.51h-8.462v-15.51Z"/><path fill="#4B3CFB" d="m490.195 311.718 3.736 25.323h-9.154l-3.736-25.323h9.154Zm-5.377 8.046.605 4.087a1.278 1.278 0 0 0 1.266 1.093h1.379a1.281 1.281 0 0 0 .971-.444 1.277 1.277 0 0 0 .3-1.022l-.605-4.087a1.278 1.278 0 0 0-1.266-1.093h-1.379a1.281 1.281 0 0 0-.971.444 1.276 1.276 0 0 0-.3 1.022Z"/><path fill="#fff" d="m490.195 311.718 3.736 25.323h-9.154l-3.736-25.323h9.154Zm-5.377 8.046.605 4.087a1.278 1.278 0 0 0 1.266 1.093h1.379a1.281 1.281 0 0 0 .971-.444 1.277 1.277 0 0 0 .3-1.022l-.605-4.087a1.278 1.278 0 0 0-1.266-1.093h-1.379a1.281 1.281 0 0 0-.971.444 1.276 1.276 0 0 0-.3 1.022Z" opacity=".2"/><path fill="#4B3CFB" d="M479.56 335.191h16.022l1.969 1.86h-22.25l4.259-1.86Z"/><path fill="#fff" d="M479.56 335.191h16.022l1.969 1.86h-22.25l4.259-1.86Z" opacity=".2"/><path fill="#11845B" d="M526.878 331.37c.902-.511.595-5.425.2-8.235-.482-3.397-1.917-9.409-6.479-12.74-2.173-1.589-4.249-2.937-4.612-4.649-.667 1.533-4.454 12.383.948 17.262 4.572 4.122 7.96 3.203 9.943 8.362Z"/><path fill="#05C168" d="M525.679 328.58c-1.051-.587.154-6.314 1.117-9.573 1.164-3.943 3.962-10.911 10.251-14.722 2.983-1.814 5.818-3.346 6.571-5.344.584 1.773 2.46 15.734-5.125 21.333-6.443 4.736-9.457 2.34-12.814 8.306Z"/><path fill="#fff" d="M526.192 327.304a.156.156 0 0 0 .086-.029.15.15 0 0 0 .052-.074 88.538 88.538 0 0 1 5.884-14.002c3.844-7.535 9.016-8.761 9.067-8.771a.134.134 0 0 0 .05-.023.118.118 0 0 0 .037-.04.131.131 0 0 0 .016-.106.141.141 0 0 0-.164-.107c-.057 0-5.346 1.257-9.257 8.925a88.517 88.517 0 0 0-5.879 14.053.145.145 0 0 0 .098.174h.01Z"/><path fill="#fff" d="M542.542 309.373a.153.153 0 0 0 .052-.008.148.148 0 0 0 .045-.028.14.14 0 0 0 0-.199 6.329 6.329 0 0 0-7.247-1.048.143.143 0 0 0-.044.032.147.147 0 0 0-.027.047.122.122 0 0 0-.006.054.13.13 0 0 0 .015.051.136.136 0 0 0 .078.074.139.139 0 0 0 .107-.007 6.04 6.04 0 0 1 6.924 1.021.159.159 0 0 0 .103.011ZM537.124 318.695a.126.126 0 0 0 .072 0 .139.139 0 0 0 .065-.083.124.124 0 0 0 .003-.054.138.138 0 0 0-.017-.052c0-.046-2.563-4.26-6.32-3.228a.15.15 0 0 0-.084.067.143.143 0 0 0-.013.107.145.145 0 0 0 .174.097c3.542-.976 5.976 3.065 5.997 3.1a.15.15 0 0 0 .056.038.138.138 0 0 0 .067.008ZM533.059 311.534c.031 0 .061-.01.086-.029a.145.145 0 0 0 .053-.073c.13-.484.083-.998-.133-1.45a1.073 1.073 0 0 0-.739-.486.14.14 0 0 0-.054-.002.127.127 0 0 0-.051.02.121.121 0 0 0-.039.039.128.128 0 0 0-.02.05.14.14 0 0 0 .02.107.14.14 0 0 0 .088.062.764.764 0 0 1 .554.358c.173.387.209.821.102 1.231a.134.134 0 0 0 .098.168l.035.005Z"/><path fill="#0075FF" d="M518.796 325.965h12.972l-1.194 11.07H519.99l-1.194-11.07Z"/><path fill="#fff" d="M518.796 325.965h12.972l-1.194 11.07H519.99l-1.194-11.07Z" opacity=".7"/><path fill="#6E7191" d="M415.994 326.992v-.69a.556.556 0 0 1 .559-.557h6.894a.555.555 0 0 1 .558.557v10.728h-8.011v-1.247c-1.742 0-3.111-1.931-3.111-4.398 0-2.468 1.363-4.393 3.111-4.393Zm0 7.662v-6.528c-1.076 0-1.988 1.502-1.988 3.279 0 1.778.907 3.28 1.988 3.28v-.031Z"/><path fill="#fff" d="M415.994 326.992v-.69a.556.556 0 0 1 .559-.557h6.894a.555.555 0 0 1 .558.557v10.728h-8.011v-1.247c-1.742 0-3.111-1.931-3.111-4.398 0-2.468 1.363-4.393 3.111-4.393Zm0 7.662v-6.528c-1.076 0-1.988 1.502-1.988 3.279 0 1.778.907 3.28 1.988 3.28v-.031Z" opacity=".2"/><path fill="#000" d="M415.988 328.126h.913l-.913 2.519v-2.519ZM415.988 335.803h.913l-.913.42v-.42Z" opacity=".3"/><path fill="#DCDDEB" d="M439.851 620.255h-57.548v.131h57.548v-.131ZM482.12 625.64h-3.313v.13h3.313v-.13ZM495.803 623.437h-36.469v.13h36.469v-.13Z"/><g opacity=".8"><path fill="#A0A3BD" d="M595.66 467.382h-81.701v149.321h81.701V467.382Z" opacity=".8"/><path fill="#F7F9FC" d="M586.928 467.382h-81.7v144.323h81.7V467.382Z" opacity=".8"/><path fill="#EFF0F7" d="M556.604 476.846h-16.551l-23.498 134.859h16.551l23.498-134.859ZM578.913 476.846h-16.552l-23.497 134.859h16.556l23.493-134.859Z" opacity=".5"/><path fill="#DCDDEB" d="M586.928 467.382h-81.7v12.829h81.7v-12.829ZM554.866 527.395h-2.748v21.49h2.748v-21.49Z" opacity=".8"/><path fill="#A0A3BD" d="M546.601 467.382h-1.052v144.323h1.052V467.382Z" opacity=".8"/><path fill="#DCDDEB" d="M540.031 527.395h-2.748v21.49h2.748v-21.49Z" opacity=".8"/></g><g opacity=".5"><path fill="#6E7191" d="M480.714 618.435h18.112v-71.042h-18.112v71.042Z" opacity=".5"/><path fill="#A0A3BD" d="M479.513 547.393h19.313v-2.794h-19.313v2.794Z" opacity=".5"/><path fill="#6E7191" d="M479.513 544.6H361.648v2.795h117.865V544.6Z" opacity=".5"/><path fill="#EFF0F7" d="M480.713 547.393H363.149v71.042h117.564v-71.042Z" opacity=".5"/><path fill="#A0A3BD" d="M421.652 618.435h.564v-71.042h-.564v71.042Z" opacity=".5"/><path fill="#EFF0F7" d="M439.89 523.79h-6.604a.867.867 0 0 1-.864-.861.868.868 0 0 1 .864-.868h6.604a.866.866 0 0 1 .87.868.868.868 0 0 1-.87.861Z" opacity=".5"/><path fill="#DCDDEB" d="M463.477 517.476h-27.021c-.607 0-1.099.49-1.099 1.095v24.933c0 .605.492 1.095 1.099 1.095h27.021c.607 0 1.099-.49 1.099-1.095v-24.933c0-.605-.492-1.095-1.099-1.095Z" opacity=".5"/><path fill="#EFF0F7" d="m441.247 515.245-7.204 1.454a1.029 1.029 0 0 0 .204 2.04h31.41a1.035 1.035 0 0 0 1.04-.927 1.025 1.025 0 0 0-.836-1.113l-7.204-1.454a44.06 44.06 0 0 0-17.41 0ZM466.707 523.79h-6.603a.872.872 0 0 1-.865-.861.868.868 0 0 1 .865-.868h6.603a.868.868 0 0 1 .865.868.866.866 0 0 1-.865.861ZM409.507 528.725h-5.037a.66.66 0 0 1-.66-.658.66.66 0 0 1 .66-.658h5.037a.66.66 0 0 1 .66.658.66.66 0 0 1-.66.658Z" opacity=".5"/><path fill="#DCDDEB" d="M427.493 523.91H406.89a.84.84 0 0 0-.841.837v19.016a.84.84 0 0 0 .841.837h20.603a.839.839 0 0 0 .841-.837v-19.016a.839.839 0 0 0-.841-.837Z" opacity=".5"/><path fill="#EFF0F7" d="m410.54 522.21-5.488 1.107a.786.786 0 0 0-.647.85.785.785 0 0 0 .804.705h23.959a.788.788 0 0 0 .803-.705.782.782 0 0 0-.647-.85l-5.487-1.107a33.592 33.592 0 0 0-13.297 0ZM429.961 528.725h-5.037a.664.664 0 0 1-.61-.406.645.645 0 0 1 0-.504.64.64 0 0 1 .143-.213.643.643 0 0 1 .467-.193h5.037a.66.66 0 0 1 .66.658.658.658 0 0 1-.66.658Z" opacity=".5"/></g><path fill="#A0A3BD" d="M363.683 474.859h-59.27v3.555h59.27v-3.555Z"/><path fill="#EFF0F7" d="M363.683 454.734h-23.147l-36.123 20.126h59.27v-20.126Z"/><path fill="#DCDDEB" d="M363.682 478.415h19.546v-3.555h-19.546v3.555ZM363.683 454.734h6.272l13.274 20.126h-19.546v-20.126Z"/><path fill="#EFF0F7" d="M354.706 424.637h8.977v30.096h-23.146v-15.974c0-3.746 1.493-7.338 4.15-9.986a14.194 14.194 0 0 1 10.019-4.136Z"/><path fill="#DCDDEB" d="M363.687 454.734h6.272v-30.097h-6.272v30.097Z"/><path fill="#263238" d="M378.15 533.448h-46.86v1.391h46.86v-1.391Z"/><path fill="#0075FF" d="M413.181 533.949H287.572v2.788h125.609v-2.788Z"/><path fill="#263238" d="M413.181 533.949h-12.376v2.788h12.376v-2.788Z" opacity=".3"/><path fill="#0075FF" d="M411.983 536.743H288.771v98.259h123.212v-98.259Z"/><path fill="#fff" d="M411.983 536.743H288.771v98.259h123.212v-98.259Z" opacity=".8"/><path fill="#0075FF" d="M411.982 536.743h-9.863v98.259h9.863v-98.259Z" opacity=".3"/><g opacity=".3"><path fill="#0075FF" d="M316.321 634.996h.431v-98.259h-.431v98.259Z" opacity=".3"/><path fill="#fff" d="M316.753 634.996h.432v-98.259h-.432v98.259Z" opacity=".3"/><path fill="#0075FF" d="M402.119 626.577v.432h-84.94l-.433-.432h85.373Z" opacity=".3"/><path fill="#fff" d="M317.179 627.002v.432h84.94v-.432h-84.94Z" opacity=".3"/></g><path fill="#0075FF" d="M411.983 536.743H288.771v1.32l123.212 1.326v-2.646Z" opacity=".3"/><path fill="#263238" d="M291.217 495.374a1.923 1.923 0 0 1 2.699 0l13.618 13.578a1.903 1.903 0 0 1 0 2.69c-.739.736-1.243 0-1.987-.715l-11.462-11.424-2.868-1.44a1.901 1.901 0 0 1 0-2.689Z"/><path fill="#fff" d="M295.81 499.66a.42.42 0 1 0 0-.84.421.421 0 1 0 0 .84ZM301.294 504.113a.421.421 0 1 1-.596 0 .417.417 0 0 1 .298-.123.433.433 0 0 1 .298.123Z"/><path fill="#4B3CFB" d="m319.696 521.588-10.4 12.04a38.424 38.424 0 0 1-18.348-18.232l12.081-10.393a.831.831 0 0 1 1.133 0l15.556 15.504a.822.822 0 0 1-.022 1.081Z"/><path fill="#fff" d="m319.696 521.588-10.4 12.04a38.424 38.424 0 0 1-18.348-18.232l12.081-10.393a.831.831 0 0 1 1.133 0l15.556 15.504a.822.822 0 0 1-.022 1.081Z" opacity=".8"/><path fill="#4B3CFB" d="m294.868 512.003-3.913 3.393a38.436 38.436 0 0 0 18.315 18.254l3.377-3.901a38.375 38.375 0 0 1-17.779-17.746Z" opacity=".4"/><g fill="#fff" opacity=".6"><path d="m305.136 505.929-6.651 20.109a36.387 36.387 0 0 0 3.7 3.273l6.569-19.782-3.618-3.6ZM310.773 511.543l-6.388 19.307a38.7 38.7 0 0 0 1.976 1.233l6.208-18.751-1.796-1.789Z" opacity=".6"/></g><path fill="#0075FF" d="M324.58 531.718h-30.149a2.232 2.232 0 0 0-2.239 2.226h34.621a2.238 2.238 0 0 0-2.233-2.226Z"/><path fill="#fff" d="M324.58 531.718h-30.149a2.232 2.232 0 0 0-2.239 2.226h34.621a2.238 2.238 0 0 0-2.233-2.226Z" opacity=".5"/><path fill="#fff" d="M314.514 531.718h-20.083a2.232 2.232 0 0 0-2.239 2.226h24.555a2.238 2.238 0 0 0-2.233-2.226Z" opacity=".5"/><path fill="#11845B" d="m405.797 515.063-.919-.905a2.323 2.323 0 0 1-.701-1.637v-6.307a.214.214 0 0 0 .177-.049.208.208 0 0 0 .056-.075.203.203 0 0 0 .021-.091.203.203 0 0 0-.021-.091.208.208 0 0 0-.056-.075.23.23 0 0 0-.177-.05h-2.365a.228.228 0 0 0-.132.074.224.224 0 0 0-.052.142c0 .052.019.102.052.142a.221.221 0 0 0 .132.073v6.285a2.298 2.298 0 0 1-.695 1.637l-.919.905a2.322 2.322 0 0 0-.695 1.637v16.912a.335.335 0 0 0 .095.239.36.36 0 0 0 .109.073.321.321 0 0 0 .13.026h6.333a.32.32 0 0 0 .129-.026.36.36 0 0 0 .109-.073.335.335 0 0 0 .095-.239v-16.912a2.344 2.344 0 0 0-.706-1.615Z" opacity=".4"/><path fill="#11845B" d="M400.067 526.432v6.421a.547.547 0 0 0 .547.546h4.757a.542.542 0 0 0 .547-.546v-6.716a.54.54 0 0 0-.427-.545 4.173 4.173 0 0 0-2.501.12 3.995 3.995 0 0 1-2.277.164.54.54 0 0 0-.457.123.554.554 0 0 0-.189.433Z" opacity=".4"/><path fill="#fff" d="M404.709 519.531h-3.432a.453.453 0 0 0-.454.453v6.498c0 .25.203.452.454.452h3.432a.453.453 0 0 0 .454-.452v-6.498a.453.453 0 0 0-.454-.453Z"/><path fill="#263238" d="M392.847 526.852c.071-.497-.739-.846-1.287-.819a3.021 3.021 0 0 1-1.286-.196 4.66 4.66 0 0 0 1.489.66c.374.074.738.193 1.084.355Z"/><path fill="#263238" d="M392.847 526.851c.28-.42-.306-1.091-.81-1.288a2.911 2.911 0 0 1-1.095-.731c.276.474.636.893 1.062 1.239.312.224.595.486.843.78Z"/><path fill="#263238" d="M392.902 526.851c-.115-.491.668-.905 1.209-.916a3.039 3.039 0 0 0 1.27-.306 4.542 4.542 0 0 1-1.428.781c-.367.104-.72.253-1.051.441Z"/><path fill="#263238" d="M392.902 526.852c-.214-.453.46-1.026.991-1.152.426-.094.826-.28 1.172-.545a4.67 4.67 0 0 1-1.232 1.091 4.539 4.539 0 0 0-.931.606Z"/><path fill="#4B3CFB" d="M397.549 529.062c-.06-3.426-3.109-3.077-4.735-2.352-1.538-.883-5.337-.431-5.151 2.87.121 2.144 1.325 3.917 3.323 4.364.427.099 1.368-.25 1.828-.25.46 0 1.046.283 1.396.24 2.135-.284 3.383-2.635 3.339-4.872Z"/><path fill="#0075FF" d="M517.884 545.03h-75.758v88.627h75.758V545.03Z"/><path fill="#133578" d="M514.88 544.041h-69.754v.99h69.754v-.99Z"/><path fill="#133578" d="M517.89 545.03h-7.718v88.627h7.718V545.03Z" opacity=".6"/><path fill="#133578" d="M442.126 560.41h68.046v-.961h-68.046v.961Z" opacity=".2"/><path fill="#133578" d="M465.099 554.579h22.104v-4.682h-22.104v4.682Z" opacity=".3"/><path fill="#133578" d="M442.126 626.349h68.046v-.96h-68.046v.96Z" opacity=".2"/><path fill="#133578" d="M446.754 619.039h58.79c.458 0 .829-.37.829-.826v-49.501a.827.827 0 0 0-.829-.825h-58.79a.827.827 0 0 0-.829.825v49.501c0 .456.371.826.829.826Z" opacity=".7"/><path fill="#133578" d="M458.26 564.614h35.783a.818.818 0 0 0 .819-.816v-.03a.817.817 0 0 0-.819-.816H458.26a.817.817 0 0 0-.818.816v.03c0 .45.366.816.818.816Z" opacity=".2"/><path fill="#407BFF" d="M502.574 611.158v-35.385c0-2.264-1.842-4.1-4.114-4.1h-44.628a4.106 4.106 0 0 0-4.113 4.1v35.385c0 2.265 1.841 4.1 4.113 4.1h44.628a4.107 4.107 0 0 0 4.114-4.1Z" opacity=".2"/><path fill="#407BFF" d="M502.574 593.811v-.687h-52.855v.687h52.855ZM502.574 605.308v-.686h-52.855v.686h52.855ZM502.574 582.315v-.687h-52.855v.687h52.855Z" opacity=".2"/><path fill="#133578" d="M451.941 633.659h-5.97v.726h5.97v-.726ZM506.328 633.659h-5.971v.726h5.971v-.726ZM514.041 633.659h-5.97v.726h5.97v-.726ZM459.658 633.659h-5.97v.726h5.97v-.726Z"/><path fill="#133578" d="M461.251 552.241a2.341 2.341 0 0 1-1.453 2.165 2.357 2.357 0 0 1-2.563-.51 2.342 2.342 0 0 1-.506-2.556 2.348 2.348 0 0 1 2.176-1.443 2.352 2.352 0 0 1 2.169 1.447c.118.285.178.589.177.897ZM453.892 552.241a2.343 2.343 0 0 1-1.451 2.165 2.357 2.357 0 0 1-2.563-.508 2.333 2.333 0 0 1-.509-2.554 2.348 2.348 0 0 1 2.172-1.447 2.35 2.35 0 0 1 2.174 1.446c.118.285.178.59.177.898ZM503.103 552.241a2.341 2.341 0 0 1-1.453 2.165 2.359 2.359 0 0 1-2.563-.51 2.342 2.342 0 0 1-.506-2.556 2.348 2.348 0 0 1 2.176-1.443 2.355 2.355 0 0 1 1.662.685 2.336 2.336 0 0 1 .684 1.659ZM495.746 552.241a2.351 2.351 0 0 1-2.81 2.298 2.346 2.346 0 0 1-1.848-1.841 2.341 2.341 0 0 1 1-2.406 2.36 2.36 0 0 1 2.97.29 2.33 2.33 0 0 1 .688 1.659Z" opacity=".7"/><path fill="#EFF0F7" d="M627.103 635.235H20.328V680h606.775v-44.765Z"/><path fill="#D2D3E3" d="M211.978 13.525h-53.141v95.458h53.141V13.525Z"/><path fill="#C9684E" d="M211.978 90.257h-53.141v9.499h53.141v-9.5Z"/><path fill="#D37258" d="M185.33 90.257h-26.493v9.499h26.493v-9.5Z"/><path fill="#AE4D43" d="M211.978 99.848h-53.141v9.602h53.141v-9.602Z"/><path fill="#BC614B" d="M211.978 99.848h-53.141v9.602h53.141v-9.602Z"/><path fill="#C9684E" d="M185.33 99.848h-26.493v9.602h26.493v-9.602Z"/><path fill="#BC614B" d="M198.68 90.256h-26.493v9.603h26.493v-9.603Z"/><path fill="#D37258" d="M211.978 71.073h-53.141v9.498h53.141v-9.498Z"/><path fill="#D37258" d="M185.33 71.073h-26.493v9.498h26.493v-9.498Z"/><path fill="#BC614B" d="M211.978 80.665h-53.141v9.602h53.141v-9.602Z"/><path fill="#C9684E" d="M185.33 80.665h-26.493v9.602h26.493v-9.602Z"/><path fill="#C9684E" d="M198.68 71.074h-26.493v9.602h26.493v-9.602ZM211.978 51.89h-53.141v9.497h53.141V51.89Z"/><path fill="#D37258" d="M211.976 51.89h-26.491v9.497h26.491V51.89Z"/><path fill="#C9684E" d="M211.978 61.483h-53.141v9.602h53.141v-9.602Z"/><path fill="#C9684E" d="M211.976 61.483h-26.491v9.602h26.491v-9.602Z"/><path fill="#BC614B" d="M198.627 51.89h-26.493v9.601h26.493V51.89Z"/><path fill="#DCDDEB" d="M211.978 32.708h-53.141v9.497h53.141v-9.497Z"/><path fill="#D2D3E3" d="M185.33 32.708h-26.493v9.497h26.493v-9.497Z"/><path fill="#C1C3DB" d="M211.978 42.3h-53.141v9.6h53.141v-9.6Z"/><path fill="#DCDDEB" d="M185.33 42.3h-26.493v9.6h26.493v-9.6Z"/><path fill="#DCDDEB" d="M198.68 32.708h-26.493v9.6h26.493v-9.6Z"/><path fill="#D2D3E3" d="M211.976 13.525h-26.491v9.498h26.491v-9.498Z"/><path fill="#C1C3DB" d="M211.978 23.116h-53.141v9.602h53.141v-9.602Z"/><path fill="#DCDDEB" d="M211.976 23.116h-26.491v9.602h26.491v-9.602Z"/><path fill="#DCDDEB" d="M198.627 13.525h-26.493v9.602h26.493v-9.602Z"/><path fill="#BDBED0" d="M218.531 0h-66.248v17.983h66.248V0Z"/><path fill="#BDBED0" d="M218.531 1.292h-64.905v16.691h64.905V1.292Z"/><path fill="#9FA1BE" d="M217.202 1.292h-63.575v15.427h63.575V1.292Z"/><path fill="#DCDDEB" d="M608.783 103.433h-17.711l-17.527-52.386H66.455l-17.55 52.445H31.233L0 195.24h640l-31.217-91.807Z"/><path fill="#DCDDEB" d="M608.783 103.433h-17.711l-15.386-45.98-511.439.186-15.342 45.853H31.233L1.928 189.591l636.188.091-29.333-86.249Z"/><path fill="#D0D2E3" d="M28.598 181.49c1.177-.828 1.925-5.41 1.925-5.41H11.491s-2.751 4.238-1.926 5.41c2.745 3.874 15.147 2.737 19.033 0ZM57.146 181.49c1.177-.828 1.926-5.41 1.926-5.41H40.039s-2.75 4.238-1.925 5.41c2.745 3.874 15.146 2.737 19.032 0ZM85.695 181.49c1.176-.828 1.925-5.41 1.925-5.41H68.588s-2.751 4.238-1.926 5.41c2.745 3.874 15.146 2.737 19.032 0ZM114.243 181.49c1.176-.828 1.926-5.41 1.926-5.41H97.137s-2.751 4.238-1.926 5.41c2.745 3.874 15.149 2.737 19.032 0ZM142.792 181.49c1.176-.828 1.926-5.41 1.926-5.41h-19.032s-2.752 4.238-1.926 5.41c2.747 3.874 15.146 2.737 19.032 0ZM171.34 181.49c1.176-.828 1.926-5.41 1.926-5.41h-19.033s-2.751 4.238-1.925 5.41c2.745 3.874 15.146 2.737 19.032 0ZM199.889 181.49c1.176-.828 1.926-5.41 1.926-5.41h-19.033s-2.751 4.238-1.926 5.41c2.746 3.874 15.144 2.737 19.033 0ZM228.437 181.49c1.176-.828 1.926-5.41 1.926-5.41h-19.032s-2.751 4.238-1.926 5.41c2.743 3.874 15.146 2.737 19.032 0ZM256.986 181.49c1.175-.828 1.925-5.41 1.925-5.41h-19.032s-2.751 4.238-1.926 5.41c2.745 3.874 15.146 2.737 19.033 0ZM285.534 181.49c1.176-.828 1.926-5.41 1.926-5.41h-19.032s-2.751 4.238-1.926 5.41c2.745 3.874 15.146 2.737 19.032 0ZM314.083 181.49c1.176-.828 1.926-5.41 1.926-5.41h-19.033s-2.757 4.238-1.925 5.41c2.745 3.874 15.145 2.737 19.032 0ZM342.631 181.49c1.176-.828 1.926-5.41 1.926-5.41h-19.033s-2.751 4.238-1.925 5.41c2.745 3.874 15.145 2.737 19.032 0ZM371.18 181.49c1.176-.828 1.924-5.41 1.924-5.41h-19.032s-2.751 4.238-1.924 5.41c2.745 3.874 15.145 2.737 19.032 0ZM399.727 181.49c1.177-.828 1.926-5.41 1.926-5.41H382.62s-2.751 4.238-1.924 5.41c2.745 3.874 15.145 2.737 19.031 0ZM428.276 181.49c1.177-.828 1.925-5.41 1.925-5.41h-19.032s-2.751 4.238-1.926 5.41c2.745 3.874 15.147 2.737 19.033 0ZM456.825 181.49c1.177-.828 1.925-5.41 1.925-5.41h-19.032s-2.751 4.238-1.926 5.41c2.745 3.874 15.147 2.737 19.033 0ZM485.374 181.49c1.177-.828 1.925-5.41 1.925-5.41h-19.032s-2.751 4.238-1.926 5.41c2.745 3.874 15.146 2.737 19.033 0ZM513.924 181.49c1.176-.828 1.926-5.41 1.926-5.41h-19.03s-2.751 4.238-1.926 5.41c2.74 3.874 15.141 2.737 19.03 0ZM542.47 181.49c1.176-.828 1.926-5.41 1.926-5.41h-19.032s-2.751 4.238-1.926 5.41c2.745 3.874 15.146 2.737 19.032 0Z"/><path fill="#D0D2E3" d="M513.924 181.49c1.176-.828 1.926-5.41 1.926-5.41h-19.03s-2.751 4.238-1.926 5.41c2.74 3.874 15.141 2.737 19.03 0ZM542.47 181.49c1.176-.828 1.926-5.41 1.926-5.41h-19.032s-2.751 4.238-1.926 5.41c2.745 3.874 15.146 2.737 19.032 0ZM571.019 181.49c1.176-.828 1.926-5.41 1.926-5.41h-19.032s-2.751 4.238-1.926 5.41c2.745 3.874 15.145 2.737 19.032 0ZM599.565 181.49c1.175-.828 1.924-5.41 1.924-5.41H582.46s-2.751 4.238-1.925 5.41c2.746 3.874 15.146 2.737 19.03 0ZM628.117 181.49c1.176-.828 1.924-5.41 1.924-5.41h-19.032s-2.751 4.238-1.925 5.41c2.746 3.874 15.146 2.737 19.033 0ZM42.25 163.348c1.177-.835 1.925-5.41 1.925-5.41H25.143s-2.75 4.238-1.926 5.41c2.745 3.873 15.147 2.736 19.033 0ZM70.798 163.348c1.177-.835 1.926-5.41 1.926-5.41H53.69s-2.75 4.238-1.925 5.41c2.745 3.873 15.146 2.736 19.032 0ZM99.346 163.348c1.177-.835 1.926-5.41 1.926-5.41H82.24s-2.751 4.238-1.926 5.41c2.745 3.873 15.146 2.736 19.032 0ZM127.895 163.348c1.176-.835 1.926-5.41 1.926-5.41h-19.032s-2.751 4.238-1.926 5.41c2.745 3.873 15.146 2.736 19.032 0ZM156.444 163.348c1.176-.835 1.926-5.41 1.926-5.41h-19.032s-2.751 4.238-1.926 5.41c2.745 3.873 15.146 2.736 19.032 0ZM184.996 163.348c1.176-.835 1.926-5.41 1.926-5.41h-19.03s-2.751 4.238-1.926 5.41c2.739 3.873 15.14 2.736 19.03 0ZM213.541 163.348c1.176-.835 1.926-5.41 1.926-5.41h-19.033s-2.751 4.238-1.925 5.41c2.745 3.873 15.146 2.736 19.032 0ZM242.089 163.348c1.176-.835 1.926-5.41 1.926-5.41h-19.032s-2.751 4.238-1.926 5.41c2.745 3.873 15.146 2.736 19.032 0ZM270.637 163.348c1.175-.835 1.925-5.41 1.925-5.41h-19.03s-2.751 4.238-1.925 5.41c2.744 3.873 15.145 2.736 19.03 0ZM299.187 163.348c1.175-.835 1.925-5.41 1.925-5.41H282.08s-2.751 4.238-1.926 5.41c2.745 3.873 15.145 2.736 19.033 0ZM327.735 163.348c1.176-.835 1.926-5.41 1.926-5.41h-19.032s-2.757 4.238-1.926 5.41c2.745 3.873 15.145 2.736 19.032 0ZM356.277 163.348c1.176-.835 1.925-5.41 1.925-5.41h-19.029s-2.751 4.238-1.926 5.41c2.749 3.873 15.149 2.736 19.03 0ZM384.831 163.348c1.177-.835 1.926-5.41 1.926-5.41h-19.033s-2.751 4.238-1.924 5.41c2.745 3.873 15.145 2.736 19.031 0ZM413.379 163.348c1.177-.835 1.926-5.41 1.926-5.41h-19.032s-2.751 4.238-1.926 5.41c2.745 3.873 15.146 2.736 19.032 0ZM441.928 163.348c1.177-.835 1.926-5.41 1.926-5.41h-19.033s-2.751 4.238-1.925 5.41c2.745 3.873 15.146 2.736 19.032 0ZM470.476 163.348c1.177-.835 1.926-5.41 1.926-5.41H453.37s-2.751 4.238-1.926 5.41c2.745 3.873 15.146 2.736 19.032 0ZM499.026 163.348c1.177-.835 1.925-5.41 1.925-5.41h-19.032s-2.751 4.238-1.926 5.41c2.745 3.873 15.152 2.736 19.033 0ZM527.574 163.348c1.175-.835 1.925-5.41 1.925-5.41h-19.032s-2.751 4.238-1.926 5.41c2.751 3.873 15.146 2.736 19.033 0ZM556.122 163.348c1.176-.835 1.926-5.41 1.926-5.41h-19.032s-2.751 4.238-1.926 5.41c2.745 3.873 15.146 2.736 19.032 0Z"/><path fill="#D0D2E3" d="M527.574 163.348c1.175-.835 1.925-5.41 1.925-5.41h-19.032s-2.751 4.238-1.926 5.41c2.751 3.873 15.146 2.736 19.033 0ZM556.122 163.348c1.176-.835 1.926-5.41 1.926-5.41h-19.032s-2.751 4.238-1.926 5.41c2.745 3.873 15.146 2.736 19.032 0ZM584.671 163.348c1.176-.835 1.926-5.41 1.926-5.41h-19.032s-2.751 4.238-1.926 5.41c2.745 3.873 15.146 2.736 19.032 0ZM613.221 163.348c1.175-.835 1.924-5.41 1.924-5.41h-19.032s-2.751 4.238-1.925 5.41c2.745 3.873 15.145 2.736 19.033 0ZM56.813 145.205c1.177-.827 1.926-5.41 1.926-5.41H39.707s-2.752 4.238-1.926 5.41c2.745 3.873 15.146 2.736 19.032 0ZM85.362 145.205c1.175-.827 1.925-5.41 1.925-5.41h-19.03s-2.75 4.238-1.925 5.41c2.742 3.873 15.143 2.736 19.03 0ZM113.91 145.205c1.176-.827 1.926-5.41 1.926-5.41H96.803s-2.75 4.238-1.925 5.41c2.745 3.873 15.146 2.736 19.032 0ZM142.459 145.205c1.175-.827 1.925-5.41 1.925-5.41h-19.032s-2.751 4.238-1.926 5.41c2.745 3.873 15.147 2.736 19.033 0ZM171.002 145.205c1.176-.827 1.926-5.41 1.926-5.41h-19.03s-2.751 4.238-1.926 5.41c2.748 3.873 15.149 2.736 19.03 0ZM199.556 145.205c1.176-.827 1.926-5.41 1.926-5.41h-19.033s-2.751 4.238-1.925 5.41c2.745 3.873 15.146 2.736 19.032 0ZM228.105 145.205c1.175-.827 1.925-5.41 1.925-5.41h-19.032s-2.757 4.238-1.926 5.41c2.745 3.873 15.146 2.736 19.033 0ZM256.653 145.205c1.175-.827 1.925-5.41 1.925-5.41h-19.032s-2.751 4.238-1.926 5.41c2.745 3.873 15.146 2.736 19.033 0ZM285.201 145.205c1.176-.827 1.926-5.41 1.926-5.41h-19.033s-2.751 4.238-1.925 5.41c2.745 3.873 15.145 2.736 19.032 0ZM313.75 145.205c1.176-.827 1.925-5.41 1.925-5.41h-19.031s-2.751 4.238-1.926 5.41c2.745 3.873 15.145 2.736 19.032 0ZM342.299 145.205c1.175-.827 1.924-5.41 1.924-5.41h-19.032s-2.751 4.238-1.925 5.41c2.745 3.873 15.145 2.736 19.033 0ZM370.846 145.205c1.177-.827 1.925-5.41 1.925-5.41h-19.032s-2.751 4.238-1.926 5.41c2.745 3.873 15.147 2.736 19.033 0ZM399.395 145.205c1.177-.827 1.925-5.41 1.925-5.41h-19.032s-2.751 4.238-1.926 5.41c2.745 3.873 15.149 2.736 19.033 0ZM427.943 145.205c1.177-.827 1.926-5.41 1.926-5.41h-19.033s-2.751 4.238-1.925 5.41c2.747 3.873 15.146 2.736 19.032 0ZM456.491 145.205c1.177-.827 1.926-5.41 1.926-5.41h-19.032s-2.751 4.238-1.926 5.41c2.745 3.873 15.146 2.736 19.032 0ZM485.04 145.205c1.175-.827 1.925-5.41 1.925-5.41h-19.032s-2.751 4.238-1.926 5.41c2.745 3.873 15.144 2.736 19.033 0ZM513.588 145.205c1.176-.827 1.926-5.41 1.926-5.41h-19.033s-2.751 4.238-1.925 5.41c2.742 3.873 15.146 2.736 19.032 0ZM542.137 145.205c1.176-.827 1.926-5.41 1.926-5.41h-19.032s-2.751 4.238-1.926 5.41c2.745 3.873 15.146 2.736 19.032 0ZM570.686 145.205c1.176-.827 1.926-5.41 1.926-5.41h-19.033s-2.751 4.238-1.926 5.41c2.746 3.873 15.147 2.736 19.033 0Z"/><path fill="#D0D2E3" d="M542.137 145.205c1.176-.827 1.926-5.41 1.926-5.41h-19.032s-2.751 4.238-1.926 5.41c2.745 3.873 15.146 2.736 19.032 0ZM570.686 145.205c1.176-.827 1.926-5.41 1.926-5.41h-19.033s-2.751 4.238-1.926 5.41c2.746 3.873 15.147 2.736 19.033 0ZM599.234 145.205c1.177-.827 1.926-5.41 1.926-5.41h-19.033s-2.751 4.238-1.924 5.41c2.745 3.873 15.145 2.736 19.031 0ZM28.598 145.205c1.177-.827 1.926-5.41 1.926-5.41H18.876l-2.677 7.861c4.566.275 10.045-.793 12.4-2.451ZM609.085 145.205c2.019 2.85 9.266 2.98 14.503 1.769l-2.44-7.179H611.01s-2.756 4.238-1.925 5.41ZM71.375 127.062c1.176-.828 1.926-5.411 1.926-5.411H54.262s-2.75 4.238-1.925 5.411c2.75 3.873 15.152 2.736 19.038 0ZM99.924 127.062c1.176-.828 1.926-5.411 1.926-5.411H82.817s-2.75 4.238-1.925 5.411c2.745 3.873 15.146 2.736 19.032 0ZM128.472 127.062c1.176-.828 1.926-5.411 1.926-5.411h-19.033s-2.751 4.238-1.925 5.411c2.745 3.873 15.146 2.736 19.032 0ZM157.021 127.062c1.175-.828 1.925-5.411 1.925-5.411h-19.032s-2.751 4.238-1.926 5.411c2.745 3.873 15.146 2.736 19.033 0ZM185.569 127.062c1.176-.828 1.926-5.411 1.926-5.411h-19.032s-2.757 4.238-1.926 5.411c2.745 3.873 15.146 2.736 19.032 0ZM214.117 127.062c1.176-.828 1.926-5.411 1.926-5.411h-19.032s-2.751 4.238-1.926 5.411c2.745 3.873 15.148 2.736 19.032 0ZM242.666 127.062c1.176-.828 1.926-5.411 1.926-5.411H225.56s-2.751 4.238-1.926 5.411c2.747 3.873 15.145 2.736 19.032 0ZM271.215 127.062c1.176-.828 1.926-5.411 1.926-5.411h-19.033s-2.757 4.238-1.926 5.411c2.746 3.873 15.146 2.736 19.033 0ZM299.763 127.062c1.176-.828 1.924-5.411 1.924-5.411h-19.032s-2.751 4.238-1.925 5.411c2.745 3.873 15.144 2.736 19.033 0ZM328.31 127.062c1.177-.828 1.926-5.411 1.926-5.411h-19.032s-2.751 4.238-1.925 5.411c2.743 3.873 15.145 2.736 19.031 0ZM356.859 127.062c1.177-.828 1.925-5.411 1.925-5.411h-19.032s-2.751 4.238-1.926 5.411c2.745 3.873 15.147 2.736 19.033 0ZM385.407 127.062c1.177-.828 1.926-5.411 1.926-5.411h-19.032s-2.751 4.238-1.926 5.411c2.745 3.873 15.14 2.736 19.032 0ZM413.956 127.062c1.177-.828 1.926-5.411 1.926-5.411H396.85s-2.751 4.238-1.926 5.411c2.739 3.873 15.146 2.736 19.032 0ZM442.505 127.062c1.175-.828 1.925-5.411 1.925-5.411h-19.032s-2.751 4.238-1.926 5.411c2.745 3.873 15.147 2.736 19.033 0ZM471.053 127.062c1.176-.828 1.926-5.411 1.926-5.411h-19.033s-2.751 4.238-1.925 5.411c2.745 3.873 15.146 2.736 19.032 0ZM499.602 127.062c1.176-.828 1.926-5.411 1.926-5.411h-19.033s-2.751 4.238-1.925 5.411c2.745 3.873 15.146 2.736 19.032 0ZM528.15 127.062c1.176-.828 1.926-5.411 1.926-5.411h-19.032s-2.751 4.238-1.926 5.411c2.745 3.873 15.146 2.736 19.032 0ZM556.699 127.062c1.176-.828 1.926-5.411 1.926-5.411h-19.033s-2.751 4.238-1.925 5.411c2.745 3.873 15.146 2.736 19.032 0ZM585.247 127.062c1.176-.828 1.926-5.411 1.926-5.411h-19.032s-2.751 4.238-1.926 5.411c2.745 3.873 15.146 2.736 19.032 0Z"/><path fill="#D0D2E3" d="M556.699 127.062c1.176-.828 1.926-5.411 1.926-5.411h-19.033s-2.751 4.238-1.925 5.411c2.745 3.873 15.146 2.736 19.032 0ZM585.247 127.062c1.176-.828 1.926-5.411 1.926-5.411h-19.032s-2.751 4.238-1.926 5.411c2.745 3.873 15.146 2.736 19.032 0ZM23.79 127.069c2.744 3.873 15.145 2.736 19.032 0 1.175-.829 1.925-5.411 1.925-5.411H25.715s-2.757 4.238-1.926 5.411ZM595.092 127.069c2.745 3.873 15.146 2.736 19.033 0 .659-.465 1.184-2.107 1.517-3.457l-.662-1.95h-17.962s-2.756 4.234-1.926 5.407ZM85.937 108.917c1.176-.828 1.926-5.41 1.926-5.41H68.83s-2.75 4.238-1.925 5.41c2.745 3.876 15.146 2.742 19.032 0ZM114.485 108.917c1.176-.828 1.926-5.41 1.926-5.41H97.379s-2.758 4.238-1.926 5.41c2.745 3.877 15.145 2.742 19.032 0ZM143.034 108.917c1.176-.828 1.926-5.41 1.926-5.41h-19.033s-2.757 4.238-1.925 5.41c2.743 3.876 15.146 2.742 19.032 0ZM171.583 108.917c1.175-.828 1.925-5.41 1.925-5.41h-19.032s-2.757 4.238-1.926 5.41c2.745 3.877 15.147 2.742 19.033 0ZM200.131 108.917c1.176-.828 1.926-5.41 1.926-5.41h-19.033s-2.751 4.238-1.925 5.41c2.745 3.877 15.14 2.742 19.032 0ZM228.68 108.917c1.176-.828 1.925-5.41 1.925-5.41h-19.032s-2.751 4.238-1.926 5.41c2.745 3.876 15.145 2.742 19.033 0ZM257.228 108.917c1.176-.828 1.925-5.41 1.925-5.41h-19.031s-2.751 4.238-1.926 5.41c2.745 3.877 15.145 2.742 19.032 0ZM285.776 108.917c1.177-.828 1.925-5.41 1.925-5.41h-19.032s-2.751 4.238-1.925 5.41c2.746 3.876 15.145 2.742 19.032 0ZM314.324 108.917c1.177-.828 1.925-5.41 1.925-5.41h-19.032s-2.751 4.238-1.926 5.41c2.745 3.876 15.147 2.742 19.033 0ZM342.872 108.917c1.177-.828 1.926-5.41 1.926-5.41h-19.032s-2.751 4.238-1.926 5.41c2.745 3.877 15.146 2.742 19.032 0ZM371.421 108.917c1.177-.828 1.925-5.41 1.925-5.41h-19.032s-2.751 4.238-1.926 5.41c2.745 3.876 15.146 2.742 19.033 0ZM399.97 108.917c1.177-.828 1.926-5.41 1.926-5.41h-19.033s-2.751 4.238-1.925 5.41c2.745 3.876 15.146 2.742 19.032 0ZM428.522 108.917c1.176-.828 1.926-5.41 1.926-5.41h-19.036s-2.751 4.238-1.926 5.41c2.745 3.876 15.146 2.742 19.036 0ZM457.067 108.917c1.175-.828 1.925-5.41 1.925-5.41H439.96s-2.751 4.238-1.926 5.41c2.745 3.876 15.146 2.742 19.033 0ZM485.615 108.917c1.176-.828 1.926-5.41 1.926-5.41h-19.033s-2.751 4.238-1.925 5.41c2.745 3.876 15.146 2.742 19.032 0ZM514.163 108.917c1.175-.828 1.925-5.41 1.925-5.41h-19.03s-2.757 4.238-1.925 5.41c2.744 3.877 15.145 2.742 19.03 0ZM542.712 108.917c1.175-.828 1.925-5.41 1.925-5.41h-19.032s-2.751 4.238-1.926 5.41c2.745 3.876 15.147 2.742 19.033 0ZM571.261 108.917c1.176-.828 1.925-5.41 1.925-5.41h-19.032s-2.751 4.238-1.926 5.41c2.745 3.877 15.147 2.742 19.033 0Z"/><path fill="#D0D2E3" d="M571.261 108.917c1.176-.828 1.925-5.41 1.925-5.41h-19.032s-2.751 4.238-1.926 5.41c2.745 3.877 15.147 2.742 19.033 0ZM56.812 108.917c1.177-.828 1.925-5.41 1.925-5.41H39.705s-2.751 4.238-1.926 5.41c2.745 3.876 15.147 2.742 19.033 0ZM599.232 108.917c1.177-.828 1.926-5.41 1.926-5.41h-19.032s-2.751 4.238-1.925 5.41c2.745 3.877 15.145 2.742 19.031 0ZM99.595 90.777c1.175-.828 1.925-5.41 1.925-5.41H82.483s-2.75 4.237-1.925 5.41c2.745 3.874 15.146 2.736 19.037 0ZM128.137 90.777c1.176-.828 1.926-5.41 1.926-5.41h-19.032s-2.751 4.237-1.926 5.41c2.745 3.874 15.146 2.736 19.032 0ZM156.687 90.777c1.175-.828 1.925-5.41 1.925-5.41H139.58s-2.757 4.237-1.926 5.41c2.745 3.874 15.146 2.736 19.033 0ZM185.235 90.777c1.176-.828 1.926-5.41 1.926-5.41h-19.03s-2.751 4.237-1.926 5.41c2.743 3.874 15.144 2.736 19.03 0ZM213.783 90.777c1.176-.828 1.926-5.41 1.926-5.41h-19.032s-2.751 4.237-1.926 5.41c2.745 3.874 15.145 2.736 19.032 0ZM242.332 90.777c1.176-.828 1.925-5.41 1.925-5.41h-19.032s-2.757 4.237-1.925 5.41c2.745 3.874 15.145 2.736 19.032 0ZM270.876 90.777c1.176-.828 1.925-5.41 1.925-5.41h-19.029s-2.751 4.237-1.925 5.41c2.746 3.874 15.146 2.736 19.029 0ZM299.428 90.777c1.176-.828 1.925-5.41 1.925-5.41h-19.032s-2.751 4.237-1.926 5.41c2.745 3.874 15.146 2.736 19.033 0ZM327.976 90.777c1.177-.828 1.926-5.41 1.926-5.41H310.87s-2.751 4.237-1.926 5.41c2.745 3.874 15.146 2.736 19.032 0ZM356.524 90.777c1.177-.828 1.926-5.41 1.926-5.41h-19.038s-2.751 4.237-1.926 5.41c2.751 3.874 15.152 2.736 19.038 0ZM385.074 90.777c1.176-.828 1.925-5.41 1.925-5.41h-19.032s-2.751 4.237-1.926 5.41c2.745 3.874 15.146 2.736 19.033 0ZM413.622 90.777c1.176-.828 1.926-5.41 1.926-5.41h-19.033s-2.751 4.237-1.925 5.41c2.745 3.874 15.146 2.736 19.032 0ZM442.171 90.777c1.176-.828 1.926-5.41 1.926-5.41h-19.033s-2.751 4.237-1.926 5.41c2.746 3.874 15.147 2.736 19.033 0ZM470.719 90.777c1.175-.828 1.925-5.41 1.925-5.41h-19.032s-2.751 4.237-1.926 5.41c2.745 3.874 15.147 2.736 19.033 0ZM499.267 90.777c1.176-.828 1.926-5.41 1.926-5.41h-19.032s-2.751 4.237-1.926 5.41c2.745 3.874 15.149 2.736 19.032 0ZM527.816 90.777c1.176-.828 1.926-5.41 1.926-5.41H510.71s-2.758 4.237-1.926 5.41c2.747 3.874 15.146 2.736 19.032 0ZM556.365 90.777c1.176-.828 1.925-5.41 1.925-5.41h-19.032s-2.751 4.237-1.926 5.41c2.745 3.874 15.147 2.736 19.033 0ZM71.375 90.777c1.175-.828 1.925-5.41 1.925-5.41H54.97l-2.024 6.056c3.61 3.083 14.777 1.925 18.429-.646ZM566.215 90.777c2.745 3.874 15.146 2.736 19.032 0a3.877 3.877 0 0 0 1.009-1.741l-1.228-3.67H568.14s-2.757 4.237-1.925 5.411ZM114.153 72.635c1.175-.829 1.925-5.41 1.925-5.41H97.046s-2.751 4.238-1.926 5.41c2.745 3.873 15.146 2.736 19.033 0ZM142.701 72.635c1.176-.829 1.926-5.41 1.926-5.41h-19.032s-2.751 4.238-1.926 5.41c2.745 3.873 15.146 2.736 19.032 0ZM171.249 72.635c1.176-.829 1.926-5.41 1.926-5.41h-19.038s-2.751 4.238-1.926 5.41c2.751 3.873 15.151 2.736 19.038 0ZM199.798 72.635c1.176-.829 1.926-5.41 1.926-5.41h-19.033s-2.751 4.238-1.925 5.41c2.745 3.873 15.145 2.736 19.032 0ZM228.347 72.635c1.176-.829 1.924-5.41 1.924-5.41h-19.032s-2.751 4.238-1.924 5.41c2.745 3.873 15.145 2.736 19.032 0ZM256.894 72.635c1.177-.829 1.926-5.41 1.926-5.41h-19.033s-2.751 4.238-1.924 5.41c2.745 3.873 15.145 2.736 19.031 0ZM285.443 72.635c1.177-.829 1.925-5.41 1.925-5.41h-19.032s-2.751 4.238-1.926 5.41c2.745 3.873 15.147 2.736 19.033 0ZM313.991 72.635c1.177-.829 1.926-5.41 1.926-5.41h-19.032s-2.752 4.238-1.926 5.41c2.745 3.873 15.15 2.736 19.032 0ZM342.54 72.635c1.177-.829 1.926-5.41 1.926-5.41h-19.032s-2.751 4.238-1.926 5.41c2.749 3.873 15.146 2.736 19.032 0ZM371.088 72.635c1.176-.829 1.926-5.41 1.926-5.41h-19.032s-2.751 4.238-1.926 5.41c2.745 3.873 15.146 2.736 19.032 0ZM399.637 72.635c1.176-.829 1.926-5.41 1.926-5.41H382.53s-2.751 4.238-1.925 5.41c2.745 3.873 15.145 2.736 19.032 0ZM428.185 72.635c1.176-.829 1.926-5.41 1.926-5.41h-19.032s-2.751 4.238-1.926 5.41c2.744 3.873 15.146 2.736 19.032 0ZM456.734 72.635c1.176-.829 1.926-5.41 1.926-5.41h-19.033s-2.751 4.238-1.926 5.41c2.746 3.873 15.147 2.736 19.033 0ZM485.283 72.635c1.175-.829 1.925-5.41 1.925-5.41h-19.032s-2.751 4.238-1.926 5.41c2.745 3.873 15.146 2.736 19.033 0ZM513.831 72.635c1.176-.829 1.926-5.41 1.926-5.41h-19.033s-2.751 4.238-1.925 5.41c2.745 3.873 15.146 2.736 19.032 0ZM542.379 72.635c1.176-.829 1.926-5.41 1.926-5.41h-19.032s-2.751 4.238-1.926 5.41c2.745 3.873 15.146 2.736 19.032 0ZM85.938 72.635c1.176-.829 1.926-5.41 1.926-5.41H68.83s-2.75 4.238-1.925 5.41c2.745 3.873 15.146 2.736 19.032 0ZM571.262 72.635c1.175-.829 1.925-5.41 1.925-5.41h-19.032s-2.751 4.238-1.926 5.41c2.745 3.873 15.146 2.736 19.033 0Z"/><path fill="#A4A6C0" stroke="#A4A6C0" stroke-miterlimit="10" stroke-width="2.672" d="M226.047 106.228c-.369-21.321-18.545-38.67-40.517-38.673-22.283 0-40.418 17.65-40.429 39.348l-.026 77.111 80.992-.139-.02-77.647Z"/><path fill="#A4A6C0" stroke="#A4A6C0" stroke-miterlimit="10" stroke-width="2.672" d="M226.047 116.654c-.369-21.321-18.545-38.67-40.517-38.674-22.283 0-40.418 17.652-40.429 39.347l-.026 73.563 80.992-.139-.02-74.097Z"/><path fill="#fff" d="M220.192 119.063v-.062a34.563 34.563 0 0 0-10.38-23.93 34.792 34.792 0 0 0-24.188-9.927c-4.51-.056-8.987.78-13.171 2.458a34.158 34.158 0 0 0-11.209 7.32 34.036 34.036 0 0 0-7.518 11.057 33.95 33.95 0 0 0-2.669 13.089c.006 65.352 0 65.259 0 65.259h69.155l-.02-65.264Z"/><path fill="#fff" d="M216.53 150.403h-61.807v-30.801a30.75 30.75 0 0 1 9.05-21.777 30.954 30.954 0 0 1 21.85-9.02h.006c4.058 0 8.076.796 11.825 2.343a30.904 30.904 0 0 1 10.025 6.676 30.78 30.78 0 0 1 6.699 9.992 30.704 30.704 0 0 1 2.352 11.786v30.801Z"/><path fill="#E9EAF5" d="M214.616 148.574h-57.979v-28.896c0-7.662 3.054-15.01 8.49-20.428a29.036 29.036 0 0 1 20.496-8.462h.006a29.036 29.036 0 0 1 20.497 8.462 28.842 28.842 0 0 1 8.49 20.428v28.896Z"/><path fill="#fff" d="M216.529 119.064h-61.803v61.597h61.803v-61.597Z"/><path fill="#E9EAF5" d="M214.3 121.286h-26.372v57.153H214.3v-57.153ZM183.327 121.286h-26.37v57.153h26.37v-57.153Z"/><path fill="#E9EAF5" d="M156.957 149.038v29.401h26.365v-55.683l-26.365 26.282ZM187.928 152.469v25.969h26.373v-52.252l-26.373 26.283Z"/><path fill="#E9EAF5" d="M198.253 178.438h16.048v-15.995l-16.048 15.995ZM161.874 178.438h21.448v-21.382l-21.448 21.382Z"/><path fill="#E9EAF5" d="M183.06 178.179h-26.38v.539h26.923v-57.699h-.543v57.16Z"/><path fill="#E9EAF5" d="M157.224 121.553h26.38v-.539H156.68v57.699h.544v-57.16ZM214.031 178.179h-26.379v.539h26.924v-57.699h-.544l-.001 57.16Z"/><path fill="#E9EAF5" d="M188.196 121.553h26.38v-.539h-26.924v57.699h.544v-57.16Z"/><path fill="#A4A6C0" stroke="#A4A6C0" stroke-miterlimit="10" stroke-width="2.672" d="M501.629 106.228c-.37-21.321-18.546-38.67-40.518-38.673-22.283 0-40.418 17.65-40.429 39.348l-.026 77.111 80.992-.139-.019-77.647Z"/><path fill="#A4A6C0" stroke="#A4A6C0" stroke-miterlimit="10" stroke-width="2.672" d="M501.629 116.654c-.37-21.321-18.546-38.67-40.518-38.674-22.283 0-40.418 17.652-40.429 39.347l-.026 73.563 80.992-.139-.019-74.097Z"/><path fill="#fff" d="M495.709 118.723v-.062a34.562 34.562 0 0 0-10.38-23.93 34.792 34.792 0 0 0-24.187-9.927 34.238 34.238 0 0 0-13.172 2.457 34.16 34.16 0 0 0-11.209 7.321 34.018 34.018 0 0 0-7.517 11.057 33.93 33.93 0 0 0-2.67 13.088c.006 65.353 0 65.26 0 65.26h69.155l-.02-65.264Z"/><path fill="#fff" d="M492.047 150.063H430.24v-30.801a30.747 30.747 0 0 1 9.051-21.778 30.95 30.95 0 0 1 21.849-9.02h.006c4.058 0 8.076.796 11.825 2.344a30.905 30.905 0 0 1 10.026 6.676 30.798 30.798 0 0 1 6.698 9.992 30.704 30.704 0 0 1 2.352 11.786v30.801Z"/><path fill="#E9EAF5" d="M490.133 148.234h-57.979v-28.896c0-7.662 3.054-15.01 8.49-20.428a29.035 29.035 0 0 1 20.496-8.462h.006a29.036 29.036 0 0 1 20.497 8.462 28.841 28.841 0 0 1 8.49 20.428v28.896Z"/><path fill="#fff" d="M492.046 118.724h-61.802v61.597h61.802v-61.597Z"/><path fill="#E9EAF5" d="M489.817 120.946h-26.372v57.153h26.372v-57.153ZM458.844 120.946h-26.37v57.153h26.37v-57.153Z"/><path fill="#E9EAF5" d="M432.474 148.698v29.401h26.365v-55.683l-26.365 26.282ZM463.445 152.128v25.97h26.373v-52.252l-26.373 26.282Z"/><path fill="#E9EAF5" d="M473.77 178.098h16.048v-15.995l-16.048 15.995ZM437.391 178.098h21.448v-21.382l-21.448 21.382Z"/><path fill="#E9EAF5" d="M458.577 177.839h-26.38v.539h26.923v-57.699h-.543v57.16Z"/><path fill="#E9EAF5" d="M432.741 121.213h26.38v-.539h-26.924v57.699h.544v-57.16ZM489.548 177.839h-26.379v.539h26.924v-57.699h-.544l-.001 57.16Z"/><path fill="#E9EAF5" d="M463.713 121.213h26.38v-.539h-26.924v57.699h.544v-57.16Z"/></g><defs><clipPath id="a"><path fill="#fff" d="M0 0h640v680H0z"/></clipPath></defs></svg>