<svg xmlns="http://www.w3.org/2000/svg" width="686" height="589" fill="none"><g clip-path="url(#a)"><path fill="#05C168" d="m524.634 489.253.739-1.453 1.669-.757s7.15 1.15 8.89 4.122c1.74 2.973 8.629 13.582 8.343 15.696-.287 2.115-2.098 3.246-3.314 2.794-1.215-.453-3.462-3.401-3.462-3.401l-.959-.126-11.322 2.604-1.346-2.323 10.547-3.884-5.738-.567-5.024-5.36.977-7.345Z"/><path fill="#0075FF" d="M516.581 506.012a6.335 6.335 0 0 1-.941 5.868c-1.859 2.448-4.63 6.29-7.24 9.708-2.038 2.664-15.756 9.716-23.169 13.404a6.338 6.338 0 0 1-8.134-2.199 54.569 54.569 0 0 1-6.232-12.913 6.335 6.335 0 0 1 3.325-7.691l31.91-15.046a6.334 6.334 0 0 1 8.699 3.681l1.782 5.188Z"/><path fill="#133578" d="M516.581 506.011s0-.113-.089-.322l-.304-.935c-.274-.828-.679-2.031-1.191-3.573a6.866 6.866 0 0 0-1.265-2.419 6.438 6.438 0 0 0-6.34-2.174 9.223 9.223 0 0 0-1.918.733l-1.936.905-18.598 8.739-10.983 5.176a6.474 6.474 0 0 0-3.515 5.218 7.201 7.201 0 0 0 .524 3.27 47.282 47.282 0 0 0 1.192 3.121 56.183 56.183 0 0 0 2.902 5.957c.536.95 1.096 1.875 1.68 2.776.286.462.612.897.977 1.299a6.502 6.502 0 0 0 7.33 1.453c1.835-.882 3.575-1.787 5.309-2.668 3.445-1.788 6.692-3.497 9.684-5.194a94.844 94.844 0 0 0 4.284-2.544 24.677 24.677 0 0 0 3.73-2.711c.484-.529.932-1.09 1.341-1.679.411-.56.816-1.108 1.191-1.632.781-1.06 1.526-2.062 2.218-2.979.69-.917 1.328-1.787 1.924-2.603a18.869 18.869 0 0 0 1.543-2.251 6.294 6.294 0 0 0 .626-3.682 4.586 4.586 0 0 0-.321-1.274s0 .107.083.321c.082.316.142.635.179.959a6.33 6.33 0 0 1-.673 3.622 19.086 19.086 0 0 1-1.556 2.216l-1.948 2.585-2.229 2.978-1.222 1.627a15.306 15.306 0 0 1-1.329 1.655 24.646 24.646 0 0 1-3.7 2.663 98.886 98.886 0 0 1-4.284 2.52c-2.98 1.686-6.245 3.402-9.684 5.165-1.722.869-3.492 1.786-5.303 2.656a6.182 6.182 0 0 1-6.984-1.4 8.562 8.562 0 0 1-.941-1.251 36.375 36.375 0 0 1-1.663-2.764 55.739 55.739 0 0 1-2.89-5.921 71.36 71.36 0 0 1-1.192-3.103 6.792 6.792 0 0 1-.512-3.146 6.155 6.155 0 0 1 3.343-4.967l10.964-5.194 18.574-8.798 1.93-.918a9.38 9.38 0 0 1 1.872-.727 6.268 6.268 0 0 1 3.575.257 6.193 6.193 0 0 1 2.58 1.822 6.834 6.834 0 0 1 1.263 2.383c.537 1.537.959 2.729 1.246 3.574.143.393.25.703.333.924.084.22.173.255.173.255ZM537.976 506.969c.047 0 .22-.305.595-.763a5.957 5.957 0 0 1 3.867-2.15c.323-.008.644-.04.96-.096a2.11 2.11 0 0 0-.977-.119 5.168 5.168 0 0 0-2.279.644 5.162 5.162 0 0 0-1.749 1.595c-.207.26-.35.564-.417.889ZM528.383 498.153c.469.436.97.834 1.502 1.191.941.709 2.252 1.668 3.616 2.829a26.475 26.475 0 0 1 3.236 3.248c.745.904 1.139 1.512 1.192 1.489a1.634 1.634 0 0 0-.232-.465 11.598 11.598 0 0 0-.787-1.161 21.224 21.224 0 0 0-3.2-3.343 41.692 41.692 0 0 0-3.694-2.775 11.112 11.112 0 0 0-1.633-1.013Z"/><path fill="#fff" d="m504.616 521.053-8.819-16.78-15.916 7.267 10.381 18.317 14.354-8.804Z"/><path fill="#133578" d="M551.479 519.729a9.294 9.294 0 0 0-.989-1.335 137.929 137.929 0 0 0-2.551-3.08 184.598 184.598 0 0 0-2.616-3.02 8.45 8.45 0 0 0-1.156-1.191c.287.475.618.922.989 1.334.639.799 1.538 1.888 2.545 3.08a121.808 121.808 0 0 0 2.622 3.014c.348.433.735.834 1.156 1.198ZM549.048 528.21c.077 0-1.233-3.573-2.926-7.946-1.693-4.372-3.129-7.869-3.205-7.833-.078.036 1.227 3.574 2.919 7.947 1.692 4.371 3.128 7.868 3.212 7.832ZM541.42 523.516a50.52 50.52 0 0 0 .108-5.612 51.776 51.776 0 0 0-.209-5.611 50.26 50.26 0 0 0-.107 5.611 51.794 51.794 0 0 0 .208 5.612Z"/><path fill="#DCDDEB" d="M654.04 191.166a35.73 35.73 0 0 0-7.204 1.957 35.36 35.36 0 0 0-6.953 2.739 33.427 33.427 0 0 0 7.204-1.957 34.303 34.303 0 0 0 6.953-2.739ZM474.262 448.822v58.705h7.862l10.554-59.362-18.416.657ZM545.736 448.822v58.705h7.877l10.538-59.362-18.415.657ZM635.121 448.822v58.705h-7.861l-10.554-59.362 18.415.657ZM685.328 448.822v58.705h-7.861l-10.555-59.362 18.416.657Z"/><path fill="#68AEFF" d="M523.389 319.704s-31.07-8.955-39.636 2.989c-8.566 11.945-9.49 126.942-9.49 126.942s55.452 1.001 56.47 0c1.018-1.002-7.344-129.931-7.344-129.931Z"/><path fill="#0075FF" d="m683.747 428.658.913-198.919c.042-6.119-.685-12.689-3.008-18.35a46.19 46.19 0 0 0-25.215-25.206 46.232 46.232 0 0 0-17.854-3.456h-73.227a45.646 45.646 0 0 0-32.645 13.746 45.627 45.627 0 0 0-12.972 32.951l4.698 199.234h159.31Z"/><path fill="#0075FF" d="M683.746 428.659s-28.188-41.626-61.404-42.987c-33.215-1.362-104.687 0-104.687 0s-31.696 1.189-33.904 40.45v23.153h199.995v-20.616Z"/><path fill="#56A4FF" d="m618.835 386.861-82.105-.438c-8.566 0-18.322-1.095-26.622 1.268-24.476 6.935-28.063 38.228-26.121 59.8.078.893-1.3.893-1.378 0-1.567-18.081.282-43.425 15.753-55.479 8.943-6.951 19.309-7.061 29.974-7.013l90.499.485c.183 0 .359.073.488.201a.694.694 0 0 1 0 .975.69.69 0 0 1-.488.201Z"/><path fill="#DCDDEB" d="M542.414 188.959c.185-.023.368-.059.548-.11.36 0 .877-.25 1.566-.376l2.631-.359c1.049-.095 2.255-.236 3.602-.329 5.449-.376 13.357-.564 23.114-.564 4.886 0 10.226 0 15.958.172 6.103-.025 12.204.278 18.275.908 3.262.406 6.497.997 9.693 1.769a45.71 45.71 0 0 1 9.63 3.444 38.656 38.656 0 0 1 14.972 15.028 25.35 25.35 0 0 1 1.973 5.073c.398 1.763.67 3.551.815 5.353.438 3.6.798 7.155 1.142 10.645a481.823 481.823 0 0 1 1.567 20.178c.845 12.885 1.252 24.499 1.565 34.253.314 9.752.47 17.611.627 23.105 0 2.693.141 4.806.187 6.262v1.565c-.02.188-.02.377 0 .564a3.54 3.54 0 0 0 0-.564v-7.827c0-5.463-.141-13.353-.359-23.122-.22-9.768-.596-21.383-1.395-34.282a661.16 661.16 0 0 0-1.565-20.194 572.513 572.513 0 0 0-1.128-10.677 37.485 37.485 0 0 0-.845-5.463 25.48 25.48 0 0 0-1.848-5.213 36.81 36.81 0 0 0-6.687-8.876 37.584 37.584 0 0 0-8.644-6.481 45.318 45.318 0 0 0-9.804-3.491 85.232 85.232 0 0 0-9.803-1.753 163.445 163.445 0 0 0-18.337-.845c-5.748 0-11.088-.11-15.974 0-9.772 0-17.68.344-23.129.813-1.362.126-2.568.282-3.618.392-1.049.109-1.927.329-2.631.454-.704.125-1.221.36-1.566.454a2.66 2.66 0 0 0-.532.094Z"/><path fill="#DCDDEB" d="M606.339 249.04a3.746 3.746 0 0 1 2.49.923 2.476 2.476 0 0 1 .704 2.536 2.89 2.89 0 0 1-2.442 2.02 3.129 3.129 0 0 1-2.741-1.659 2.85 2.85 0 0 1 0-2.692 4.792 4.792 0 0 1 2.004-1.833s-.313 0-.799.11a3.521 3.521 0 0 0-1.706 1.425 3.43 3.43 0 0 0-.251 3.318 3.732 3.732 0 0 0 3.477 2.145 3.588 3.588 0 0 0 3.132-2.63 3.03 3.03 0 0 0-.052-1.719 3.01 3.01 0 0 0-.982-1.411 3.134 3.134 0 0 0-2.098-.753c-.501.079-.752.173-.736.22Z"/><path fill="#DCDDEB" d="M609.032 230.569a6.731 6.731 0 0 0-2.489 1.909 13.476 13.476 0 0 0-2.616 14.293 6.446 6.446 0 0 0 1.566 2.661c.125 0-.517-1.064-1.096-2.849a14.424 14.424 0 0 1 2.505-13.729c1.253-1.456 2.209-2.176 2.13-2.285ZM607.263 274.902c.093-.079-.674-1.128-1.567-2.99a22.805 22.805 0 0 1-2.207-7.718c-.267-3.131 0-6.09 1.173-7.686a5.163 5.163 0 0 1 2.601-1.816s-.345-.125-.94 0a4.188 4.188 0 0 0-2.146 1.424 7.215 7.215 0 0 0-1.44 3.538 20.166 20.166 0 0 0-.095 4.587 19.904 19.904 0 0 0 2.506 7.905 8.187 8.187 0 0 0 2.115 2.756ZM595.879 251.452a27.577 27.577 0 0 1 3.461-.611 23.7 23.7 0 0 1 3.46.596c.157-.157-1.253-1.426-3.46-1.41-2.209.016-3.633 1.284-3.461 1.425ZM559.75 249.04a3.736 3.736 0 0 1 2.49.923 2.47 2.47 0 0 1 .705 2.536 2.898 2.898 0 0 1-2.443 2.02 3.126 3.126 0 0 1-2.74-1.659 2.85 2.85 0 0 1 .077-2.692 4.916 4.916 0 0 1 2.005-1.833s-.313 0-.799.11a3.666 3.666 0 0 0-1.706 1.425 3.42 3.42 0 0 0-.251 3.318 3.725 3.725 0 0 0 3.476 2.145 3.594 3.594 0 0 0 3.133-2.63 3.022 3.022 0 0 0-1.034-3.13 3.137 3.137 0 0 0-2.099-.753c-.564.079-.83.173-.814.22Z"/><path fill="#DCDDEB" d="M562.443 230.569a6.74 6.74 0 0 0-2.489 1.909 13.574 13.574 0 0 0-2.616 14.293 6.457 6.457 0 0 0 1.566 2.661c.126 0-.517-1.064-1.096-2.849a14.733 14.733 0 0 1-.517-7.185 14.999 14.999 0 0 1 3.022-6.544c1.254-1.456 2.209-2.176 2.13-2.285ZM560.643 274.902c.11-.079-.674-1.128-1.567-2.99a22.827 22.827 0 0 1-2.207-7.718c-.266-3.131 0-6.09 1.175-7.686a5.162 5.162 0 0 1 2.63-1.816s-.329-.125-.94 0a4.185 4.185 0 0 0-2.145 1.424 7.215 7.215 0 0 0-1.44 3.538 19.231 19.231 0 0 0 0 4.587 19.646 19.646 0 0 0 2.505 7.905 8.279 8.279 0 0 0 1.989 2.756ZM549.322 251.452a27.237 27.237 0 0 1 3.46-.612c1.167.113 2.324.312 3.461.595.172-.157-1.252-1.425-3.461-1.409a3.966 3.966 0 0 0-3.46 1.426Z"/><path fill="#68AEFF" d="M682.899 318.373s-47.497-12.289-56.094 3.882c-8.597 16.171-10.147 127.505-10.147 127.505s68.59 2.52 68.747-.36c.157-2.88-2.506-131.027-2.506-131.027Z"/><path fill="#4F9EFB" d="M684.165 317.331s-30.016-7.616-38.645 4.312c-8.628 11.929-10.821 128.602-10.821 128.602s50.112 1.565 51.083.469c.971-1.096-1.617-133.383-1.617-133.383Z"/><path fill="#DCDDEB" d="M667.085 375.98s.234-.078.594 0a1.312 1.312 0 0 1 1.018.924c.209.75.241 1.537.094 2.301a1.456 1.456 0 0 1-1.706 1.362 2.078 2.078 0 0 1-1.521-1.943 2.087 2.087 0 0 1 .157-.859 4.809 4.809 0 0 1 1.567-2.113l.297-.251h-.344c-.564-.125-.862-.157-.893-.093 0 0 .251.218.783.454v-.33a4.31 4.31 0 0 0-2.02 2.176 3.132 3.132 0 0 0 0 2.192 2.507 2.507 0 0 0 1.926 1.659 2.221 2.221 0 0 0 1.832-.5 2.63 2.63 0 0 0 .752-1.566 5.107 5.107 0 0 0-.298-2.677 1.57 1.57 0 0 0-1.565-1.002c-.548-.016-.706.235-.673.266Z"/><path fill="#DCDDEB" d="M658.157 354.815c-.203.125 2.49 4.696 5.058 10.567 2.568 5.871 4.025 10.958 4.276 10.958a13.365 13.365 0 0 0-.721-3.382 61.203 61.203 0 0 0-2.819-7.827 61.999 61.999 0 0 0-3.805-7.404 12.294 12.294 0 0 0-1.989-2.912ZM676.887 356.789a11.077 11.077 0 0 0-1.691 2.677c-.94 1.722-2.145 4.148-3.336 6.888a85.121 85.121 0 0 0-2.74 7.153 11.99 11.99 0 0 0-.798 3.132c.235.078 1.925-4.43 4.29-9.893 2.364-5.464 4.494-9.832 4.275-9.957ZM658.377 413.927a35.062 35.062 0 0 0 1.128-4.884 547.809 547.809 0 0 1 2.505-11.788 499.748 499.748 0 0 1 2.804-11.741 35.8 35.8 0 0 0 1.08-4.899 27.16 27.16 0 0 0-1.566 4.696c-.877 2.959-1.988 7.107-3.038 11.709a171.5 171.5 0 0 0-2.27 11.882 26.426 26.426 0 0 0-.643 5.025ZM676.857 401.154a12.577 12.577 0 0 0-.612-3.131 64.322 64.322 0 0 0-2.521-7.435 62 62 0 0 0-3.414-7.06 11.383 11.383 0 0 0-1.8-2.725c-.204.126 2.161 4.462 4.447 10.113 2.287 5.651 3.664 10.301 3.9 10.238Z"/><g opacity=".5"><path fill="#DCDDEB" d="M230.812 502.204V73.118h172.161v429.086H230.812Z" opacity=".5"/><path fill="#A0A3BD" d="M240.269 210.174V83.866h153.273v126.308H240.269ZM240.269 347.835V221.527h153.273v126.308H240.269ZM240.269 485.494V359.187h153.273v126.307H240.269Z" opacity=".5"/><path fill="#EFF0F7" d="M333.248 210.174V83.866h60.293v126.308h-60.293ZM333.248 347.835V221.527h60.293v126.308h-60.293ZM333.28 485.494V359.187h60.293v126.307H333.28Z" opacity=".5"/><path fill="#F7F9FC" d="M184.068 502.204V73.118h46.738v429.086h-46.738Z" opacity=".5"/><path fill="#DCDDEB" d="M46.736 502.204V73.118h172.161v429.086H46.736Z" opacity=".5"/><path fill="#A0A3BD" d="M56.198 210.174V83.866h153.274v126.308H56.198ZM56.198 347.835V221.527h153.274v126.308H56.198ZM56.162 485.45V359.142h153.274V485.45H56.162Z" opacity=".5"/><path fill="#EFF0F7" d="M149.177 210.174V83.866h60.292v126.308h-60.292ZM149.177 347.835V221.527h60.292v126.308h-60.292ZM149.21 485.494V359.187h60.291v126.307H149.21Z" opacity=".5"/><path fill="#F7F9FC" d="M0 502.204V73.118h46.739v429.086H0Z" opacity=".5"/><path fill="#DCDDEB" d="M199.051 485.46H74.59V377.353H199.05V485.46Z" opacity=".5"/><path fill="#EFF0F7" d="M56.197 377.384H74.62v108.109H56.197V377.384Z" opacity=".5"/><path fill="#DCDDEB" d="M383.121 210.188h-124.46V102.08h124.46v108.108Z" opacity=".5"/><path fill="#EFF0F7" d="M240.265 102.068h18.422v108.109h-18.422V102.068Z" opacity=".5"/></g><path fill="#263238" d="M94.45 531.957c0-.625-2.082-61.815-12.046-71.487-9.612-9.384-20.826-.352-21.242 0l-1.026-1.234c.129-.112 12.704-10.361 23.39 0 10.412 10.106 12.446 70.03 12.526 72.576l-1.602.145Z"/><path fill="#263238" d="M95.316 543.983c0-.736-6.808-73.489 19.768-103.98l1.217 1.057c-26.143 29.947-19.495 102.011-19.399 102.763l-1.586.16Z"/><path fill="#263238" d="m94.371 536.295-1.602-.111c0-.833 5.207-82.682-14.273-100.602l1.073-1.185c20.056 18.432 15.026 98.488 14.802 101.898Z"/><path fill="#263238" d="M96.918 536.25h-1.602c0-2.258.64-55.313 15.715-63.961a10.686 10.686 0 0 1 9.772-.945c9.131 3.763 13.648 20.002 13.841 20.691l-1.602.416c0-.16-4.502-16.159-12.896-19.633a9.177 9.177 0 0 0-4.286-.584 9.172 9.172 0 0 0-4.076 1.449c-14.242 8.167-14.866 62.022-14.866 62.567ZM91.037 536.28l-1.602-.097c0-.416 2.275-41.908-8.922-56.513-2.708-3.539-5.655-5.221-8.763-5.013-7.337.512-13.473 11.21-13.537 11.354l-1.393-.785c.272-.48 6.632-11.593 14.818-12.171 3.668-.255 7.096 1.602 10.156 5.638 11.55 15.085 9.34 55.858 9.243 57.587Z"/><path fill="#263238" d="M93.458 541.934c-.305-4.035-7.321-98.807 5.03-115.51l1.281.962c-11.998 16.221-4.805 113.443-4.71 114.42l-1.601.128Z"/><path fill="#11845B" d="M124.151 480.951s-7.401 2.723-5.206 9.177c2.195 6.453 25.632 17.055 25.632 17.055s9.82-9 .801-23.621c-9.019-14.621-21.018-7.223-21.227-2.611ZM92 468.668s7.881-.32 8.329 6.405c.449 6.726-17.093 25.623-17.093 25.623s-12.51-4.516-9.82-21.491C76.108 462.23 89.981 464.488 92 468.668ZM85.271 436.145s5.254-.576 4.806-3.779c-.449-3.204-20.457-11.434-32.264 1.889 0 0 7.562 12.988 18.503 13.165 10.941.175 8.955-11.275 8.955-11.275Z"/><path fill="#05C168" d="M95.075 428.36s-4.806 2.307-6.103-.64c-1.298-2.946 11.213-20.53 28.37-15.453 0 0 .464 15.021-8.731 20.946-9.194 5.925-13.536-4.853-13.536-4.853ZM70.164 478.357s3.636-2.93-.288-4.355c-3.925-1.426-23.133-1.025-23.34 18 0 0 22.427 3.731 25.166-3.523 2.74-7.254-1.538-10.122-1.538-10.122ZM115.821 435.663s-3.636-2.931.289-4.357c3.924-1.425 23.148-1.024 23.34 18.001 0 0-22.427 3.731-25.167-3.524-2.739-7.254 1.538-10.12 1.538-10.12ZM103.982 450.99s-.32-3.556 2.564-2.163c2.884 1.394 12.815 12.203 2.514 22.42 0 0-13.984-10.361-11.47-15.742 2.515-5.381 6.392-4.515 6.392-4.515ZM66.928 456.065s2.162-2.834-1.01-3.203c-3.171-.368-17.429 3.443-14.113 17.616 0 0 17.35-1.313 18.102-7.206.753-5.894-2.98-7.207-2.98-7.207Z"/><path fill="#6E7191" d="M125.546 589H65.999l-6.408-65.161h72.378L125.546 589Z"/><path fill="#fff" d="M125.546 589H65.999l-6.408-65.161h72.378L125.546 589Z" opacity=".7"/><path fill="#211F54" d="M135.141 516.647H56.403v14.381h78.738v-14.381Z"/><path fill="#fff" d="M135.141 516.647H56.403v14.381h78.738v-14.381Z" opacity=".5"/><g opacity=".3"><path fill="#A0A3BD" d="M564.417 0H463.426v131.648l100.991 2.53V0Z" opacity=".3"/><path fill="#fff" d="M557.762 4.688h-88.367v119.389l88.367 2.975V4.688Z" opacity=".3"/><path fill="#CEE5FF" d="m542.3 26.369-58.638-2.223v83.445H542.3V26.369Z" opacity=".3"/><path fill="#0075FF" d="M483.662 107.591 542.3 64.723l-58.638-40.577v83.445Z" opacity=".3"/></g><path fill="#3F37A0" d="M84.821 185.372c0 13.703 22.176 24.803 49.623 24.803 27.448 0 49.624-11.1 49.624-24.803H84.821Z"/><path fill="#4B3CFB" d="M84.821 166.793c0 13.703 22.176 24.803 49.623 24.803 27.448 0 49.624-11.131 49.624-24.803H84.821Z"/><path fill="#1D53BB" d="M284.244 322.505c0 13.703 17.74 24.803 39.605 24.803 21.866 0 39.481-11.162 39.481-24.803h-79.086Z"/><path fill="#0075FF" d="M284.247 303.957c0 13.703 17.74 24.803 39.605 24.803s39.575-11.1 39.575-24.803h-79.18Z"/><path fill="#FFBF9D" d="M441.711 424.898c0 1.942 17.433 45.497 17.433 45.497l42.123 16.669-6.297 11.461s-44.017-2.272-50.8-6.012c-6.783-3.739-13.837-12.967-13.837-12.967l-12.34-44.682 23.718-9.966Z"/><path fill="#FF9A6C" d="M460.135 470.211a21.478 21.478 0 0 0-12.01 9.024 6.834 6.834 0 0 1 1.069-2.021 17.064 17.064 0 0 1 8.745-6.536 6.519 6.519 0 0 1 2.196-.467Z"/><path fill="#FFBF9D" d="M407.431 448.501v51.773l22.465 61.272h17.81l-12.913-71.219 2.866-51.093-30.228 9.267Z"/><path fill="#FF9A6C" d="M443.471 538.273a2.694 2.694 0 0 1-.165-.611c-.088-.448-.214-1.031-.36-1.749-.311-1.583-.738-3.779-1.253-6.46l-3.945-21.369c-1.186-6.654-2.284-12.793-3.168-17.766.243-3.797.447-6.925.603-9.189.077-1.049.145-1.894.194-2.535.009-.301.045-.599.107-.894.029.301.029.604 0 .904 0 .647-.029 1.492-.088 2.535-.097 2.264-.243 5.4-.418 9.198v-.048c.914 4.964 2.041 11.102 3.265 17.747 1.477 8.314 2.818 15.833 3.8 21.369.456 2.69.825 4.857 1.098 6.479.106.728.194 1.311.272 1.768.038.205.058.413.058.621Z"/><path fill="#4A4566" d="m278.283 566.481-20.25-6.411s-25.692 15.882-30.016 12.928l33.65-43.186 8.007 7.664 5.461 1.069 20.638 13.142-17.49 14.794Z"/><path fill="#CFE5FF" d="M270.296 548.171a2.248 2.248 0 0 0-1.069-2.788 2.155 2.155 0 0 0-2.769 1.03 2.367 2.367 0 0 0 1.136 2.914 2.233 2.233 0 0 0 2.77-1.389"/><path fill="#211F54" d="m260.792 529.084 3.381 2.603-32.629 41.321s-2.332 1.273-3.517 0l32.765-43.924ZM257.693 560.944c-.214-.174.515-1.302.651-2.866.136-1.563-.33-2.816-.097-2.913.233-.098 1.214 1.136 1.02 3.03-.194 1.894-1.389 2.943-1.574 2.749ZM252.28 564.053c-.233-.117.117-1.312-.214-2.72-.33-1.409-1.117-2.351-.972-2.555.146-.204 1.477.593 1.856 2.35.379 1.759-.456 3.031-.67 2.925ZM244.857 562.363c.107-.233 1.39.3 2.119 1.738.728 1.438.427 2.788.184 2.74-.243-.049-.388-1.138-.971-2.313-.583-1.175-1.477-1.943-1.332-2.165ZM485.875 313.301a6.584 6.584 0 0 1 7.452 1.534 8.986 8.986 0 0 1 8.619 6.935 8.008 8.008 0 0 1 3.785 1.519 7.996 7.996 0 0 1 1.754 11.031 6.676 6.676 0 0 1 2.816 2.987 6.677 6.677 0 0 1-5.09 9.485 6.418 6.418 0 0 1-1.179 8.527 6.427 6.427 0 0 1-8.606-.309l-13.195-35.036a6.57 6.57 0 0 1 3.644-6.673Z"/><path fill="#FFBF9D" d="M495.612 356.292a27.186 27.186 0 0 0 4.064-19.414 27.199 27.199 0 0 0-10.205-17.011l-1.108-.864c-12.573-8.597-26.906-2.73-35.166 10.062l-29.267 41.39-2.245 6.313 7.901 25.392 13.603-2.002 10.688-10.869s12.953 7.149 22.049-4.303c4.353-5.488 12.476-17.64 19.686-28.694Z"/><path fill="#FF9A6C" d="M453.955 389.348a35.518 35.518 0 0 1-11.718-16.154s-3.537 11.073 8.803 18.961l2.915-2.807Z"/><path fill="#211F54" d="M483.981 364.402a2.094 2.094 0 0 1-1.37.816 2.093 2.093 0 0 1-1.545-.388 1.995 1.995 0 0 1-.867-1.289 1.974 1.974 0 0 1 .323-1.518 2.067 2.067 0 0 1 1.368-.819 2.076 2.076 0 0 1 1.547.391 1.982 1.982 0 0 1 .865 1.289 1.992 1.992 0 0 1-.321 1.518ZM488.421 360.702c-.369.059-.903-1.836-2.682-3.205-1.778-1.37-3.77-1.486-3.789-1.856 0-.165.486-.398 1.37-.369a5.678 5.678 0 0 1 3.245 1.224 5.52 5.52 0 0 1 1.944 2.817c.214.845.097 1.38-.088 1.389ZM468.161 353.378a2.095 2.095 0 0 1-2.915.438 2.014 2.014 0 0 1-.862-1.29c-.05-.261-.048-.53.006-.791s.16-.508.312-.726a2.087 2.087 0 0 1 2.915-.438c.222.147.413.337.562.558a2.006 2.006 0 0 1-.018 2.249ZM471.649 347.307c-.369.058-.903-1.836-2.691-3.206-1.788-1.369-3.77-1.486-3.79-1.855 0-.174.486-.398 1.38-.368a5.758 5.758 0 0 1 3.245 1.214 5.51 5.51 0 0 1 1.944 2.826c.175.836.058 1.369-.088 1.389ZM467.277 364.996a15.276 15.276 0 0 1 3.294 1.719c.486.301.971.544 1.302.291a2.9 2.9 0 0 0 .738-1.573c.428-1.428.865-2.914 1.331-4.497 1.944-6.353 3.732-11.443 3.984-11.365.253.077-1.117 5.304-3.061 11.656a726.446 726.446 0 0 1-1.399 4.468 3.33 3.33 0 0 1-1.146 1.943 1.44 1.44 0 0 1-1.263.087 4.058 4.058 0 0 1-.846-.485 15.086 15.086 0 0 1-2.934-2.244ZM461.097 362.178c.301.214-1.186 2.137-.593 4.789.593 2.652 2.808 4.021 2.614 4.303-.068.136-.748 0-1.632-.632a6.061 6.061 0 0 1-2.264-3.476 5.267 5.267 0 0 1 .621-3.886c.545-.894 1.118-1.205 1.254-1.098ZM475.536 342.256c-.573.291-1.778-1.302-3.663-2.71-1.885-1.409-3.731-2.225-3.566-2.827.087-.281.719-.466 1.681-.35a6.938 6.938 0 0 1 3.313 1.409 6.706 6.706 0 0 1 2.186 2.807c.379.875.35 1.515.049 1.671ZM491.793 355.525c-.612.214-1.613-1.079-3.168-2.108-1.554-1.03-3.06-1.593-3.08-2.234 0-.301.496-.593 1.341-.622a5.52 5.52 0 0 1 5.033 3.497c.263.796.136 1.35-.126 1.467Z"/><path fill="#211F54" d="M498.604 350.124s2.556-9.597.379-13.987c-2.652-5.314-8.055-2.079-11.213-6.323-3.158-4.246-5.674-9.325-12.204-9.403-7.143-.078-6.88 3.943-11.126 8.858-17.228 19.922-25.575 22.856-19.074 12.229.709-1.165-1.613-4.322 1.457-9.198 3.984-6.314 9.28-13.599 13.827-16.785 3.828-2.662 7.715-3.536 13.381-3.438 8.949.165 16.82 6.109 21.697 10.742 4.878 4.634 10.378 18.621 2.876 27.305Z"/><path fill="#FFBF9D" d="M446.386 341.751c.313-.435.534-.93.652-1.453a3.993 3.993 0 0 0 .028-1.593 3.992 3.992 0 0 0-1.73-2.598c-2.312-1.457-5.664-2.087-8.968 2.468-5.83 8.101 3.478 12.317 3.653 12.093.175-.224 3.897-5.507 6.365-8.917Z"/><path fill="#FF9A6C" d="M440.429 346.346c0-.049-.214-.001-.535-.069a1.74 1.74 0 0 1-1.069-.737c-.622-.972-.358-2.817.651-4.303a5.821 5.821 0 0 1 1.866-1.729 2.02 2.02 0 0 1 1.846-.321.903.903 0 0 1 .554.971c-.058.311-.233.428-.194.476.038.049.272 0 .447-.388.086-.239.086-.5 0-.738a1.322 1.322 0 0 0-.631-.778 2.47 2.47 0 0 0-2.382.195 5.967 5.967 0 0 0-2.128 1.943c-1.127 1.67-1.399 3.797-.476 4.983a1.856 1.856 0 0 0 1.448.718c.447-.039.622-.185.603-.223Z"/><path fill="#211F54" d="M458.347 326.569a9.442 9.442 0 0 0 2.157 4.128c1.137 1.088 3.11 1.467 4.266.408.515-.476.874-1.223 1.564-1.369.69-.146 1.497.602 2.109 1.185a6.388 6.388 0 0 0 8.037.437c-.098 1.331 1.302 2.35 2.633 2.467a14.06 14.06 0 0 0 3.935-.642 4.092 4.092 0 0 1 3.76.749c.525.534.797 1.301 1.429 1.709 1.107.709 2.555-.116 3.507-.971.953-.855 2.012-2.02 3.324-1.942 1.311.077 2.04 1.223 2.915 2.107.874.884 2.254 1.602 3.226.865a2.364 2.364 0 0 0 .748-1.71 6.484 6.484 0 0 0-4.538-6.615 8.746 8.746 0 0 0-11.709-11.209 8.896 8.896 0 0 0-5.023-6.515 8.905 8.905 0 0 0-8.221.376 6.452 6.452 0 0 0-11.505 2.972c-2.041-.291-4.353.175-5.645 1.787-1.293 1.613-.972 4.478.971 5.275a3.578 3.578 0 0 0-1.713 4.559 3.578 3.578 0 0 0 4.424 2.037"/><path fill="#4A4566" d="M455.665 319.595a2.35 2.35 0 0 0-.68 1.894c.001.805.302 1.58.845 2.175a3.495 3.495 0 0 0 2.76 1.089l-.292-.311a10.046 10.046 0 0 0 .049 3.186c.12.711.374 1.394.748 2.01a3.901 3.901 0 0 0 1.477 1.38 3.886 3.886 0 0 0 3.294.456 5.893 5.893 0 0 0 1.943-1.146c.399-.34.574-.564.554-.593-.019-.029-.262.136-.69.418a6.702 6.702 0 0 1-1.894.971 4.077 4.077 0 0 1-4.859-3.564 10.166 10.166 0 0 1-.068-3.011v-.34h-.34a3.045 3.045 0 0 1-2.371-.875 2.916 2.916 0 0 1-.845-1.855 4.834 4.834 0 0 1 .369-1.884ZM484.573 313.097s.166.223.399.641c.33.591.476 1.268.418 1.943v.223l.223-.058a12.41 12.41 0 0 1 6.219-.136 9.652 9.652 0 0 1 3.644 1.729 8.255 8.255 0 0 1 3.128 6.974 6.698 6.698 0 0 1-.971 3.05l-.165.272.291.116a5.648 5.648 0 0 1 2.973 2.914 5.447 5.447 0 0 1 .302 3.313 7.874 7.874 0 0 1-1.312 2.729c.23-.153.431-.347.593-.573a5.547 5.547 0 0 0 1.039-2.079 5.71 5.71 0 0 0-.213-3.555 6 6 0 0 0-3.188-3.264l.127.389a7.131 7.131 0 0 0 1.088-3.303 8.749 8.749 0 0 0-3.352-7.459 10.042 10.042 0 0 0-3.887-1.768 12.117 12.117 0 0 0-6.423.32l.195.166a3.406 3.406 0 0 0-.583-2.109 1.726 1.726 0 0 0-.545-.475Z"/><path fill="#211F54" d="M364.258 488.444s55.163 33.618 58.36 42.817c1.895 5.448 7.57 34.754-16.519 36.105-25.41 1.418-142.838 0-142.838 0l11.951-31.647 25.867 1.136 43.513.506s-48.974-20.233-59.673-36.912c-13.38-20.903 7.327-51.762 7.327-51.762l72.012 39.757Z"/><path fill="#4A4566" d="M390.096 553.727a2.132 2.132 0 0 1-.554-.107l-1.564-.398a107.683 107.683 0 0 1-5.637-1.797c-4.732-1.612-11.194-4.031-18.287-6.8a771.224 771.224 0 0 1-18.083-7.343l-5.441-2.322-1.468-.66a2.06 2.06 0 0 1-.495-.262c.182.046.361.104.534.175l1.507.564 5.499 2.175 18.132 7.198c7.093 2.788 13.526 5.255 18.219 6.954 2.342.866 4.257 1.506 5.578 1.943l1.535.486c.181.048.356.113.525.194Z"/><path fill="#CFE5FF" d="M521.818 497.175a9.28 9.28 0 0 0-5.354-6.566 10.475 10.475 0 0 0-8.541.175 6.442 6.442 0 0 0-2.731 2.166 3.59 3.59 0 0 0-.427 3.361l1.652-.408a59.875 59.875 0 0 0 13.817 3.001 1.743 1.743 0 0 0 1.351-.262 1.597 1.597 0 0 0 .233-1.467Z"/><path fill="#CFE5FF" d="M484.768 479.235c.456.155 11.815 5.459 11.815 5.459l16.966-.068a3.637 3.637 0 0 1 2.322.806l8.746 7.014 3.751 10.13s.427 3.011-2.857.496c-3.284-2.516-8.746-10.374-8.746-10.374l-7.997-1.496-11.738 9.82-20.279-2.467s.389-3.963 3.771-10.684c3.381-6.722 4.246-8.636 4.246-8.636Z"/><path fill="#CFE5FF" d="m519.602 500.177-8.395-2.749-10.883-6.964-6.869 9.072s7.277 2.758 10.484 3.885a43.892 43.892 0 0 0 14.351 1.865c2.226-.185 3.625-1.612 3.887-2.603.262-.991-1.195-1.768-2.575-2.506Z"/><path fill="#211F54" d="M511.061 490.376c.68.207 1.332.494 1.944.855 1.185.593 2.798 1.437 4.566 2.4.46.227.886.519 1.264.864.342.331.632.711.864 1.126a20.6 20.6 0 0 1 .972 2.128c.496 1.214.972 1.836.972 1.884a3.96 3.96 0 0 1-1.273-1.729c-.622-1.155-1.176-3.021-3.022-3.827-1.768-.971-3.362-1.855-4.499-2.525a9.375 9.375 0 0 1-1.788-1.176ZM522.09 502.683c-.059 0 .068-.33-.224-.767a4.572 4.572 0 0 0-1.758-1.341 38.724 38.724 0 0 0-7.123-2.457 62.375 62.375 0 0 0-1.827-.447c-2.196-1.263-4.051-2.468-5.431-3.235a21.287 21.287 0 0 1-2.206-1.252 9.79 9.79 0 0 1 2.361.971c1.438.69 3.333 1.845 5.519 3.079h-.068c.603.126 1.215.282 1.847.447a31.749 31.749 0 0 1 7.17 2.632 4.429 4.429 0 0 1 1.759 1.554.86.86 0 0 1-.019.816Z"/><path fill="#CFE5FF" d="m486.225 478.808-8.618 20.999a1.332 1.332 0 0 1-2.56-.502c0-.174.034-.347.101-.507l8.619-21.001a1.328 1.328 0 0 1 1.739-.718 1.313 1.313 0 0 1 .718.715 1.31 1.31 0 0 1 .001 1.014Z"/><path fill="#211F54" d="M486.06 478.934a19.677 19.677 0 0 1-.972 3.069 146.67 146.67 0 0 1-2.827 7.236c-1.176 2.797-2.303 5.304-3.168 7.101-.417.99-.917 1.942-1.496 2.846a20.875 20.875 0 0 1 1.176-2.992c.826-1.942 1.865-4.429 3.022-7.149l2.963-7.168a21.162 21.162 0 0 1 1.302-2.943Z"/><path fill="#CFE5FF" d="m466.792 558.225-5.219-1.855c-1.642-.136-12.816-1.487-12.816-1.487l-3.654-14.453-20.405 10.5s3.605 13.88 6.471 16.426c2.867 2.544 30.414 4.662 33.903 4.915a7.16 7.16 0 0 0 5.325-1.525s8.405.63 10.455 0c2.05-.632 1.846-2.04 1.846-2.04s2.663-.516 3.323-1.943c.418-1.895-1.36-3.021-3.158-3.739-5.558-2.177-16.071-4.799-16.071-4.799Z"/><path fill="#CFE5FF" d="m445.996 541.177-20.628 9.491a1.328 1.328 0 0 1-1.454-.224 1.33 1.33 0 0 1-.305-.418 1.34 1.34 0 0 1 .651-1.768l20.629-9.46a1.32 1.32 0 0 1 1.758.641 1.327 1.327 0 0 1-.651 1.738Z"/><path fill="#211F54" d="M445.345 541.974a29.55 29.55 0 0 1-3.099 1.204c-1.944.71-4.558 1.749-7.405 3.041a113.03 113.03 0 0 0-7.161 3.565 26.702 26.702 0 0 1-2.915 1.534c.208-.216.447-.4.709-.544.477-.33 1.176-.776 2.06-1.301a73.305 73.305 0 0 1 14.624-6.635c.972-.311 1.778-.553 2.332-.689.275-.102.564-.161.855-.175ZM448.796 554.893c0 .145-1.944.641-4.208 1.563-2.264.924-4.032 1.943-4.11 1.778a11.658 11.658 0 0 1 3.887-2.253 11.86 11.86 0 0 1 4.431-1.088ZM470.464 570.755s.068-.185.165-.516a2.2 2.2 0 0 0-.058-1.379l.097.088c-1.594-.409-4.071-1.107-6.802-1.943-2.429-.719-4.605-1.399-6.18-1.942a15.143 15.143 0 0 1-2.516-.972c.889.108 1.765.306 2.614.593 1.603.427 3.799 1.048 6.218 1.768 2.77.825 5.228 1.593 6.802 2.117h.087v.058a2.187 2.187 0 0 1-.068 1.564c-.145.437-.34.573-.359.564ZM461.291 560.828c.326-.029.654-.006.972.068.602.088 1.457.233 2.517.467a82.601 82.601 0 0 1 8.074 2.33 293.912 293.912 0 0 0 7.997 2.574 3.123 3.123 0 0 1 2.021 1.583c.086.146.138.308.154.477.014.168-.008.337-.066.495-.041-.3-.13-.593-.263-.865a3.05 3.05 0 0 0-1.943-1.33c-2.07-.535-4.936-1.389-8.036-2.428-3.099-1.04-5.937-1.943-8.006-2.468-2.07-.524-3.43-.825-3.421-.903Z"/><path fill="#0075FF" d="M292.246 448.627c-2.42-4.73 1.535-7.77 3.993-9.393 18.823-12.131 77.571-51.335 88.862-58.542 13.274-8.47 32.28-10.229 32.28-10.229l8.56-6.798 24.701 32.345-2.915 10.753-2.089 14.696-76.376 58.543.088 5.304-4.208 3.516-39.081-17.484-33.815-22.711Z"/><path fill="#0075FF" d="m438.835 458.934 14.352-7.072s-10.611-42.156-11.398-39.756c-.787 2.398-14.838 27.119-14.838 27.119l11.884 19.709Z"/><path fill="#211F54" d="m438.825 458.962-11.874-19.737c.146-.243 14.061-24.75 14.838-27.111 0-.078.058-.115.107-.115.116 0 .466 0 2.332 6.265a591.92 591.92 0 0 1 3.828 13.695c2.633 9.849 5.14 19.815 5.169 19.913l-14.4 7.09Zm-11.874-19.737 11.855 19.669 14.381-7.042c-.127-.505-2.585-10.257-5.17-19.893-1.545-5.828-2.837-10.394-3.828-13.705-1.535-5.129-2.089-6.217-2.284-6.226 0 0-.048 0-.068.076-.787 2.361-14.458 26.451-14.886 27.121Z"/><path fill="#0075FF" d="m441.994 450.891 9.542-5.342a2.368 2.368 0 0 1 2.149-.076 2.36 2.36 0 0 1 1.32 1.698l1.69 8.985a2.361 2.361 0 0 1-1.438 2.623l-12.311 4.983a2.351 2.351 0 0 1-3.216-2.478l1.078-8.625a2.358 2.358 0 0 1 1.186-1.768Z"/><path fill="#211F54" d="M441.994 450.891s-.165.107-.428.369a2.39 2.39 0 0 0-.661 1.428c-.175 1.496-.398 3.556-.68 6.061-.077.642-.155 1.303-.233 2.002-.061.34-.083.685-.068 1.029.028.347.142.68.331.972a2.183 2.183 0 0 0 1.797.971 2.628 2.628 0 0 0 1.098-.282l1.165-.475 10.243-4.168a3.878 3.878 0 0 0 1.224-.621c.32-.293.543-.676.64-1.098a2.696 2.696 0 0 0-.058-1.302 79.696 79.696 0 0 1-.252-1.379c-.34-1.817-.661-3.574-.971-5.245-.078-.418-.157-.836-.235-1.234a5.767 5.767 0 0 0-.261-1.146 2.128 2.128 0 0 0-2.604-1.204 4.89 4.89 0 0 0-.924.447l-1.769.971-5.353 2.914-1.467.767c-.17.1-.349.181-.534.243.141-.134.301-.244.476-.33l1.428-.855 5.276-3.05 1.75-.971c.306-.198.631-.363.971-.496a2.524 2.524 0 0 1 1.205-.087 2.55 2.55 0 0 1 1.943 1.505c.143.4.244.814.302 1.234.077.408.165.816.243 1.234.32 1.671.651 3.428.971 5.245l.262 1.369c.133.495.152 1.013.058 1.515a2.69 2.69 0 0 1-.806 1.351 2.34 2.34 0 0 1-.67.437l-.69.282-10.261 4.137-1.177.467a3.22 3.22 0 0 1-1.262.301 2.604 2.604 0 0 1-2.147-1.204 2.512 2.512 0 0 1-.389-1.137 4.95 4.95 0 0 1 .088-1.107l.262-2.002c.35-2.496.631-4.546.844-6.032a2.304 2.304 0 0 1 1.147-1.729l.176-.097ZM450.369 396.418a1.935 1.935 0 0 1-.311.486l-.972 1.35c-.913 1.214-2.167 2.856-3.692 4.857l-.156.204-.155-.214a311.846 311.846 0 0 0-9.63-13.074 312.295 312.295 0 0 0-11.057-13.414l-3.498-3.915-.972-1.078a1.864 1.864 0 0 1-.301-.408c.139.096.265.207.379.33l.972.972c.864.894 2.098 2.214 3.595 3.885a229.687 229.687 0 0 1 11.193 13.347 215.05 215.05 0 0 1 9.542 13.171h-.301l3.828-4.77c.438-.515.787-.97 1.069-1.282.141-.163.298-.313.467-.447Z"/><path fill="#0075FF" d="M401.348 425.607v45.954l37.478 2.574a53.446 53.446 0 0 0 1.419-8.082c.33-9.81 4.256-29.48 4.994-33.025 3.887-18.796.389-37.999-21.164-37.999"/><path fill="#211F54" d="M424.036 395.038h1.798c1.719.068 3.427.299 5.101.69a18.694 18.694 0 0 1 13.731 12.035 35.088 35.088 0 0 1 2.128 12.89 69.994 69.994 0 0 1-1.866 14.881c-.971 5.187-2.001 10.636-2.915 16.309-.427 2.836-.835 5.73-1.156 8.674a79.707 79.707 0 0 0-.369 4.449c0 .738-.059 1.515-.156 2.272a44.812 44.812 0 0 1-.35 2.274 79.141 79.141 0 0 1-.971 4.672l-.058.214h-.205l-37.42-2.624h-.204v-.204c0-13.725.068-25.205.088-33.277 0-4.013.048-7.179.068-9.364v-3.099a.948.948 0 0 1 0-.213.948.948 0 0 1 0 .213v3.099c0 2.185 0 5.351.058 9.364 0 8.072.058 19.552.097 33.277l-.213-.222 37.488 2.544-.263.195c.369-1.525.69-3.08.972-4.643.126-.749.253-1.496.34-2.245.087-.747.117-1.476.155-2.233a75.88 75.88 0 0 1 .379-4.488c.321-2.915.729-5.828 1.166-8.694a398.46 398.46 0 0 1 2.915-16.318 70.378 70.378 0 0 0 1.944-14.804c.112-4.34-.58-8.664-2.041-12.753a19.489 19.489 0 0 0-6.17-8.557 19.849 19.849 0 0 0-7.269-3.42 28.468 28.468 0 0 0-5.072-.768l-1.331-.068a3.021 3.021 0 0 1-.399-.058ZM417.721 393.446c.048.078-1.205.806-3.051 2.215a35.217 35.217 0 0 0-11.039 14.133c-.913 2.127-1.311 3.526-1.399 3.497.023-.332.092-.658.204-.971.238-.894.527-1.772.865-2.632a31.767 31.767 0 0 1 11.135-14.289 26.201 26.201 0 0 1 2.342-1.486c.293-.196.609-.353.943-.467Z"/><path fill="#211F54" d="M413.183 396.564c-.068 0-.69-1.225-1.778-3.205a83.712 83.712 0 0 0-10.038-14.474c-1.477-1.709-2.439-2.739-2.38-2.787.278.177.532.388.758.63a36.417 36.417 0 0 1 1.885 1.943 62.831 62.831 0 0 1 5.558 6.917 64.369 64.369 0 0 1 4.537 7.625 41.61 41.61 0 0 1 1.127 2.437c.152.288.263.595.331.914Z"/><path fill="#0075FF" d="M438.923 477.7h-36.798a2.317 2.317 0 0 1-1.549-.602 2.32 2.32 0 0 1-.744-1.487l-.971-10.733a2.277 2.277 0 0 1 .587-1.757 2.28 2.28 0 0 1 1.696-.748h39.11a2.276 2.276 0 0 1 1.709.795 2.297 2.297 0 0 1 .535 1.807l-1.321 10.685a2.302 2.302 0 0 1-2.254 2.04Z"/><path fill="#211F54" d="M438.922 477.7a2.73 2.73 0 0 0 1.069-.321c.393-.225.708-.563.904-.971.215-.579.33-1.189.34-1.806.165-1.418.36-3.138.593-5.129.116-.972.243-2.06.379-3.196.048-.554.175-1.175.165-1.719a2.165 2.165 0 0 0-.739-1.496 2.238 2.238 0 0 0-1.681-.506h-39.041a2.028 2.028 0 0 0-1.759 1.613c-.029.21-.029.422 0 .632l.068.698c.162 1.872.327 3.718.495 5.538.078.902.166 1.806.243 2.69l.117 1.331c.002.413.091.819.262 1.195.758 1.611 2.838.971 4.441 1.126l17.791.059 12 .078 3.255.048h.846c.097-.009.194-.009.291 0H434.569l-12 .088h-20.327a2.595 2.595 0 0 1-2.342-1.38 3.397 3.397 0 0 1-.311-1.37l-.116-1.331c-.088-.893-.166-1.787-.253-2.69-.168-1.819-.337-3.665-.505-5.536l-.068-.71a3.022 3.022 0 0 1 .048-.777 2.558 2.558 0 0 1 2.186-2.01h39.11c.349-.031.701.008 1.035.114.333.107.642.279.909.507a2.442 2.442 0 0 1 .835 1.739c0 .661-.136 1.204-.184 1.777a260.6 260.6 0 0 0-.418 3.196c-.263 1.943-.486 3.701-.68 5.119a5.634 5.634 0 0 1-.399 1.856 2.322 2.322 0 0 1-1.817 1.214c-.095.13-.214.242-.35.33ZM352.18 464.461c.287.107.555.258.797.447.496.311 1.195.787 2.05 1.399a66.145 66.145 0 0 1 6.297 5.245 64.567 64.567 0 0 1 5.606 5.983 45.168 45.168 0 0 1 1.516 1.943c.193.24.359.501.496.778a28.542 28.542 0 0 1-2.284-2.497 90.505 90.505 0 0 0-5.674-5.828 100.772 100.772 0 0 0-6.17-5.324 29.778 29.778 0 0 1-2.634-2.146Z"/><path fill="#133578" d="M398.258 457.739c.253-.194.194-33.656 1.584-37.668a22.54 22.54 0 0 1 2.41-5.391l-.904 40.699-3.09 2.36ZM421.559 373.232l24.486 32.744 3.167-8.081-3.993 5.109s-21.085-28.276-23.66-29.772ZM401.348 462.373s21.513-4.74 38.731 0h-38.731ZM359.428 470.609c-3.653-4.293-9.027-6.701-14.342-8.576-5.315-1.875-10.844-3.371-15.605-6.392a4.706 4.706 0 0 1-1.729-1.593 1.852 1.852 0 0 1 .174-2.195c.681-.651 1.779-.447 2.682-.175a61.218 61.218 0 0 1 28.179 18.096" opacity=".3"/><path fill="#211F54" d="M340.889 455.758a9.169 9.169 0 0 1-2.284-.69 33.671 33.671 0 0 1-5.159-2.555 32.062 32.062 0 0 1-4.635-3.4 8.71 8.71 0 0 1-1.662-1.709c.667.427 1.3.905 1.895 1.428a48.493 48.493 0 0 0 4.664 3.254 49.915 49.915 0 0 0 5.043 2.651c.741.278 1.456.619 2.138 1.021ZM347.37 465.675c.068.136-3.09 1.642-6.588 4.128-3.498 2.487-5.976 4.944-6.083 4.857a8.386 8.386 0 0 1 1.526-1.719 36.995 36.995 0 0 1 9.017-6.382 8.663 8.663 0 0 1 2.128-.884ZM395.381 434.805c.068.117-8.94 6.023-20.123 13.192-11.184 7.168-20.318 12.88-20.406 12.763-.087-.116 8.94-6.022 20.124-13.191 11.184-7.168 20.327-12.88 20.405-12.764Z"/><path fill="#4A4566" d="M448.796 401.071s.087-.116.291-.31.534-.457.972-.768a15.867 15.867 0 0 1 4.013-2.108c.447-.155.971-.31 1.438-.436l.787-.185c.317-.093.655-.093.972 0a.972.972 0 0 1 .573.864 1.324 1.324 0 0 1-.36.972 5.738 5.738 0 0 1-1.613 1.029 16.928 16.928 0 0 1-3.77 1.302c-.694.158-1.399.265-2.108.32a1.309 1.309 0 0 1-1.157-.466 4.658 4.658 0 0 1-.534-.971 30.605 30.605 0 0 1-1.428-4.022c-.185-.66-.34-1.321-.467-1.942a5.526 5.526 0 0 1-.184-2.011c.07-.365.279-.689.583-.903a1.05 1.05 0 0 1 1.078-.087c.55.321.964.833 1.166 1.437.425.966.716 1.986.865 3.031a11.762 11.762 0 0 1-.204 4.516c-.1.4-.227.792-.379 1.175a1.927 1.927 0 0 1-.185.389c-.048 0 .166-.573.37-1.603.282-1.461.299-2.962.048-4.429a11.718 11.718 0 0 0-.894-2.914 2.278 2.278 0 0 0-.971-1.195c-.428-.232-.972.146-1.021.68-.04.613.026 1.227.195 1.817.136.631.301 1.282.476 1.943.379 1.349.853 2.67 1.418 3.953.115.316.269.616.457.893a.814.814 0 0 0 .748.291c.68-.059 1.355-.163 2.021-.311a15.956 15.956 0 0 0 3.673-1.243 5.46 5.46 0 0 0 1.487-.893c.35-.35.34-.972 0-1.136a2.985 2.985 0 0 0-1.458.135c-.48.108-.953.24-1.418.399a17.528 17.528 0 0 0-4.023 1.942c-.952.506-1.438.874-1.457.845Z"/><path fill="#4A4566" d="M450.856 430.978a9.948 9.948 0 0 0 .087-4.4c-.243-1.35-.787-2.914-1.302-4.672a11.597 11.597 0 0 1-.428-5.993c.224-1.049.525-2.04.7-3.002a7.674 7.674 0 0 0 0-2.778c-.33-1.758-1.03-3.293-1.302-4.672a6.697 6.697 0 0 1 0-3.322c.083-.288.2-.566.35-.826.116-.174.184-.261.194-.252.01.01-.194.388-.359 1.127a7.106 7.106 0 0 0 .155 3.196c.301 1.33 1.04 2.826 1.409 4.672.181.963.181 1.95 0 2.914-.175.971-.476 2.001-.69 3.02a11.414 11.414 0 0 0 .379 5.76 40.976 40.976 0 0 1 1.205 4.74 9 9 0 0 1 0 3.313c-.05.416-.185.815-.398 1.175ZM454.402 414.631a6.641 6.641 0 0 1-1.632-1.632 15.835 15.835 0 0 1-3.401-10.432 6.53 6.53 0 0 1 .359-2.282 19.522 19.522 0 0 0 4.674 14.346Z"/><path fill="#211F54" d="M415.155 364.578a1.19 1.19 0 0 1-.252.174l-.748.467-2.915 1.729-10.689 6.352a1745.5 1745.5 0 0 0-35.117 21.428c-13.613 8.538-25.808 16.513-34.593 22.273l-10.387 6.897-2.827 1.864-.748.476c-.169.11-.256.159-.263.146l.233-.194.719-.515 2.779-1.942c2.41-1.681 5.928-4.09 10.301-7.024a1310.05 1310.05 0 0 1 34.514-22.408 1310.808 1310.808 0 0 1 35.205-21.312c4.547-2.641 8.249-4.769 10.814-6.207l2.915-1.651.778-.418.281-.135Z"/></g><defs><clipPath id="a"><path fill="#fff" d="M0 0h686v589H0z"/></clipPath></defs></svg>