<svg xmlns="http://www.w3.org/2000/svg" width="518" height="676" fill="none"><g clip-path="url(#a)"><mask id="b" width="518" height="676" x="0" y="0" maskUnits="userSpaceOnUse" style="mask-type:alpha"><path fill="#211F54" d="M518 0H0v676h518V0Z"/></mask><g mask="url(#b)"><path fill="#383669" d="M67.479 761.438S44.395 641.944 44.333 617.375c-.074-34.005 26-47.543 26-47.543L60.206 541h55.68l-8.798 28.636s29.348 15.528 25.25 50.797c-7.654 65.933-19.836 140.956-19.836 140.956l-45.023.049Z"/><path fill="#504E83" d="M209.857 67.874H-20.512v413.182h230.369V67.874Z"/><path fill="#383669" d="M198.267 79.853H-11.317v388.881h209.584V79.853Z"/><path fill="#36346B" d="m219.6 484.763-9.742-3.721V60.87h9.742v423.893Z"/><path fill="#423F76" d="m40.073 331.049 54.506-50.508c6.892-6.396 15.914-13.292 24.779-10.149 4.276 1.564 7.487 5.16 11.669 6.896 8.348 3.472 17.903-1.564 24.324-7.912 6.422-6.349 11.497-14.324 19.281-18.937 7.785-4.613 19.876-4.034 23.729 4.144v54.98l-79.191 33.808-79.097-12.322Z"/><path fill="#8689AA" d="M-11.317 299.445c20.064-8.147 40.08-1.219 54.428 14.965 3.023 3.409 5.78 7.349 9.93 9.226 5.623 2.549 12.123.641 18.248 0 8.427-.83 16.92.683 24.54 4.369a45.923 45.923 0 0 1 18.642 16.522l-66.974 32.838-58.814-.422v-77.498Z"/><path fill="#6E7191" d="M198.283 299.696c-13.22-6.364-24.842 1.33-37.027 9.492-12.186 8.163-23.494 18.608-37.81 21.892-9.555 2.189-19.798.97-29.023 4.254-18.796 6.692-29.76 30.539-49.636 31.68-10.823.626-20.534-5.926-30.198-10.852-9.664-4.925-17.23-9.585-25.906-3.002v115.574h209.6V299.696Z"/><path fill="#747799" d="M172.422 199.606c4.348-18.568-7.204-37.14-25.802-41.481-18.598-4.342-37.2 7.191-41.549 25.759-4.348 18.568 7.203 37.14 25.802 41.481 18.598 4.342 37.2-7.191 41.549-25.759Z"/><path fill="#504E83" d="M202.825 191.722H-11.317v4.144h214.142v-4.144ZM202.825 284.323H-11.317v4.144h214.142v-4.144Z"/><path fill="#6E7191" d="M202.825 376.943H-11.317v4.144h214.142v-4.144Z"/><path fill="#504E83" d="M88.188 193.786v285.973h10.588V193.786H88.188ZM33.839 79.853h-4.793V193.8h4.793V79.853ZM75.22 79.853h-4.793V193.8h4.793V79.853ZM116.585 79.853h-4.792V193.8h4.792V79.853ZM157.966 79.853h-4.793V193.8h4.793V79.853Z"/><path fill="#36346B" d="M219.6 56.6H-30.269v11.274H219.6V56.6Z"/><path fill="#6E7191" d="M226.194 486.153h-263.37v10.508h263.37v-10.508Z"/><path fill="#504E83" d="m209.858 481.039 16.336 5.113h-263.37l16.649-5.113h230.385Z"/><path fill="#05C168" d="M146.176 289.992c-8.254 1.313-11.951 11.462-11.23 19.797.72 8.334 4.15 16.466 3.226 24.785-1.159 10.555-9.147 19.468-10.086 30.054-1.097 12.51 7.737 23.534 10.384 35.778 1.284 5.958 1.096 12.244 3.32 17.92a22.424 22.424 0 0 0 9.931 11.408 22.477 22.477 0 0 0 28.059-5 22.382 22.382 0 0 0 5.365-14.132c.188-9.586-5.732-18.609-5.012-28.147.533-7.068 4.699-13.761 3.79-20.782-1.049-8.366-8.818-14.293-11.559-22.268-2.741-7.974-.094-16.747-1.049-25.129-1.692-15.027-10.04-25.504-25.139-24.284Z"/><path fill="#05C168" d="M103.964 362.659c-1.41 13.932 4.699 30.305 11.919 42.33a66.52 66.52 0 0 0 31.216 27.036c1.457.61 3.274 1.126 4.511.141a4.487 4.487 0 0 0 1.128-3.581 68.295 68.295 0 0 0-13.395-41.069 68.474 68.474 0 0 0-35.379-24.857Z"/><path fill="#000" d="M103.964 362.658c-1.41 13.933 4.699 30.305 11.919 42.33a66.523 66.523 0 0 0 31.216 27.037c1.457.61 3.274 1.126 4.511.141a4.49 4.49 0 0 0 1.128-3.581 68.298 68.298 0 0 0-13.395-41.07 68.48 68.48 0 0 0-35.379-24.857Z" opacity=".1"/><path fill="#EFF0F7" d="M164.704 461.141a3.482 3.482 0 0 1-.407-.782l-.987-2.283a442.45 442.45 0 0 0-3.681-8.35 289.147 289.147 0 0 0-30.417-51.947 263.485 263.485 0 0 0-5.482-7.302l-1.566-1.986a4.684 4.684 0 0 1-.486-.72s.235.188.611.626l1.567 1.892c1.409 1.642 3.351 4.081 5.701 7.162a253.055 253.055 0 0 1 30.574 52.04 152.099 152.099 0 0 1 3.461 8.476l.862 2.345c.111.267.195.545.25.829ZM155.745 328.428c.076.445.123.894.141 1.345.078.938.172 2.22.282 3.831.219 3.409.532 8.209.908 14.073a4998.636 4998.636 0 0 0 3.133 46.521 9401.663 9401.663 0 0 0 3.477 46.52c.454 5.896.814 10.681 1.081 14.074.109 1.564.188 2.893.25 3.831.042.447.042.898 0 1.345a8.303 8.303 0 0 1-.203-1.329c-.094-.939-.235-2.221-.408-3.816-.313-3.409-.767-8.194-1.331-14.073-1.065-11.9-2.412-28.335-3.696-46.505-1.285-18.171-2.256-34.637-2.867-46.552-.266-5.911-.485-10.712-.658-14.074 0-1.563-.094-2.893-.125-3.846a8.163 8.163 0 0 1 .016-1.345Z"/><path fill="#312E72" d="M143.238 447.6a6 6 0 0 1 5.991-6.319h22.585a6 6 0 0 1 6 6v19.598c0 4.438-1.766 8.694-4.909 11.831a16.771 16.771 0 0 1-11.85 4.901 16.792 16.792 0 0 1-11.532-4.591 16.74 16.74 0 0 1-5.212-11.249l-1.073-20.171Z"/><path fill="#DCDDEB" d="M177.97 453.48s-.438-.25-1.284-.532a7.355 7.355 0 0 0-3.665-.14 29.406 29.406 0 0 0-5.278 1.845 14.388 14.388 0 0 1-3.321.907 10.985 10.985 0 0 1-3.696-.188 60.838 60.838 0 0 1-6.657-2.142 14.205 14.205 0 0 0-5.451-.782 7.202 7.202 0 0 0-3.477 1.11c-.736.501-1.049.892-1.112.845.203-.437.516-.814.909-1.095a7.183 7.183 0 0 1 3.633-1.439 14.12 14.12 0 0 1 5.733.642c2.067.625 4.229 1.563 6.578 2.064 1.13.252 2.294.321 3.446.203a15.095 15.095 0 0 0 3.133-.829 25.368 25.368 0 0 1 5.45-1.704 7.21 7.21 0 0 1 3.885.406c.877.391 1.206.798 1.174.829Z"/><path fill="#DCDDEB" d="M177.971 456.467s-.438-.25-1.284-.532a7.395 7.395 0 0 0-3.712-.188 28.162 28.162 0 0 0-5.278 1.846 15.225 15.225 0 0 1-3.321.907 11.36 11.36 0 0 1-3.696-.188 64.173 64.173 0 0 1-6.657-2.158 14.224 14.224 0 0 0-5.451-.782 7.176 7.176 0 0 0-3.477 1.126c-.736.485-1.049.876-1.112.829.203-.437.516-.814.909-1.095a7.042 7.042 0 0 1 3.633-1.423c1.935-.199 3.89.02 5.733.641 2.067.61 4.229 1.564 6.578 2.064 1.131.248 2.295.311 3.446.188a13.683 13.683 0 0 0 3.133-.813 26.355 26.355 0 0 1 5.45-1.72 7.21 7.21 0 0 1 3.885.406c.487.168.913.479 1.221.892ZM149.136 458.171c0 .109-.266.25-.36.656-.094.407.078.892.658.798.579-.094.611-.594.376-.97-.235-.375-.548-.391-.564-.5-.016-.109.439-.344.987.109a1.323 1.323 0 0 1 .423 1.126 1.283 1.283 0 0 1-1.097 1.048 1.3 1.3 0 0 1-1.378-.657 1.274 1.274 0 0 1-.114-.612c.014-.21.08-.413.192-.592.376-.594.909-.516.877-.406ZM161.775 451.524c-.11 0 .157-.531.862-.422a1.038 1.038 0 0 1 .814.892 1.187 1.187 0 0 1-1.555 1.274 1.183 1.183 0 0 1-.622-.477 1.09 1.09 0 0 1 0-1.188c.376-.579.861-.501.861-.391 0 .109-.25.266-.344.625a.557.557 0 0 0 .125.501.543.543 0 0 0 .533.156.485.485 0 0 0 .297-.438.426.426 0 0 0-.055-.239.427.427 0 0 0-.18-.167c-.376-.172-.658-.047-.736-.126ZM174.007 457.968c0-.094.47-.297 1.018.219a1.197 1.197 0 0 1 .298 1.251 1.299 1.299 0 0 1-2.537-.11 1.124 1.124 0 0 1 .516-1.204c.674-.391 1.128 0 1.034.078-.094.079-.391 0-.689.376a.53.53 0 0 0-.125.563.637.637 0 0 0 .517.422.661.661 0 0 0 .579-.391.681.681 0 0 0 0-.626c-.266-.375-.626-.453-.611-.578Z"/><path fill="#4E4B88" d="m388.192 154.563-33.265.307.307 33.211 33.266-.307-.308-33.211Z"/><path fill="#7976AB" d="M388.132 163.025c-5.45.51-10.925.713-16.398.609-5.473.199-10.953.101-16.416-.296a151.12 151.12 0 0 1 16.399-.608 151.088 151.088 0 0 1 16.415.295ZM378.042 173.326a12.578 12.578 0 0 1-.383-1.444 6.14 6.14 0 0 0-2.283-3.166 5.94 5.94 0 0 0-5.507-.696 5.749 5.749 0 0 0-3.742 5.472 5.74 5.74 0 0 0 3.917 5.349 5.926 5.926 0 0 0 5.489-.8 6.122 6.122 0 0 0 2.23-3.201c.092-.493.208-.981.349-1.462a3.172 3.172 0 0 1 0 1.549 6.022 6.022 0 0 1-2.178 3.619 6.462 6.462 0 0 1-6.152 1.078 6.549 6.549 0 0 1-4.421-6.13 6.543 6.543 0 0 1 4.317-6.205 6.487 6.487 0 0 1 6.169.974 6.133 6.133 0 0 1 2.248 3.584 3 3 0 0 1-.053 1.479Z"/><path fill="#36346B" d="M517.122 187.87H308.163v10.648h208.959V187.87Z"/><path fill="#36346B" d="M481.851 195.981h-5.908v34.952h5.908v-34.952ZM350.055 195.455h-6.082v36.013h6.082v-36.013Z"/><path fill="#05C168" d="M406.134 16.694a26.507 26.507 0 0 1 10.163 2.924 26.457 26.457 0 0 1 8.204 6.663 46.625 46.625 0 0 1 9.219 18.98c3.485 13.292 1.133 28.916-2.771 42.068-14.342-5.219-23.072-20.633-27.011-28.706-6.221-12.77-9.706-39.632 2.196-41.929ZM451.493 103.58a22.594 22.594 0 0 1-.871-22.617 29.945 29.945 0 0 1 7.654-8.993 30.006 30.006 0 0 1 10.539-5.343c3.486-1.044 7.598-1.461 10.63.592a9.718 9.718 0 0 1 3.642 9.081 19.708 19.708 0 0 1-4.217 9.239c-7.075 9.377-15.683 17.171-27.377 18.041ZM436.265 117.654a52.772 52.772 0 0 0-17.807-17.319 52.868 52.868 0 0 0-23.772-7.264c-4.27-.209-9.358.609-11.17 4.454-1.813 3.845.819 8.316 3.764 11.395a45.142 45.142 0 0 0 23.057 12.358 45.201 45.201 0 0 0 26.05-2.493"/><path fill="#DCDDEB" d="M451.615 149.163a15.588 15.588 0 0 1-.592-2.818c-.314-1.74-.732-4.454-1.185-7.742a99.516 99.516 0 0 1-.575-25.871 48.836 48.836 0 0 1 9.654-23.835 32.422 32.422 0 0 1 5.559-5.567c.714-.592 1.359-.957 1.742-1.235.202-.159.425-.287.663-.383a48.173 48.173 0 0 0-7.441 7.568 50.4 50.4 0 0 0-9.236 23.609 109.12 109.12 0 0 0 .331 25.644c.366 3.167.662 5.776.888 7.76.133.951.197 1.91.192 2.87Z"/><path fill="#DCDDEB" d="M410.593 36.912c.216.35.402.716.558 1.096l1.446 3.218a593.459 593.459 0 0 1 5.106 11.9c4.235 10.074 9.898 24.079 15.806 39.685 5.907 15.606 10.944 29.854 14.446 40.224 1.743 5.219 3.137 9.377 4.061 12.3.418 1.392.766 2.505 1.045 3.358.142.382.241.779.297 1.183a5 5 0 0 1-.471-1.131 193.65 193.65 0 0 1-1.202-3.306l-4.34-12.178c-3.642-10.3-8.713-24.514-14.673-40.102a2819.463 2819.463 0 0 0-15.561-39.772L412.266 41.4c-.523-1.357-.958-2.453-1.289-3.288a5.56 5.56 0 0 1-.384-1.2Z"/><path fill="#DCDDEB" d="M401.41 104.032c.921-.016 1.841.042 2.753.174 1.073.064 2.139.209 3.189.435 1.415.236 2.816.544 4.2.922l2.405.661c.836.244 1.742.592 2.561.905a55.92 55.92 0 0 1 5.507 2.314 66.2 66.2 0 0 1 11.519 7.342 64.554 64.554 0 0 1 9.689 9.864 55.625 55.625 0 0 1 3.398 4.906c.488.801.993 1.549 1.394 2.314l1.15 2.21a42.084 42.084 0 0 1 1.743 3.914c.429.983.79 1.995 1.08 3.027.311.868.556 1.758.732 2.662-.209 0-1.22-3.74-4.147-9.307l-1.185-2.158c-.401-.748-.924-1.479-1.412-2.262-.958-1.583-2.195-3.131-3.485-4.801a62.16 62.16 0 0 0-20.807-16.876c-1.882-.87-3.642-1.74-5.402-2.366-.854-.313-1.743-.679-2.492-.94l-2.37-.713c-6.03-1.757-10.02-1.966-10.02-2.227Z"/><path fill="#615F91" d="M424.326 136.322h51.634v30.168a21.362 21.362 0 0 1-6.272 15.119 21.436 21.436 0 0 1-15.145 6.263h-8.8a21.436 21.436 0 0 1-15.144-6.263 21.364 21.364 0 0 1-6.273-15.119v-30.168Z"/><path fill="#7876B4" d="M506.278 256.117a2.893 2.893 0 0 1-4.025.361l-87.448-72.458 3.664-4.379 87.401 72.476a2.863 2.863 0 0 1 .408 4Z"/><path fill="#4B3CFB" d="M441.78 202.62s-5.331 13.542-10.792 12.982c-5.461-.56-6.945-9.281-6.945-9.281s-4.498 7.754-9.146 4.013c-4.649-3.741-3.42-12.961-3.42-12.961s-7.671 4.787-10.326.666c-3.641-5.677 7.332-15.29 7.332-15.29s7.932-21.227 13.825-20.706c4.857.415 3.791 8.468 3.791 8.468s3.969-5.602 8.783-5.683c4.814-.081 2.989 11.842 2.989 11.842s8.5-5.266 11.436-.709c2.936 4.556-5.645 11.612-5.645 11.612s11.325-2.763 10.207 3.717c-1.118 6.479-12.089 11.33-12.089 11.33Z"/><path fill="#fff" d="M412.851 147.09c-4.588-3.809-10.765 1.188-10.765 1.188s1.345-5.848-1.589-7.38c-5.971-3.155-12.649 10.218-12.649 10.218s-18.401 7.228-18.598 13.159c-.197 5.931 7.663 5.252 7.663 5.252a8.809 8.809 0 0 0-2.584 7.7c.802 4.719 12.237.712 12.237.712s-3.608 9.315 1.401 11.364c3.575 1.465 7.314-3.03 9.182-5.753-1.362 2.535-2.963 6.932.517 9.625 1.683 1.326 4.281-.712 6.857-3.746a4.002 4.002 0 0 0 3.369 2.716c4.077.602 6.947-6.566 6.795-11.192 4.219-.95 8.318-2.649 7.251-5.713a7.492 7.492 0 0 0-4.91-4.403c2.66-4.18 5.408-9.411 4.557-12.342-1.526-5.308-8.47.405-8.47.405s4.324-8.002-.264-11.81Z"/><path fill="#4B3CFB" d="M375.076 124.854s.109-7.567-4.971-9.74c-5.08-2.174-10.142 9.777-10.142 9.777s-12.031-2.573-15.135 3.224c-3.105 5.798 4.418 11.749 4.418 11.749s-6.054 2.786-4.66 8.037c1.394 5.25 11.111 2.847 11.111 2.847s-5.478 10.815-.906 12.228c4.572 1.412 10.369-4.047 10.369-4.047s-2.996 9.009 2.901 9.594c2.609.262 5.469-3.189 7.868-7.114a4.869 4.869 0 0 0 2.618 2.127 4.883 4.883 0 0 0 3.374-.083c6.645-2.592 2.933-9.585 2.933-9.585s14.199-2.353 13.475-7.431c-.293-2.156-2.712-2.798-5.39-2.848 2.961-2.475 5.006-5.191 3.781-7.603-2.543-5.334-11.948-1.339-11.948-1.339s4.82-5.358 1.65-10.369c-3.17-5.01-11.346.576-11.346.576Z"/><path fill="#FFBE9D" d="M502.189 248.822s2.355-.475 3.307.499c2.07 2.137-1.356 5.011-1.356 5.011a130.215 130.215 0 0 1-10.539 9.121s-56.361 71.066-67.257 75.816c-8.66 3.919-60.643 3.159-80.889 2.708l-18.723 61.755 15.416 59.237-103.299 1.353 24.219-59.688-3.949-13.824-9.089-18.668c-22.149 49.38-37.494 126.692-42.823 153.033l.381 2.375a60.088 60.088 0 0 0 1.665 12.018 17.475 17.475 0 0 0 2.379 5.558 26.877 26.877 0 0 0 4.592 5.938 2.374 2.374 0 0 1-1.166 4.252c-2.094-.095-7.185-3.943-10.539-10.57-3.355-6.626-5.853 4.822-6.852 8.955-.999 4.133-4.639 16.84-6.162 17.552-2.236 1.022-3.759-1.092-2.664-5.273 1.094-4.18 3.402-16.697 1.237-17.125-2.165-.427-6.923 20.783-6.923 20.783s-.286 4.679-2.855 4.299c-4.663-.712 2.022-22.873 2.712-24.963.428-1.473-1.927-1.971-2.379-.404-.452 1.568-4.235 21.234-8.993 20.569-3.64-.522 5.329-18.265 3.854-22.778-1.475-4.512-5.424 14.156-8.898 13.515-1.285-.237-2.212-.594 1.618-10.997a239.714 239.714 0 0 1 11.134-22.968c5.448-56.529 36.329-157.166 49.961-199.682a36.506 36.506 0 0 1 10.861-16.433 36.6 36.6 0 0 1 17.83-8.411 289.753 289.753 0 0 1 44.109-3.872c5.852-.071 6.899-.902 12.775-1.164a90.845 90.845 0 0 1 13.894.95c13.537 1.426 81.008 8.385 84.362 5.202 3.759-3.539 55.671-53.252 55.671-53.252h.19a71.73 71.73 0 0 0 3.212-10.735c.431-1.966.52-3.991.261-5.986a26.527 26.527 0 0 0-1.665-7.315c-1.023-2.067.975-4.299 2.855-3.349 1.879.95 4.877 6.555 5.115 13.989.238 7.435 9.968-5.225 9.968-5.225 2.234-1.164 6.333-1.273 4.854 7.601 1.531-.045 3.054.23 4.472.807a1.213 1.213 0 0 1 .69 1.211 13.792 13.792 0 0 0 0 3.373s2.998-.261 3.426 1.069a12.152 12.152 0 0 1 0 4.133Z"/><path fill="#0075FF" d="M234.304 420.216c2.998-10.213 18.391-60.709 18.391-60.709s7.565 41.162 5.567 46.126a87.987 87.987 0 0 1-6.495 12.256c-17.463 26.53-15.179 39.808-15.179 39.808L342.1 454.49c.238-14.726-8.493-48.976-10.301-54.439-1.808-5.463 4.211-23.348 4.211-23.348s11.895-12.09 11.467-18.313a100.452 100.452 0 0 0-2.07-16.626l64.235 2.375-2.022-43.466-92.26-9.215c-3.212 9.049-32.261 4.607-32.261 4.607-31.356 1.045-33.307 6.793-46.344 16.912-13.038 10.118-34.616 96.955-34.616 96.955l32.165 10.284Z"/><path fill="#fff" d="M296.684 409.932a22.236 22.236 0 0 1-5.543.285c-3.45 0-8.184-.238-13.394-.76-5.211-.523-9.921-1.259-13.276-1.924a22.936 22.936 0 0 1-5.4-1.378c1.86.001 3.716.176 5.543.523 3.378.427 8.065 1.021 13.252 1.544 5.186.522 9.896.878 13.299 1.116a29.33 29.33 0 0 1 5.519.594ZM303.916 400.977a24.458 24.458 0 0 1-5.757 1.971 105.952 105.952 0 0 1-29.097 3.444c-2.03.066-4.06-.126-6.042-.57a40.667 40.667 0 0 1 6.042-.309c3.736-.119 8.874-.38 14.537-1.045 5.662-.665 10.705-1.615 14.274-2.375a39.36 39.36 0 0 1 6.043-1.116ZM339.413 361.024a24.684 24.684 0 0 1-.738 5.368 242.8 242.8 0 0 1-2.783 12.755c-1.213 4.94-2.379 9.5-3.426 12.588a23.738 23.738 0 0 1-1.856 5.107c.133-1.806.468-3.59 1-5.321.904-3.705 1.927-7.98 3.069-12.659 1.142-4.68 2.236-8.955 3.14-12.66a22.61 22.61 0 0 1 1.594-5.178ZM235.423 414.158a110.75 110.75 0 0 1-16.249-3.777 113.06 113.06 0 0 1-15.94-4.988 114.484 114.484 0 0 1 16.249 3.777 111.735 111.735 0 0 1 15.94 4.988ZM346.55 341.241a8.018 8.018 0 0 1-2.712 0 28.2 28.2 0 0 1-7.257-1.734 29.833 29.833 0 0 1-10.401-6.625 29.765 29.765 0 0 1-6.823-10.262 30.634 30.634 0 0 1-2.117-13.373 20.757 20.757 0 0 1 3.259-10.593 11.017 11.017 0 0 1 6.019-4.442 7.303 7.303 0 0 1 2.022-.261h.714s-.999 0-2.593.642a10.812 10.812 0 0 0-5.448 4.441c-3.236 5.083-4.14 14.37-.69 23.039a29.014 29.014 0 0 0 7.351 10.736 31.232 31.232 0 0 0 9.017 5.796 45.896 45.896 0 0 0 9.659 2.636ZM402.007 343.284a197.566 197.566 0 0 1-.571-21.899c-.186-7.298.036-14.602.666-21.875.596 7.275.786 14.578.571 21.875.2 7.307-.022 14.619-.666 21.899Z"/><path fill="#FFBE9D" d="M314.741 294.118c.261-5.296.809-11.282.809-11.282s13.132-1.449 13.917-14.987c.785-13.539 0-44.773 0-44.773l-23.791-12.16-26.407 20.735 4.068 67.693 24.219 1.544a7.002 7.002 0 0 0 4.994-1.902 6.98 6.98 0 0 0 2.191-4.868Z"/><path fill="#EB996E" d="M317.097 257.136s0 .262-.214.57a1.763 1.763 0 0 1-1.499.665c-1.522 0-2.997-1.757-3.521-3.8a6.206 6.206 0 0 1 0-3.016c.049-.432.205-.846.455-1.202.249-.357.583-.646.973-.841a1.31 1.31 0 0 1 .999 0c.237.118.429.309.547.546.167.404 0 .665 0 .642 0-.024 0-.238-.238-.475a.853.853 0 0 0-1.118-.238 2.02 2.02 0 0 0-.975 1.686 6.049 6.049 0 0 0 0 2.684c.475 1.853 1.76 3.349 2.902 3.492a1.655 1.655 0 0 0 1.261-.356c.286-.19.381-.38.428-.357Z"/><path fill="#6E7191" d="M337.628 215.759c-1.832-6.223-8.47-9.31-14.513-11.02-9.207-2.613-19.151-3.753-28.144-.452-8.993 3.302-19.794 9.097-19.794 19.002-5.305-.428-8.351 4.204-10.444 9.952a37.205 37.205 0 0 0-2.379 10.926c-.666 12.968-4.306 30.877-12.728 40.378-4.758 5.297-11.349 8.954-14.061 15.557-2.379 5.725-1.142 12.518-3.354 18.313-1.975 5.107-6.329 8.741-9.516 13.182a35.3 35.3 0 0 0-2.261 34.179 43.291 43.291 0 0 0 10.654 13.824 43.35 43.35 0 0 0 15.255 8.503 60.685 60.685 0 0 0 34.139.332 57.127 57.127 0 0 0 22.887-11.329 38.133 38.133 0 0 0 13.275-21.947c1.689-9.691-1.023-19.548-3.045-29.191-6.328-30.474-4.52-32.065 3.474-60.353.19-.499.285-1.022.428-1.52.143-.499.214-.737.309-1.117.227-1.118.347-2.255.357-3.396a6.557 6.557 0 0 1-6.876-1.473 7.112 7.112 0 0 1-1.617-7.126 10.37 10.37 0 0 1 6.138-5.771c2.64-1.093 5.472-1.663 8.065-2.874 5.495-2.613 9.302-8.028 11.895-13.705a18.787 18.787 0 0 0 1.856-12.874ZM236.589 457.695l105.512-3.206 45.916 178.946-8.445 205.264h-55.79l6.828-200.893-40.801-124.579 6.281 333.429-56.384.831-5.924-313.406c-.262-8.717-3.117-28.36-2.046-37.005l4.853-39.381Z"/><path fill="#A0A3BD" d="M303.845 515.768a21.173 21.173 0 0 1-5.163-.309c-3.188-.38-7.541-1.045-12.323-1.995a158.895 158.895 0 0 1-12.157-2.921 19.64 19.64 0 0 1-4.759-1.711c0-.356 7.756 1.497 17.272 3.421 9.517 1.924 17.177 3.159 17.13 3.515Z"/><path fill="#A0A3BD" d="M288.31 837.133c-.333 0-1.808-72.846-3.307-162.7-1.498-89.853-2.379-162.747-2.069-162.747.309 0 1.832 72.823 3.307 162.724 1.475 89.9 2.426 162.723 2.069 162.723ZM371.507 827.441a6.079 6.079 0 0 1 0-.973v-2.851c0-2.565.19-6.246.333-10.926.333-9.5.809-23.3 1.404-40.211 1.284-34.013 3.092-80.899 5.067-132.655v-1.401.166c-12.49-49.879-23.791-95.15-31.999-127.903l-9.516-38.74c-1.094-4.536-1.927-8.075-2.522-10.545-.285-1.164-.476-2.067-.642-2.756a4.089 4.089 0 0 1-.167-.95c.124.3.22.61.286.927.19.665.428 1.567.761 2.707.643 2.376 1.57 5.986 2.76 10.499 2.379 9.168 5.733 22.374 9.921 38.644 8.279 32.73 19.698 77.882 32.355 127.832v1.568c-2.117 51.755-4.044 98.618-5.448 132.63-.737 16.935-1.356 30.64-1.784 40.188-.238 4.751-.429 8.361-.547 10.926 0 1.212-.143 2.162-.167 2.851.004.327-.028.653-.095.973Z"/><path fill="#A0A3BD" d="M353.306 634.245a63.834 63.834 0 0 1-12.324 2.731c-5.139.879-6.665.845-8.64.94v-.475c.643.19.976.309.976.404 0 .095-.405 0-1.071 0h-1.427l1.427-.428c1.856-.546 3.382-.797 8.521-1.724a64.403 64.403 0 0 1 12.538-1.448ZM352.331 641.061a61.506 61.506 0 0 1-11.11-.499c-3.716-.076-6.958-.524-10.603-1.254 7.435-.605 14.46.014 21.713 1.753Z"/><path fill="#A0A3BD" d="M236.136 461.472a14.478 14.478 0 0 0 10.421 5.534c4.249.503 8.547.423 12.775-.238 27.241-3.016 56.099-5.795 82.768-12.279-34.52 1.924-70.991 1.282-105.512 3.206l-.357 2.945" opacity=".2"/><path fill="#000" d="m271.704 510.046 19.46 75.388-1.356-72.205-18.104-3.183Z" opacity=".2"/><path fill="#407BFF" d="M474.005 107.079c6.196 2.355 3.727 9.811 3.727 9.811s5.047-1.569 7.453 2.01c2.406 3.579-6.038 4.819-4.717 6.075 1.321 1.256 6.966 4.019 2.925 7.19-4.042 3.171-9.435-1.711-9.435-1.711s-1.195 2.935-5.849 3.626c-4.655.691-2.768-7.08-2.768-7.08s-3.003 4.034-5.078-2.308a5.444 5.444 0 0 1 .229-4.786 5.469 5.469 0 0 1 3.922-2.764s-2.909-5.558-.409-6.939c2.5-1.382 7.17 3.14 7.17 3.14s-.267-7.441 2.83-6.264Z"/><path fill="#ACAAD1" d="M474.005 107.079c6.196 2.355 3.727 9.811 3.727 9.811s5.047-1.569 7.453 2.01c2.406 3.579-6.038 4.819-4.717 6.075 1.321 1.256 6.966 4.019 2.925 7.19-4.042 3.171-9.435-1.711-9.435-1.711s-1.195 2.935-5.849 3.626c-4.655.691-2.768-7.08-2.768-7.08s-3.003 4.034-5.078-2.308a5.444 5.444 0 0 1 .229-4.786 5.469 5.469 0 0 1 3.922-2.764s-2.909-5.558-.409-6.939c2.5-1.382 7.17 3.14 7.17 3.14s-.267-7.441 2.83-6.264Z"/><path fill="#407BFF" d="M517.027 138.867c1.163 2.826-2.107 4.364-2.107 4.364s2.123 1.177 1.682 3.14c-.44 1.962-3.538-.487-3.522.361.016.847.865 3.626-1.478 3.265-2.343-.361-2.437-3.689-2.437-3.689a3.336 3.336 0 0 1-3.066-.801c-1.714-1.334 1.493-3.139 1.493-3.139s-2.295.282-.833-2.434a2.53 2.53 0 0 1 2.817-1.47c.376.075.73.234 1.035.466 0 0 .944-2.747 2.202-2.339 1.258.408 1.211 3.406 1.211 3.406s2.405-2.543 3.003-1.13Z"/><path fill="#ACAAD1" d="M517.027 138.867c1.163 2.826-2.107 4.364-2.107 4.364s2.123 1.177 1.682 3.14c-.44 1.962-3.538-.487-3.522.361.016.847.865 3.626-1.478 3.265-2.343-.361-2.437-3.689-2.437-3.689a3.336 3.336 0 0 1-3.066-.801c-1.714-1.334 1.493-3.139 1.493-3.139s-2.295.282-.833-2.434a2.53 2.53 0 0 1 2.817-1.47c.376.075.73.234 1.035.466 0 0 .944-2.747 2.202-2.339 1.258.408 1.211 3.406 1.211 3.406s2.405-2.543 3.003-1.13Z"/><path fill="#407BFF" d="M483.031 165.632c-3.271 2.999-6.997-.722-6.997-.722s-.566 3.501-3.444 3.862c-2.877.361-1.085-5.071-2.248-4.615-1.164.455-4.513 2.951-5.189-.424-.676-3.375 3.852-5.134 3.852-5.134a4.694 4.694 0 0 1-.424-4.583c.975-2.983 5.094.471 5.094.471s-1.572-2.999 2.909-2.34a3.676 3.676 0 0 1 3.271 4.71s4.214 0 4.292 1.837c.079 1.836-4.072 3.328-4.072 3.328s4.591 2.119 2.956 3.61Z"/><path fill="#ACAAD1" d="M483.031 165.632c-3.271 2.999-6.997-.722-6.997-.722s-.566 3.501-3.444 3.862c-2.877.361-1.085-5.071-2.248-4.615-1.164.455-4.513 2.951-5.189-.424-.676-3.375 3.852-5.134 3.852-5.134a4.694 4.694 0 0 1-.424-4.583c.975-2.983 5.094.471 5.094.471s-1.572-2.999 2.909-2.34a3.676 3.676 0 0 1 3.271 4.71s4.214 0 4.292 1.837c.079 1.836-4.072 3.328-4.072 3.328s4.591 2.119 2.956 3.61Z"/><path fill="#fff" d="M329.5 258.119c-5.2 1.6-12.167-4.667-15-8v19c0 4.5 3.6 12.9 6 12.5 3-.5 11.5-8 9-23.5Z"/><path stroke="#fff" stroke-width="2" d="M316 253.619c-.833-1.5-4.5-7.1-6.5-3.5-2.5 4.5 1.5 10 5 10"/></g></g><defs><clipPath id="a"><path fill="#fff" d="M0 0h518v676H0z"/></clipPath></defs></svg>