<svg aria-hidden="true" style="position: absolute; width: 0; height: 0; overflow: hidden;" version="1.1" xmlns="http://www.w3.org/2000/svg" xmlns:xlink="http://www.w3.org/1999/xlink">
<defs>
<symbol id="icon-vacuum" viewBox="0 0 37 32">
<path fill="#fff" style="fill: var(--color1, #fff)" d="M6.43 4.963c-1.12 0-2.029 0.906-2.029 2.024 0 1.116 0.909 2.021 2.029 2.021 1.122 0 2.031-0.906 2.031-2.021 0-1.118-0.909-2.024-2.031-2.024z"></path>
<path fill="#fff" style="fill: var(--color1, #fff)" d="M8.461 10.162c0 1.915-1.559 3.467-3.48 3.467-1.923 0-3.48-1.551-3.48-3.467 0-1.913 1.557-3.467 3.48-3.467 1.92 0 3.48 1.553 3.48 3.467z"></path>
<path fill="#fff" style="fill: var(--color1, #fff)" d="M14.26 8.429c0 2.234-1.816 4.045-4.058 4.045s-4.061-1.811-4.061-4.045c0-2.234 1.818-4.043 4.061-4.043s4.058 1.809 4.058 4.043z"></path>
<path fill="#133578" style="fill: var(--color2, #133578)" d="M12.117 22.72h-10.146c-0.478 0-0.877-0.37-0.909-0.845l-0.82-11.381c-0.001-0.009-0.001-0.019-0.001-0.029 0-0.252 0.204-0.456 0.456-0.456 0 0 0.001 0 0.001 0h12.692c0.265 0 0.474 0.223 0.455 0.485l-0.818 11.381c-0.036 0.474-0.43 0.845-0.91 0.845-0 0-0.001 0-0.001 0h0z"></path>
<path fill="#1d53bb" style="fill: var(--color3, #1d53bb)" d="M12.828 21.719h-10.146c-0.478 0-0.877-0.37-0.909-0.845l-0.82-11.381c-0.001-0.009-0.001-0.019-0.001-0.029 0-0.252 0.204-0.456 0.456-0.456 0 0 0.001 0 0.001 0h12.692c0.265 0 0.474 0.223 0.455 0.485l-0.818 11.381c-0.036 0.474-0.43 0.845-0.91 0.845-0 0-0.001 0-0.001 0h0z"></path>
<path fill="#0075ff" style="fill: var(--color4, #0075ff)" d="M14.136 11.731h-12.758c-0.252 0-0.457-0.204-0.457-0.453v-1.816c0-0.251 0.204-0.455 0.457-0.455h12.758c0 0 0.001 0 0.001 0 0.251 0 0.455 0.204 0.456 0.455v1.816c0 0.249-0.204 0.453-0.457 0.453z"></path>
<path fill="#000" style="fill: var(--color5, #000)" d="M2.841 2.642c0 0.639-0.52 1.155-1.159 1.155-0.642 0-1.161-0.516-1.161-1.155s0.52-1.155 1.161-1.155c0.639 0 1.159 0.516 1.159 1.155z"></path>
<path fill="#000" style="fill: var(--color5, #000)" d="M7.352 2.403c0 0.507-0.412 0.916-0.92 0.916-0.509 0-0.921-0.409-0.921-0.916s0.412-0.916 0.921-0.916c0.507 0 0.92 0.409 0.92 0.916z"></path>
<path fill="#000" style="fill: var(--color5, #000)" d="M2.601 5.879c0 0.507-0.413 0.916-0.92 0.916-0.509 0-0.921-0.409-0.921-0.916s0.412-0.916 0.921-0.916c0.507 0 0.92 0.409 0.92 0.916z"></path>
<path fill="#133578" style="fill: var(--color2, #133578)" d="M0.168 16.963c0.107 0.121 0.262 0.197 0.436 0.197 0.153 0 0.292-0.059 0.396-0.156l-0 0 6.72-6.194c0.122-0.106 0.198-0.261 0.198-0.434 0-0.146-0.054-0.28-0.144-0.381l0.001 0.001c-0.211-0.243-0.576-0.264-0.818-0.056l-6.746 6.22c-0.114 0.105-0.185 0.256-0.185 0.423 0 0.146 0.055 0.28 0.145 0.381l-0.001-0.001z"></path>
<path fill="#133578" style="fill: var(--color2, #133578)" d="M28.526 26.456v-1.601c0-0.441 0.358-0.797 0.804-0.797h2.408c0.443 0 0.801 0.357 0.801 0.797v1.601h1.607c0.885 0 1.604 0.714 1.604 1.598v1.598c0 0 0 0 0 0 0 0.442-0.358 0.8-0.8 0.8-0.001 0-0.003 0-0.004 0h-8.827c-0.442 0-0.803-0.357-0.803-0.8v-1.598c0-0.884 0.719-1.598 1.607-1.598h1.604zM16.209 19.965v0.483c-4.654-1.715-11.235-2.694-11.235 4.045v0.857c-0.968 0.643-1.607 1.741-1.607 2.987 0 1.985 1.616 3.592 3.606 3.592 0.002 0 0.004 0 0.006 0 0.844 0 1.619-0.29 2.233-0.776l-0.008 0.006h9.662c2.522 0 4.566-2.009 4.566-4.488 0-1.922-1.418-3.019-3.1-4.251-0.009-0.007-0.045-0.031-0.081-0.055l-0.030-0.018v-2.379c0-0 0-0.001 0-0.001 0-0.442-0.358-0.799-0.799-0.799-0 0-0.001 0-0.001 0h-2.408c-0.001 0-0.002 0-0.003 0-0.442 0-0.8 0.358-0.8 0.8 0 0 0 0 0 0v-0z"></path>
<path fill="none" stroke="#133578" stroke-width="2.3985" stroke-miterlimit="10" stroke-linecap="butt" stroke-linejoin="miter" style="stroke: var(--color2, #133578)" d="M19.296 18.989v-11.723c0-3.31 2.694-5.996 6.019-5.996 3.323 0 6.019 2.686 6.019 5.996v19.188"></path>
<path fill="#1d53bb" style="fill: var(--color3, #1d53bb)" d="M21.3 21.657h-4.012v-3.196c0-0 0-0 0-0.001 0-0.442 0.358-0.8 0.8-0.8 0.001 0 0.002 0 0.004 0h2.408c0 0 0.001 0 0.001 0 0.442 0 0.799 0.358 0.799 0.799 0 0 0 0.001 0 0.001v-0 3.196zM33.339 27.255h-4.012v-3.199c0-0.441 0.358-0.797 0.804-0.797h2.408c0.442 0 0.801 0.357 0.801 0.797v3.199z"></path>
<path fill="#0075ff" style="fill: var(--color4, #0075ff)" d="M35.746 29.654h-8.827c-0.442 0-0.804-0.357-0.804-0.801v-1.598c0-0.884 0.719-1.598 1.607-1.598h7.223c0.885 0 1.604 0.714 1.604 1.598v1.598c0 0 0 0 0 0 0 0.442-0.358 0.8-0.8 0.8-0.001 0-0.002 0-0.004 0h0zM6.054 29.654h13.892c2.522 0 4.565-2.009 4.565-4.488 0-1.922-1.417-3.019-3.1-4.251-2.432-1.655-15.358-7.369-15.358 2.075v6.665z"></path>
<path fill="#1d53bb" style="fill: var(--color3, #1d53bb)" d="M11.658 26.832c0 1.985-1.616 3.592-3.606 3.592s-3.605-1.607-3.605-3.592c0-1.982 1.616-3.589 3.605-3.589s3.606 1.607 3.606 3.589z"></path>
</symbol>
<symbol id="icon-phone" viewBox="0 0 32 32">
<path d="M25.854 31.453h-0.033c-5.279-0.173-11.463-5.29-15.724-9.554-4.266-4.263-9.382-10.451-9.546-15.704-0.062-1.844 4.462-5.123 4.508-5.156 1.173-0.818 2.477-0.527 3.012 0.213 0.362 0.503 3.791 5.7 4.164 6.289 0.387 0.612 0.329 1.523-0.154 2.436-0.267 0.508-1.149 2.060-1.564 2.785 0.448 0.636 1.63 2.197 4.072 4.64 2.444 2.441 4.004 3.627 4.643 4.074 0.724-0.414 2.277-1.298 2.785-1.564 0.9-0.477 1.804-0.538 2.422-0.158 0.631 0.387 5.813 3.832 6.291 4.164 0.401 0.283 0.659 0.765 0.711 1.328 0.049 0.568-0.126 1.169-0.492 1.692-0.030 0.044-3.27 4.514-5.097 4.514z"></path>
</symbol>
<symbol id="icon-person" viewBox="0 0 27 32">
<path fill="#123578" style="fill: var(--color6, #123578)" d="M20.303 18.823h-13.177c-3.639 0-6.588 2.95-6.588 6.588s2.95 6.588 6.588 6.588v0h13.177c3.639 0 6.588-2.95 6.588-6.588s-2.95-6.588-6.588-6.588v0z"></path>
<path fill="#0075ff" style="fill: var(--color4, #0075ff)" d="M13.714 15.058c4.158 0 7.529-3.371 7.529-7.529s-3.371-7.529-7.529-7.529v0c-4.158 0-7.529 3.371-7.529 7.529s3.371 7.529 7.529 7.529v0z"></path>
</symbol>
<symbol id="icon-logo" viewBox="0 0 37 32">
<path d="M5.097 7.309l-4.811 1.026 4.82 1.41c0.609 0.186 1.070 0.679 1.208 1.294l0.002 0.012 1.2 5.766 1.297-5.661c0.159-0.645 0.659-1.142 1.294-1.294l0.012-0.002 4.82-1.096-4.96-1.394c-0.599-0.205-1.045-0.709-1.164-1.33l-0.002-0.011-1.104-5.554-1.253 5.52c-0.161 0.665-0.686 1.175-1.347 1.312l-0.011 0.002zM11.921 22.939l-4.309 0.918 4.317 1.264c0.545 0.167 0.957 0.608 1.081 1.159l0.002 0.010 1.076 5.164 1.161-5.070c0.142-0.578 0.591-1.023 1.159-1.159l0.011-0.002 4.317-0.981-4.442-1.248c-0.536-0.184-0.936-0.635-1.042-1.191l-0.002-0.010-0.99-4.975-1.122 4.944c-0.144 0.596-0.614 1.052-1.206 1.175l-0.010 0.002zM21.69 10.946l-7.371 1.571 7.384 2.162c0.933 0.286 1.638 1.041 1.85 1.983l0.003 0.018 1.839 8.834 1.987-8.674c0.243-0.988 1.010-1.75 1.982-1.983l0.018-0.004 7.384-1.678-7.599-2.134c-0.917-0.315-1.6-1.087-1.782-2.037l-0.003-0.017-1.691-8.512-1.92 8.458c-0.247 1.019-1.051 1.8-2.064 2.011l-0.017 0.003z"></path>
</symbol>
<symbol id="icon-hearts" viewBox="0 0 40 32">
<path fill="#0075ff" style="fill: var(--color4, #0075ff)" d="M19.941 24.789c-1.086-1.086-1.757-2.586-1.757-4.243 0-3.314 2.686-6 6-6 1.657 0 3.157 0.672 4.243 1.757v0c0.254 0.254 0.467 0.531 0.667 0.815 0.2-0.284 0.413-0.562 0.667-0.815 1.084-1.085 2.583-1.757 4.238-1.757 0.002 0 0.003 0 0.005 0h-0c1.534 0 3.071 0.585 4.243 1.756 0.077 0.078 0.132 0.171 0.206 0.253 2.481-4.217 1.949-9.715-1.671-13.335-1.987-1.99-4.733-3.221-7.766-3.221-0.004 0-0.008 0-0.012 0h0.001c-0.004 0-0.009 0-0.014 0-3.033 0-5.779 1.231-7.765 3.221l-0 0c-0.465 0.466-0.857 0.975-1.221 1.497-0.382-0.559-0.784-1.048-1.224-1.499l0.002 0.002c-1.986-1.99-4.732-3.222-7.765-3.222-0.005 0-0.010 0-0.015 0h0.001c-0.004 0-0.008 0-0.013 0-3.033 0-5.779 1.231-7.765 3.221l-0 0c-4.297 4.297-4.297 11.262 0 15.557 1.867 1.868 13.166 11.266 13.95 12.051 0.722 0.723 1.72 1.171 2.822 1.171 0.002 0 0.005 0 0.007 0h-0c0.001 0 0.003 0 0.004 0 1.103 0 2.102-0.447 2.825-1.171v0c0.184-0.184 0.957-0.85 2.037-1.769-1.945-1.652-4.325-3.672-4.926-4.271z"></path>
<path fill="#123578" style="fill: var(--color6, #123578)" d="M38.245 16.305c-1.084-1.087-2.582-1.759-4.238-1.759-0.002 0-0.004 0-0.005 0h0c-0.002 0-0.005 0-0.008 0-1.654 0-3.152 0.671-4.235 1.757l-0 0c-0.239 0.245-0.458 0.511-0.654 0.795l-0.013 0.020c-0.209-0.304-0.428-0.571-0.668-0.817l0.001 0.001c-1.084-1.085-2.583-1.757-4.238-1.757-0.002 0-0.003 0-0.005 0h0c-0 0-0 0-0.001 0-3.313 0-5.999 2.686-5.999 5.999 0 1.657 0.672 3.157 1.758 4.243v0c1.019 1.019 7.181 6.145 7.608 6.572 0.428 0.427 0.986 0.638 1.544 0.638 0.557 0 1.117-0.213 1.544-0.638 0.428-0.427 6.591-5.556 7.608-6.571 1.086-1.085 1.758-2.586 1.758-4.243s-0.672-3.157-1.758-4.243l-0-0z"></path>
</symbol>
<symbol id="icon-check" viewBox="0 0 32 32">
<path fill="#0075ff" style="fill: var(--color4, #0075ff)" d="M15.682 31.362c8.66 0 15.681-7.021 15.681-15.681s-7.021-15.682-15.681-15.682c-8.661 0-15.682 7.021-15.682 15.682s7.021 15.681 15.682 15.681z"></path>
<path fill="#edf5ff" style="fill: var(--color7, #edf5ff)" d="M14.113 21.954c-0 0-0.001 0-0.001 0-0.432 0-0.824-0.175-1.107-0.459l-4.704-4.704c-0.284-0.284-0.46-0.676-0.46-1.109s0.176-0.825 0.46-1.109l0-0c0.284-0.284 0.675-0.459 1.108-0.459s0.825 0.175 1.108 0.459l3.596 3.595 6.732-6.732c0.284-0.284 0.676-0.46 1.109-0.46s0.825 0.176 1.109 0.46l0 0c0.284 0.284 0.46 0.676 0.46 1.109s-0.176 0.825-0.46 1.109l-7.84 7.841c-0.283 0.284-0.675 0.459-1.107 0.459-0.001 0-0.002 0-0.003 0h0z"></path>
</symbol>
<symbol id="icon-cards" viewBox="0 0 42 32">
<path fill="#133578" style="fill: var(--color2, #133578)" d="M27.485 14.015l-22.080-3.895c-1.28-0.226-2.5 0.629-2.725 1.908l-2.27 12.88c-0.226 1.28 0.629 2.5 1.909 2.726l22.080 3.895c1.28 0.226 2.5-0.629 2.726-1.908l2.27-12.88c0.226-1.28-0.629-2.5-1.909-2.726z"></path>
<path fill="#fff" style="fill: var(--color1, #fff)" d="M28.896 12.76l-22.080-3.895c-1.28-0.226-2.5 0.629-2.726 1.909l-2.27 12.88c-0.226 1.28 0.629 2.5 1.909 2.726l22.080 3.895c1.28 0.226 2.5-0.629 2.726-1.909l2.27-12.88c0.226-1.28-0.629-2.5-1.909-2.726z"></path>
<path fill="#4b3cfb" style="fill: var(--color8, #4b3cfb)" d="M8.517 12.957l-2.168-0.382c-0.025-0.005-0.053-0.007-0.082-0.007-0.231 0-0.423 0.166-0.463 0.386l-0 0.003-0.235 1.334c-0.005 0.025-0.007 0.053-0.007 0.082 0 0.231 0.167 0.423 0.386 0.463l0.003 0 2.168 0.382c0.025 0.005 0.053 0.007 0.082 0.007 0.231 0 0.423-0.166 0.463-0.386l0-0.003 0.235-1.334c0.005-0.025 0.007-0.053 0.007-0.082 0-0.231-0.166-0.423-0.386-0.463l-0.003-0z"></path>
<path fill="#dcddeb" style="fill: var(--color9, #dcddeb)" d="M14.364 23.676l-10.356-1.827c-0.025-0.005-0.053-0.007-0.082-0.007-0.231 0-0.423 0.166-0.463 0.386l-0 0.003-0.157 0.889c-0.005 0.025-0.007 0.053-0.007 0.082 0 0.231 0.167 0.423 0.386 0.463l0.003 0 10.356 1.827c0.025 0.005 0.053 0.007 0.082 0.007 0.231 0 0.423-0.166 0.463-0.386l0-0.003 0.157-0.889c0.005-0.025 0.007-0.053 0.007-0.082 0-0.231-0.167-0.423-0.386-0.463l-0.003-0z"></path>
<path fill="#0075ff" style="fill: var(--color4, #0075ff)" d="M21.427 27.21c0.069 0.013 0.149 0.020 0.231 0.020 0.653 0 1.197-0.471 1.309-1.092l0.001-0.008c0.013-0.071 0.021-0.152 0.021-0.235 0-0.735-0.596-1.331-1.331-1.331-0.654 0-1.198 0.472-1.31 1.095l-0.001 0.008c-0.013 0.070-0.020 0.15-0.020 0.231 0 0.653 0.471 1.197 1.091 1.309l0.008 0.001z"></path>
<path fill="#cee5ff" style="fill: var(--color10, #cee5ff)" d="M23.257 27.533c0.069 0.013 0.149 0.020 0.231 0.020 0.653 0 1.197-0.471 1.309-1.092l0.001-0.008c0.013-0.071 0.021-0.152 0.021-0.235 0-0.735-0.596-1.331-1.331-1.331-0.654 0-1.198 0.472-1.31 1.095l-0.001 0.008c-0.013 0.070-0.020 0.15-0.020 0.231 0 0.653 0.471 1.197 1.091 1.309l0.008 0.001z"></path>
<path fill="#eff0f7" style="fill: var(--color11, #eff0f7)" d="M8.282 18.154l-3.489-0.615c-0.025-0.005-0.054-0.007-0.084-0.007-0.274 0-0.496 0.222-0.496 0.496 0 0.243 0.174 0.444 0.404 0.487l0.003 0 3.489 0.615c0.026 0.005 0.056 0.008 0.086 0.008 0.243 0 0.446-0.175 0.488-0.407l0-0.003c0.005-0.026 0.008-0.056 0.008-0.086 0-0.243-0.175-0.446-0.407-0.488l-0.003-0zM14.138 19.187l-3.489-0.616c-0.025-0.005-0.054-0.007-0.084-0.007-0.274 0-0.496 0.222-0.496 0.496 0 0.243 0.174 0.444 0.404 0.487l0.003 0 3.489 0.616c0.025 0.005 0.054 0.007 0.084 0.007 0.274 0 0.496-0.222 0.496-0.496 0-0.243-0.174-0.444-0.404-0.487l-0.003-0zM19.993 20.219l-3.489-0.616c-0.022-0.003-0.048-0.006-0.074-0.006-0.274 0-0.496 0.222-0.496 0.496 0 0.239 0.169 0.438 0.394 0.485l0.003 0.001 3.489 0.616c0.025 0.005 0.054 0.007 0.084 0.007 0.274 0 0.496-0.222 0.496-0.496 0-0.243-0.174-0.444-0.404-0.487l-0.003-0zM25.848 21.252l-3.489-0.616c-0.022-0.003-0.048-0.006-0.074-0.006-0.274 0-0.496 0.222-0.496 0.496 0 0.239 0.169 0.438 0.394 0.485l0.003 0.001 3.489 0.616c0.025 0.005 0.054 0.007 0.084 0.007 0.274 0 0.496-0.222 0.496-0.496 0-0.243-0.174-0.444-0.404-0.487l-0.003-0z"></path>
<path fill="#133578" style="fill: var(--color2, #133578)" d="M35.704 1.974l-22.080 3.895c-1.28 0.226-2.134 1.446-1.909 2.726l2.27 12.88c0.226 1.28 1.446 2.134 2.726 1.909l22.080-3.895c1.28-0.226 2.134-1.446 1.909-2.726l-2.27-12.88c-0.226-1.28-1.446-2.134-2.726-1.909z"></path>
<path fill="#0075ff" style="fill: var(--color4, #0075ff)" d="M36.73 0.512l-22.080 3.895c-1.28 0.226-2.134 1.446-1.909 2.726l2.27 12.88c0.226 1.28 1.446 2.134 2.726 1.908l22.080-3.895c1.28-0.226 2.134-1.446 1.909-2.726l-2.27-12.88c-0.226-1.28-1.446-2.134-2.726-1.909z"></path>
<path fill="#133578" style="fill: var(--color2, #133578)" d="M39.607 3.281l-26.715 4.712 0.562 3.187 26.715-4.712-0.562-3.187zM22.152 12.113l-6.438 1.136c-0.235 0.041-0.412 0.244-0.412 0.489 0 0.274 0.222 0.496 0.496 0.496 0.031 0 0.062-0.003 0.091-0.008l-0.003 0 6.438-1.136c0.233-0.043 0.407-0.245 0.407-0.488 0-0.274-0.222-0.496-0.496-0.496-0.030 0-0.059 0.003-0.087 0.008l0.003-0zM27.962 11.088l-3.948 0.696c-0.234 0.042-0.41 0.245-0.41 0.488 0 0.030 0.003 0.060 0.008 0.089l-0-0.003c0.042 0.234 0.245 0.41 0.488 0.41 0.030 0 0.060-0.003 0.089-0.008l-0.003 0 3.948-0.696c0.235-0.041 0.412-0.244 0.412-0.489 0-0.274-0.222-0.496-0.496-0.496-0.031 0-0.062 0.003-0.091 0.008l0.003-0z"></path>
</symbol>
<symbol id="icon-calendar" viewBox="0 0 29 32">
<path fill="#133578" style="fill: var(--color2, #133578)" d="M27.169 2.243h-23.145c-1.099 0-1.99 0.891-1.99 1.99v25.706c0 1.099 0.891 1.99 1.99 1.99h23.145c1.099 0 1.99-0.891 1.99-1.99v-25.706c0-1.099-0.891-1.99-1.99-1.99z"></path>
<path fill="#fff" style="fill: var(--color1, #fff)" d="M25.135 0.097h-23.145c-1.099 0-1.99 0.891-1.99 1.99v25.706c0 1.099 0.891 1.99 1.99 1.99h23.145c1.099 0 1.99-0.891 1.99-1.99v-25.706c0-1.099-0.891-1.99-1.99-1.99z"></path>
<path fill="#0075ff" style="fill: var(--color4, #0075ff)" d="M0 2.087c0-1.099 0.891-1.99 1.99-1.99h23.145c1.099 0 1.99 0.891 1.99 1.99v2.040h-27.124v-2.040z"></path>
<path fill="#eff0f7" style="fill: var(--color11, #eff0f7)" d="M5.697 10.216h-1.822c-0.733 0-1.326 0.594-1.326 1.326v0 1.822c0 0.733 0.594 1.326 1.326 1.326v0h1.822c0.733 0 1.326-0.594 1.326-1.326v0-1.822c0-0.733-0.594-1.326-1.326-1.326v0zM5.697 16.018h-1.822c-0.733 0-1.326 0.594-1.326 1.326v0 1.822c0 0.733 0.594 1.326 1.326 1.326v0h1.822c0.733 0 1.326-0.594 1.326-1.326v0-1.822c0-0.733-0.594-1.326-1.326-1.326v0zM5.697 21.819h-1.822c-0.733 0-1.326 0.594-1.326 1.326v0 1.822c0 0.733 0.594 1.326 1.326 1.326v0h1.822c0.733 0 1.326-0.594 1.326-1.326v0-1.822c0-0.733-0.594-1.326-1.326-1.326v0zM11.333 10.216h-1.822c-0.733 0-1.326 0.594-1.326 1.326v0 1.822c0 0.733 0.594 1.326 1.326 1.326v0h1.822c0.733 0 1.326-0.594 1.326-1.326v0-1.822c0-0.733-0.594-1.326-1.326-1.326v0z"></path>
<path fill="#4b3cfb" style="fill: var(--color8, #4b3cfb)" d="M11.333 16.018h-1.822c-0.733 0-1.326 0.594-1.326 1.326v0 1.822c0 0.733 0.594 1.326 1.326 1.326v0h1.822c0.733 0 1.326-0.594 1.326-1.326v0-1.822c0-0.733-0.594-1.326-1.326-1.326v0z"></path>
<path fill="#eff0f7" style="fill: var(--color11, #eff0f7)" d="M11.333 21.819h-1.822c-0.733 0-1.326 0.594-1.326 1.326v0 1.822c0 0.733 0.594 1.326 1.326 1.326v0h1.822c0.733 0 1.326-0.594 1.326-1.326v0-1.822c0-0.733-0.594-1.326-1.326-1.326v0zM16.968 10.216h-1.822c-0.733 0-1.326 0.594-1.326 1.326v0 1.822c0 0.733 0.594 1.326 1.326 1.326v0h1.822c0.733 0 1.326-0.594 1.326-1.326v0-1.822c0-0.733-0.594-1.326-1.326-1.326v0zM16.968 16.018h-1.822c-0.733 0-1.326 0.594-1.326 1.326v0 1.822c0 0.733 0.594 1.326 1.326 1.326v0h1.822c0.733 0 1.326-0.594 1.326-1.326v0-1.822c0-0.733-0.594-1.326-1.326-1.326v0zM16.968 21.819h-1.822c-0.733 0-1.326 0.594-1.326 1.326v0 1.822c0 0.733 0.594 1.326 1.326 1.326v0h1.822c0.733 0 1.326-0.594 1.326-1.326v0-1.822c0-0.733-0.594-1.326-1.326-1.326v0zM22.604 10.216h-1.822c-0.733 0-1.326 0.594-1.326 1.326v0 1.822c0 0.733 0.594 1.326 1.326 1.326v0h1.822c0.733 0 1.326-0.594 1.326-1.326v0-1.822c0-0.733-0.594-1.326-1.326-1.326v0zM22.604 16.018h-1.822c-0.733 0-1.326 0.594-1.326 1.326v0 1.822c0 0.733 0.594 1.326 1.326 1.326v0h1.822c0.733 0 1.326-0.594 1.326-1.326v0-1.822c0-0.733-0.594-1.326-1.326-1.326v0zM22.604 21.819h-1.822c-0.733 0-1.326 0.594-1.326 1.326v0 1.822c0 0.733 0.594 1.326 1.326 1.326v0h1.822c0.733 0 1.326-0.594 1.326-1.326v0-1.822c0-0.733-0.594-1.326-1.326-1.326v0z"></path>
<path fill="#a0a3bd" opacity="0.6" style="fill: var(--color12, #a0a3bd)" d="M6.36 6.883h-3.149c-0.366 0-0.663 0.297-0.663 0.663s0.297 0.663 0.663 0.663v0h3.149c0.366 0 0.663-0.297 0.663-0.663s-0.297-0.663-0.663-0.663v0zM11.996 6.883h-3.149c-0.366 0-0.663 0.297-0.663 0.663s0.297 0.663 0.663 0.663v0h3.149c0.366 0 0.663-0.297 0.663-0.663s-0.297-0.663-0.663-0.663v0zM17.632 6.883h-3.149c-0.366 0-0.663 0.297-0.663 0.663s0.297 0.663 0.663 0.663v0h3.149c0.366 0 0.663-0.297 0.663-0.663s-0.297-0.663-0.663-0.663v0zM23.267 6.883h-3.149c-0.366 0-0.663 0.297-0.663 0.663s0.297 0.663 0.663 0.663v0h3.149c0.366 0 0.663-0.297 0.663-0.663s-0.297-0.663-0.663-0.663v0z"></path>
</symbol>
</defs>
</svg>
